<svg width="28" height="28" viewBox="0 0 28 28" fill="none" xmlns="http://www.w3.org/2000/svg">
<path d="M0.410156 8.8335V22.6968H21.1832M24.4727 12.9668V22.6968H22.0035M0.410156 8.01318V5.74365H14.0569M0.410156 19.4155H24.4727M15.1758 24.8569V22.6968H9.70703V24.8569L6.69922 25.9507V27.5913H18.1836V25.9507L15.1758 24.8569Z" stroke="#007AFF" stroke-width="0.820312" stroke-miterlimit="10"/>
<path d="M20.729 14.0811C24.5044 14.0811 27.565 11.0205 27.565 7.24512C27.565 3.46973 24.5044 0.40918 20.729 0.40918C16.9537 0.40918 13.8931 3.46973 13.8931 7.24512C13.8931 11.0205 16.9537 14.0811 20.729 14.0811Z" stroke="#007AFF" stroke-width="0.820312" stroke-miterlimit="10"/>
<path d="M19.3285 0.553345L20.7275 2.19583H22.4179L23.2597 3.92778H24.6694L25.8643 2.73592M14.0654 8.78398L16.0017 8.79973L17.7593 10.6708L19.8279 9.42628V7.93599L21.627 6.53774L21.1108 4.78495L18.3474 5.08563L17.3471 3.50691L15.4749 2.87111M27.1545 4.9121L24.2908 6.12748V6.9281L25.1475 7.79266L24.7705 9.20999L27.0973 9.73111M4.89787 11.0058V8.98731H9.95843V11.0058M21.6874 9.73111L20.7275 11.1175L22.0615 12.3323L23.4239 11.2076L22.9212 9.78334L21.6874 9.73111ZM2.54297 11.0058H12.3133V17.1904H2.54297V11.0058Z" stroke="#007AFF" stroke-width="0.820312" stroke-miterlimit="10"/>
<path d="M2.54297 12.6542L7.42815 14.1014L12.3133 12.6542M13.9282 17.1937H14.7485M15.5688 17.1937H16.3891" stroke="#007AFF" stroke-width="0.820312" stroke-miterlimit="10"/>
</svg>
