<svg width="28" height="28" viewBox="0 0 28 28" fill="none" xmlns="http://www.w3.org/2000/svg">
<path d="M1.97477 20.003C2.05133 19.7837 2.25859 19.6361 2.49101 19.6361C2.55227 19.6361 2.61297 19.6465 2.67094 19.6667C2.95586 19.7663 3.1068 20.0785 3.00727 20.3634C2.82625 20.883 2.73438 21.4282 2.73438 21.9844C2.73492 23.2985 3.2468 24.5345 4.17594 25.4647C5.10617 26.3938 6.34211 26.9062 7.65625 26.9062C8.97039 26.9062 10.2063 26.3938 11.1366 25.4647C12.0657 24.5345 12.5781 23.2985 12.5781 21.9844C12.5781 20.6702 12.0657 19.4343 11.1366 18.5041C10.2063 17.5749 8.97039 17.063 7.65625 17.0625C7.10008 17.0625 6.5543 17.1544 6.03477 17.3359C5.97625 17.3562 5.91555 17.3666 5.8543 17.3666C5.62187 17.3666 5.41461 17.2189 5.33805 16.9996C5.23851 16.7147 5.38945 16.4024 5.67438 16.3029C6.30984 16.0814 6.97648 15.9688 7.65516 15.9688H7.65625C8.46836 15.9688 9.25641 16.1279 9.99797 16.4418C10.2514 16.5492 10.4972 16.6739 10.7336 16.815L13.1066 16.146L13.2052 15.0616C11.8196 14.3058 10.8115 12.9381 10.5574 11.3119C8.95294 10.4389 8.03906 9.18838 8.03906 7.84766C8.03906 6.56966 8.84062 5.39897 10.3027 4.52829C10.4796 3.48217 10.9612 2.51169 11.7114 1.71659C12.7559 0.609601 14.1707 0 15.6953 0C17.2199 0 18.6348 0.609601 19.6792 1.71659C20.4298 2.51202 20.9114 3.48288 21.0882 4.52845C22.5501 5.39908 23.3516 6.56972 23.3516 7.84766C23.3516 9.18832 22.4377 10.4387 20.8334 11.3118C20.58 12.9375 19.5717 14.3056 18.1855 15.0617L18.284 16.146L22.0174 17.1986C23.2794 17.5641 24.3636 18.3125 25.1529 19.3628C25.9422 20.4132 26.3594 21.6628 26.3594 22.9767V27.4531C26.3594 27.7552 26.1145 28 25.8125 28H5.57812C5.27609 28 5.03125 27.7552 5.03125 27.4531V27.3979C4.42794 27.1054 3.88112 26.7164 3.40266 26.2379C2.85031 25.6856 2.41664 25.0424 2.11367 24.326C1.79976 23.5845 1.64062 22.7964 1.64062 21.9843C1.64062 21.3052 1.75273 20.6391 1.97477 20.003ZM9.13281 7.84766C9.13281 8.60595 9.6063 9.34877 10.4588 9.96324L10.2429 5.89854C9.5282 6.48047 9.13281 7.16275 9.13281 7.84766ZM18.8837 2.46717C18.048 1.58151 16.9157 1.09375 15.6953 1.09375C14.4749 1.09375 13.3426 1.58151 12.5069 2.46717C11.6764 3.34731 11.2577 4.49602 11.328 5.70445L11.3581 6.27194C13.2157 5.73393 14.6606 4.4718 14.6761 4.45812C14.7756 4.36981 14.904 4.32082 15.037 4.32031C15.1701 4.31981 15.2988 4.36784 15.399 4.45539C16.9425 5.80431 18.6693 6.43967 20.0078 6.73805L20.0628 5.70172C20.1329 4.49602 19.7142 3.34731 18.8837 2.46717ZM22.2578 7.84766C22.2578 7.16275 21.8624 6.48047 21.1477 5.89859L20.9318 9.9633C21.7843 9.34877 22.2578 8.60595 22.2578 7.84766ZM19.7947 10.7518L19.9491 7.84421C18.5511 7.55371 16.721 6.92623 15.0336 5.57545C14.4104 6.05309 13.0589 6.97178 11.4174 7.38927L11.5958 10.749C11.7213 12.9093 13.5221 14.6016 15.6953 14.6016C17.8685 14.6016 19.6693 12.9093 19.7947 10.7518ZM15.6953 15.6953C15.2112 15.6955 14.7295 15.6282 14.264 15.4953L14.1848 16.3669L15.6953 17.8973L17.2058 16.3669L17.1266 15.4953C16.6611 15.6282 16.1794 15.6955 15.6953 15.6953ZM25.2656 22.9767C25.2656 20.799 23.8048 18.855 21.7168 18.2502L17.9358 17.1843L16.0845 19.06C16.0336 19.1115 15.973 19.1524 15.9062 19.1803C15.8394 19.2082 15.7677 19.2226 15.6953 19.2226C15.6229 19.2226 15.5512 19.2082 15.4844 19.1803C15.4176 19.1524 15.357 19.1115 15.3061 19.06L13.4548 17.1843L11.8201 17.6451C11.85 17.6738 11.8805 17.7014 11.9099 17.7308C12.4622 18.2831 12.8959 18.9263 13.1989 19.6427C13.5127 20.3842 13.6719 21.1723 13.6719 21.9844C13.6719 22.7965 13.5127 23.5845 13.1988 24.3261C12.8959 25.0425 12.4622 25.6856 11.9098 26.238C11.6641 26.4832 11.3978 26.7068 11.1136 26.9062H20.7539V23.2422C20.7539 22.9401 20.9987 22.6953 21.3008 22.6953C21.6028 22.6953 21.8477 22.9401 21.8477 23.2422V26.9062H25.2656V22.9767Z" fill="#007AFF"/>
<path d="M3.78848 18.6648C3.48645 18.6648 3.24161 18.42 3.24161 18.1179C3.24161 17.8159 3.48645 17.571 3.78848 17.571C4.09051 17.571 4.33536 17.8159 4.33536 18.1179C4.33536 18.42 4.09051 18.6648 3.78848 18.6648Z" fill="#007AFF"/>
<path d="M5.31886 19.7413C5.57606 19.583 5.91293 19.6632 6.0712 19.9205L7.86992 22.8433L9.29546 21.2141C9.49436 20.9869 9.83982 20.9638 10.0672 21.1627C10.2944 21.3616 10.3175 21.7071 10.1186 21.9344L8.20456 24.1219C8.10027 24.2411 7.92713 24.3077 7.77017 24.3077C7.59703 24.2932 7.41826 24.1964 7.3272 24.0484L5.1397 20.4937C4.98144 20.2365 5.06167 19.8996 5.31886 19.7413ZM14.2217 12.6981C14.0044 12.4883 13.9984 12.1421 14.2082 11.9248C14.4179 11.7075 14.7642 11.7015 14.9815 11.9113C15.3751 12.2914 16.0156 12.2914 16.4092 11.9113C16.6264 11.7015 16.9727 11.7076 17.1825 11.9248C17.3923 12.1421 17.3863 12.4883 17.169 12.6981C16.7627 13.0904 16.229 13.2866 15.6954 13.2866C15.1617 13.2866 14.628 13.0905 14.2217 12.6981Z" fill="#007AFF"/>
<path d="M13.3711 9.625C13.0691 9.625 12.8242 9.38016 12.8242 9.07812C12.8242 8.77609 13.0691 8.53125 13.3711 8.53125C13.6731 8.53125 13.918 8.77609 13.918 9.07812C13.918 9.38016 13.6731 9.625 13.3711 9.625Z" fill="#007AFF"/>
<path d="M18.0195 9.625C17.7175 9.625 17.4727 9.38016 17.4727 9.07812C17.4727 8.77609 17.7175 8.53125 18.0195 8.53125C18.3216 8.53125 18.5664 8.77609 18.5664 9.07812C18.5664 9.38016 18.3216 9.625 18.0195 9.625Z" fill="#007AFF"/>
<path d="M15.6953 25.1562C15.3933 25.1562 15.1484 24.9114 15.1484 24.6094C15.1484 24.3073 15.3933 24.0625 15.6953 24.0625C15.9973 24.0625 16.2422 24.3073 16.2422 24.6094C16.2422 24.9114 15.9973 25.1562 15.6953 25.1562Z" fill="#007AFF"/>
<path d="M15.6953 22.6953C15.3933 22.6953 15.1484 22.4505 15.1484 22.1484C15.1484 21.8464 15.3933 21.6016 15.6953 21.6016C15.9973 21.6016 16.2422 21.8464 16.2422 22.1484C16.2422 22.4505 15.9973 22.6953 15.6953 22.6953Z" fill="#007AFF"/>
</svg>
