<svg width="26" height="26" viewBox="0 0 26 26" fill="none" xmlns="http://www.w3.org/2000/svg">
<mask id="mask0_526_4637" style="mask-type:luminance" maskUnits="userSpaceOnUse" x="0" y="0" width="26" height="26">
<path d="M25.5 25.5V0.5H0.5V25.5H25.5Z" fill="white" stroke="white"/>
</mask>
<g mask="url(#mask0_526_4637)">
<path d="M15.3549 22.0447H21.371C22.6183 22.0447 23.6296 21.0334 23.6296 19.786V18.5312" stroke="#007AFF" stroke-miterlimit="10" stroke-linecap="round" stroke-linejoin="round"/>
<path d="M23.6296 9.66846V8.03712C23.6296 6.78973 22.6184 5.77848 21.371 5.77848H2.6395C1.39211 5.77848 0.380859 6.78973 0.380859 8.03712V19.786C0.380859 21.0334 1.39211 22.0447 2.6395 22.0447H8.15037" stroke="#007AFF" stroke-miterlimit="10" stroke-linecap="round" stroke-linejoin="round"/>
<path d="M0.380859 9.608C0.380859 11.8684 2.21324 13.7008 4.47366 13.7008H4.52069" stroke="#007AFF" stroke-miterlimit="10" stroke-linecap="round" stroke-linejoin="round"/>
<path d="M6.63165 13.7008H13.7714" stroke="#007AFF" stroke-miterlimit="10" stroke-linecap="round" stroke-linejoin="round"/>
<path d="M11.7135 23.7661L14.8194 20.6602C14.8617 20.6179 14.8953 20.5676 14.9182 20.5123C14.9411 20.457 14.9529 20.3978 14.9529 20.3379C14.9529 20.2781 14.9411 20.2188 14.9182 20.1635C14.8953 20.1082 14.8617 20.058 14.8194 20.0157L13.7726 18.9689C13.7303 18.9265 13.68 18.893 13.6247 18.8701C13.5695 18.8472 13.5102 18.8354 13.4503 18.8354C13.3905 18.8354 13.3312 18.8472 13.2759 18.8701C13.2206 18.893 13.1704 18.9265 13.1281 18.9689L10.0222 22.0747C9.55518 22.5418 9.55518 23.299 10.0222 23.7661C10.4893 24.2331 11.2465 24.2331 11.7135 23.7661Z" stroke="#007AFF" stroke-miterlimit="10" stroke-linecap="round" stroke-linejoin="round"/>
<path d="M12.4432 19.6538L14.1345 21.3451" stroke="#007AFF" stroke-miterlimit="10" stroke-linecap="round" stroke-linejoin="round"/>
<path d="M23.882 18.2935C21.566 20.6095 17.8109 20.6095 15.4949 18.2935C13.1788 15.9775 13.1788 12.2224 15.4949 9.90634C17.8109 7.59027 21.566 7.59027 23.882 9.90634C26.1981 12.2224 26.1981 15.9775 23.882 18.2935Z" stroke="#007AFF" stroke-miterlimit="10" stroke-linecap="round" stroke-linejoin="round"/>
<path d="M23.7859 14.995C23.6209 15.7537 23.2435 16.4754 22.6538 17.0652C21.0161 18.7029 18.3608 18.7029 16.7231 17.0652C15.0854 15.4275 15.0854 12.7723 16.7231 11.1346C18.3608 9.49688 21.0161 9.49688 22.6538 11.1346C23.243 11.7238 23.6202 12.4447 23.7854 13.2025" stroke="#007AFF" stroke-miterlimit="10" stroke-linecap="round" stroke-linejoin="round"/>
<path d="M5.57618 16.5114C4.99326 16.5114 4.52069 16.0388 4.52069 15.4559V13.0029C4.52069 12.42 4.99326 11.9475 5.57618 11.9475C6.15909 11.9475 6.63166 12.42 6.63166 13.0029V15.4559C6.63166 16.0388 6.15909 16.5114 5.57618 16.5114Z" stroke="#007AFF" stroke-miterlimit="10" stroke-linecap="round" stroke-linejoin="round"/>
<path d="M6.63166 14.666H4.52069" stroke="#007AFF" stroke-miterlimit="10" stroke-linecap="round" stroke-linejoin="round"/>
<path d="M16.3601 5.77844V4.07108C16.3601 2.86498 15.3789 1.88374 14.1727 1.88374H9.83767C8.63151 1.88374 7.65027 2.86498 7.65027 4.07108V5.77844" stroke="#007AFF" stroke-miterlimit="10" stroke-linecap="round" stroke-linejoin="round"/>
<path d="M9.22449 5.77844V4.07108C9.22449 3.73298 9.49957 3.45795 9.83767 3.45795H14.1728C14.5109 3.45795 14.7859 3.73298 14.7859 4.07108V5.77844" stroke="#007AFF" stroke-miterlimit="10" stroke-linecap="round" stroke-linejoin="round"/>
</g>
</svg>
