<svg width="172" height="60" viewBox="0 0 172 60" fill="none" xmlns="http://www.w3.org/2000/svg">
<rect x="0.517184" y="0.517184" width="169.984" height="58.2694" rx="9.13692" stroke="white" stroke-width="1.03437"/>
<path d="M37.104 24.6616C36.9198 24.8028 33.6667 26.6131 33.6667 30.6387C33.6667 35.2948 37.8061 36.9421 37.93 36.9829C37.9109 37.0833 37.2724 39.2388 35.7475 41.4351C34.3879 43.3678 32.9678 45.2974 30.8076 45.2974C28.6474 45.2974 28.0914 44.0581 25.5976 44.0581C23.1674 44.0581 22.3033 45.3382 20.3273 45.3382C18.3513 45.3382 16.9726 43.5498 15.3874 41.3535C13.5512 38.7744 12.0676 34.7677 12.0676 30.965C12.0676 24.8655 16.0831 21.6307 20.0351 21.6307C22.1349 21.6307 23.8853 22.9924 25.2037 22.9924C26.4586 22.9924 28.4155 21.5491 30.8044 21.5491C31.7098 21.5491 34.9629 21.6307 37.104 24.6616ZM29.6703 18.9669C30.6583 17.8091 31.3572 16.2026 31.3572 14.5962C31.3572 14.3734 31.3381 14.1475 31.2968 13.9655C29.6894 14.0252 27.7769 15.0229 26.6238 16.3438C25.7184 17.3604 24.8733 18.9669 24.8733 20.5953C24.8733 20.84 24.9146 21.0847 24.9337 21.1632C25.0353 21.182 25.2005 21.2039 25.3657 21.2039C26.808 21.2039 28.622 20.2501 29.6703 18.9669Z" fill="white"/>
<path d="M50.3338 20.6197H47.5086V11.8924H50.4233C51.2784 11.8924 52.0128 12.0672 52.6264 12.4166C53.2401 12.7632 53.7103 13.2618 54.037 13.9123C54.3665 14.5601 54.5313 15.337 54.5313 16.2433C54.5313 17.1524 54.3651 17.9336 54.0327 18.5871C53.7032 19.2405 53.2259 19.7433 52.6009 20.0956C51.9759 20.445 51.2202 20.6197 50.3338 20.6197ZM48.8253 19.4692H50.2614C50.9262 19.4692 51.4787 19.3442 51.9191 19.0942C52.3594 18.8413 52.6889 18.4763 52.9077 17.999C53.1264 17.5189 53.2358 16.9336 53.2358 16.2433C53.2358 15.5586 53.1264 14.9777 52.9077 14.5004C52.6918 14.0231 52.3693 13.6609 51.9404 13.4138C51.5114 13.1666 50.9787 13.043 50.3424 13.043H48.8253V19.4692ZM58.8235 20.7518C58.2099 20.7518 57.6744 20.6112 57.217 20.3299C56.7596 20.0487 56.4045 19.6552 56.1517 19.1495C55.8988 18.6439 55.7724 18.053 55.7724 17.3768C55.7724 16.6978 55.8988 16.1041 56.1517 15.5956C56.4045 15.087 56.7596 14.6922 57.217 14.4109C57.6744 14.1297 58.2099 13.989 58.8235 13.989C59.4372 13.989 59.9727 14.1297 60.4301 14.4109C60.8875 14.6922 61.2426 15.087 61.4954 15.5956C61.7483 16.1041 61.8747 16.6978 61.8747 17.3768C61.8747 18.053 61.7483 18.6439 61.4954 19.1495C61.2426 19.6552 60.8875 20.0487 60.4301 20.3299C59.9727 20.6112 59.4372 20.7518 58.8235 20.7518ZM58.8278 19.6822C59.2255 19.6822 59.5551 19.5771 59.8164 19.3669C60.0778 19.1567 60.271 18.8768 60.396 18.5274C60.5238 18.178 60.5877 17.793 60.5877 17.3726C60.5877 16.9549 60.5238 16.5714 60.396 16.222C60.271 15.8697 60.0778 15.587 59.8164 15.374C59.5551 15.1609 59.2255 15.0544 58.8278 15.0544C58.4272 15.0544 58.0948 15.1609 57.8306 15.374C57.5693 15.587 57.3747 15.8697 57.2468 16.222C57.1218 16.5714 57.0593 16.9549 57.0593 17.3726C57.0593 17.793 57.1218 18.178 57.2468 18.5274C57.3747 18.8768 57.5693 19.1567 57.8306 19.3669C58.0948 19.5771 58.4272 19.6822 58.8278 19.6822ZM64.5167 20.6197L62.5906 14.0743H63.9073L65.19 18.8811H65.2539L66.5409 14.0743H67.8576L69.136 18.8598H69.2L70.4741 14.0743H71.7909L69.869 20.6197H68.5693L67.2397 15.8939H67.1417L65.8122 20.6197H64.5167ZM74.2742 16.7334V20.6197H73V14.0743H74.223V15.1396H74.304C74.4546 14.793 74.6904 14.5146 75.0114 14.3044C75.3353 14.0942 75.7429 13.989 76.2344 13.989C76.6804 13.989 77.0711 14.0828 77.4063 14.2703C77.7415 14.4549 78.0014 14.7305 78.1861 15.097C78.3708 15.4635 78.4631 15.9166 78.4631 16.4564V20.6197H77.1889V16.6098C77.1889 16.1353 77.0654 15.7646 76.8182 15.4976C76.5711 15.2277 76.2316 15.0927 75.7997 15.0927C75.5043 15.0927 75.2415 15.1567 75.0114 15.2845C74.7841 15.4123 74.6037 15.5998 74.4702 15.847C74.3395 16.0913 74.2742 16.3868 74.2742 16.7334ZM81.4461 11.8924V20.6197H80.1719V11.8924H81.4461ZM85.9173 20.7518C85.3037 20.7518 84.7681 20.6112 84.3108 20.3299C83.8534 20.0487 83.4983 19.6552 83.2454 19.1495C82.9926 18.6439 82.8661 18.053 82.8661 17.3768C82.8661 16.6978 82.9926 16.1041 83.2454 15.5956C83.4983 15.087 83.8534 14.6922 84.3108 14.4109C84.7681 14.1297 85.3037 13.989 85.9173 13.989C86.5309 13.989 87.0664 14.1297 87.5238 14.4109C87.9812 14.6922 88.3363 15.087 88.5892 15.5956C88.842 16.1041 88.9684 16.6978 88.9684 17.3768C88.9684 18.053 88.842 18.6439 88.5892 19.1495C88.3363 19.6552 87.9812 20.0487 87.5238 20.3299C87.0664 20.6112 86.5309 20.7518 85.9173 20.7518ZM85.9215 19.6822C86.3193 19.6822 86.6488 19.5771 86.9102 19.3669C87.1715 19.1567 87.3647 18.8768 87.4897 18.5274C87.6176 18.178 87.6815 17.793 87.6815 17.3726C87.6815 16.9549 87.6176 16.5714 87.4897 16.222C87.3647 15.8697 87.1715 15.587 86.9102 15.374C86.6488 15.1609 86.3193 15.0544 85.9215 15.0544C85.521 15.0544 85.1886 15.1609 84.9244 15.374C84.663 15.587 84.4684 15.8697 84.3406 16.222C84.2156 16.5714 84.1531 16.9549 84.1531 17.3726C84.1531 17.793 84.2156 18.178 84.3406 18.5274C84.4684 18.8768 84.663 19.1567 84.9244 19.3669C85.1886 19.5771 85.521 19.6822 85.9215 19.6822ZM92.2955 20.7646C91.8807 20.7646 91.5057 20.6879 91.1705 20.5345C90.8353 20.3782 90.5696 20.1524 90.3736 19.8569C90.1804 19.5615 90.0838 19.1993 90.0838 18.7703C90.0838 18.401 90.1549 18.097 90.2969 17.8584C90.4389 17.6197 90.6307 17.4308 90.8722 17.2916C91.1137 17.1524 91.3836 17.0473 91.6818 16.9763C91.9801 16.9052 92.2841 16.8513 92.5938 16.8143C92.9858 16.7689 93.304 16.7319 93.5483 16.7035C93.7926 16.6723 93.9702 16.6226 94.081 16.5544C94.1918 16.4862 94.2472 16.3754 94.2472 16.222V16.1922C94.2472 15.82 94.1421 15.5317 93.9318 15.3271C93.7245 15.1226 93.4148 15.0203 93.0029 15.0203C92.5739 15.0203 92.2358 15.1155 91.9887 15.3058C91.7443 15.4933 91.5753 15.7021 91.4816 15.9322L90.2841 15.6595C90.4262 15.2618 90.6336 14.9407 90.9063 14.6964C91.1818 14.4493 91.4986 14.2703 91.8566 14.1595C92.2145 14.0459 92.5909 13.989 92.9858 13.989C93.2472 13.989 93.5242 14.0203 93.8168 14.0828C94.1122 14.1424 94.3878 14.2532 94.6435 14.4152C94.902 14.5771 95.1137 14.8086 95.2784 15.1098C95.4432 15.4081 95.5256 15.7959 95.5256 16.2731V20.6197H94.2813V19.7248H94.2301C94.1478 19.8896 94.0242 20.0515 93.8594 20.2106C93.6946 20.3697 93.483 20.5018 93.2245 20.6069C92.9659 20.7121 92.6563 20.7646 92.2955 20.7646ZM92.5725 19.7419C92.9247 19.7419 93.2259 19.6723 93.4759 19.5331C93.7287 19.3939 93.9205 19.212 94.0512 18.9876C94.1847 18.7603 94.2514 18.5174 94.2514 18.2589V17.4152C94.206 17.4606 94.1179 17.5032 93.9872 17.543C93.8594 17.5799 93.7131 17.6126 93.5483 17.641C93.3836 17.6666 93.223 17.6907 93.0668 17.7135C92.9105 17.7334 92.7799 17.7504 92.6747 17.7646C92.4276 17.7959 92.2017 17.8484 91.9972 17.9223C91.7955 17.9961 91.6336 18.1027 91.5114 18.2419C91.3921 18.3782 91.3324 18.5601 91.3324 18.7873C91.3324 19.1027 91.4489 19.3413 91.6818 19.5032C91.9148 19.6623 92.2117 19.7419 92.5725 19.7419ZM99.673 20.7476C99.1446 20.7476 98.673 20.6126 98.2582 20.3427C97.8463 20.07 97.5224 19.6822 97.2866 19.1794C97.0536 18.6737 96.9372 18.0672 96.9372 17.3598C96.9372 16.6524 97.0551 16.0473 97.2909 15.5444C97.5295 15.0416 97.8562 14.6567 98.271 14.3896C98.6858 14.1226 99.1559 13.989 99.6815 13.989C100.088 13.989 100.414 14.0572 100.662 14.1936C100.912 14.3271 101.105 14.4834 101.241 14.6623C101.38 14.8413 101.488 14.999 101.565 15.1353H101.642V11.8924H102.916V20.6197H101.672V19.6013H101.565C101.488 19.7405 101.378 19.8995 101.233 20.0785C101.091 20.2575 100.895 20.4138 100.645 20.5473C100.395 20.6808 100.071 20.7476 99.673 20.7476ZM99.9542 19.6609C100.321 19.6609 100.63 19.5643 100.883 19.3711C101.139 19.1751 101.332 18.9038 101.463 18.5572C101.596 18.2106 101.663 17.8072 101.663 17.347C101.663 16.8924 101.598 16.4947 101.467 16.1538C101.336 15.8129 101.145 15.5473 100.892 15.3569C100.639 15.1666 100.326 15.0714 99.9542 15.0714C99.5707 15.0714 99.2511 15.1709 98.9954 15.3697C98.7397 15.5686 98.5465 15.8399 98.4159 16.1836C98.288 16.5274 98.2241 16.9152 98.2241 17.347C98.2241 17.7845 98.2894 18.178 98.4201 18.5274C98.5508 18.8768 98.744 19.1538 98.9997 19.3584C99.2582 19.5601 99.5764 19.6609 99.9542 19.6609ZM110.667 20.7518C110.054 20.7518 109.518 20.6112 109.061 20.3299C108.603 20.0487 108.248 19.6552 107.995 19.1495C107.743 18.6439 107.616 18.053 107.616 17.3768C107.616 16.6978 107.743 16.1041 107.995 15.5956C108.248 15.087 108.603 14.6922 109.061 14.4109C109.518 14.1297 110.054 13.989 110.667 13.989C111.281 13.989 111.816 14.1297 112.274 14.4109C112.731 14.6922 113.086 15.087 113.339 15.5956C113.592 16.1041 113.718 16.6978 113.718 17.3768C113.718 18.053 113.592 18.6439 113.339 19.1495C113.086 19.6552 112.731 20.0487 112.274 20.3299C111.816 20.6112 111.281 20.7518 110.667 20.7518ZM110.672 19.6822C111.069 19.6822 111.399 19.5771 111.66 19.3669C111.922 19.1567 112.115 18.8768 112.24 18.5274C112.368 18.178 112.431 17.793 112.431 17.3726C112.431 16.9549 112.368 16.5714 112.24 16.222C112.115 15.8697 111.922 15.587 111.66 15.374C111.399 15.1609 111.069 15.0544 110.672 15.0544C110.271 15.0544 109.939 15.1609 109.674 15.374C109.413 15.587 109.218 15.8697 109.091 16.222C108.966 16.5714 108.903 16.9549 108.903 17.3726C108.903 17.793 108.966 18.178 109.091 18.5274C109.218 18.8768 109.413 19.1567 109.674 19.3669C109.939 19.5771 110.271 19.6822 110.672 19.6822ZM116.415 16.7334V20.6197H115.141V14.0743H116.364V15.1396H116.445C116.595 14.793 116.831 14.5146 117.152 14.3044C117.476 14.0942 117.884 13.989 118.375 13.989C118.821 13.989 119.212 14.0828 119.547 14.2703C119.882 14.4549 120.142 14.7305 120.327 15.097C120.511 15.4635 120.604 15.9166 120.604 16.4564V20.6197H119.33V16.6098C119.33 16.1353 119.206 15.7646 118.959 15.4976C118.712 15.2277 118.372 15.0927 117.94 15.0927C117.645 15.0927 117.382 15.1567 117.152 15.2845C116.925 15.4123 116.744 15.5998 116.611 15.847C116.48 16.0913 116.415 16.3868 116.415 16.7334ZM128.544 14.0743V15.097H124.968V14.0743H128.544ZM125.927 12.5061H127.201V18.6978C127.201 18.945 127.238 19.1311 127.312 19.2561C127.386 19.3782 127.481 19.462 127.598 19.5075C127.717 19.5501 127.846 19.5714 127.985 19.5714C128.088 19.5714 128.177 19.5643 128.254 19.5501C128.331 19.5359 128.39 19.5245 128.433 19.516L128.663 20.5686C128.589 20.597 128.484 20.6254 128.348 20.6538C128.211 20.6851 128.041 20.7021 127.836 20.7049C127.501 20.7106 127.189 20.651 126.899 20.526C126.609 20.401 126.375 20.2078 126.196 19.9464C126.017 19.6851 125.927 19.3569 125.927 18.9621V12.5061ZM131.368 16.7334V20.6197H130.094V11.8924H131.351V15.1396H131.432C131.585 14.7873 131.82 14.5075 132.135 14.3001C132.45 14.0927 132.862 13.989 133.371 13.989C133.82 13.989 134.212 14.0814 134.547 14.266C134.885 14.4507 135.146 14.7263 135.331 15.0927C135.518 15.4564 135.612 15.9109 135.612 16.4564V20.6197H134.338V16.6098C134.338 16.1297 134.215 15.7575 133.967 15.4933C133.72 15.2263 133.376 15.0927 132.936 15.0927C132.635 15.0927 132.365 15.1567 132.126 15.2845C131.891 15.4123 131.705 15.5998 131.568 15.847C131.435 16.0913 131.368 16.3868 131.368 16.7334ZM140.134 20.7518C139.489 20.7518 138.933 20.614 138.467 20.3385C138.004 20.0601 137.646 19.6694 137.393 19.1666C137.143 18.6609 137.018 18.0686 137.018 17.3896C137.018 16.7192 137.143 16.1282 137.393 15.6169C137.646 15.1055 137.999 14.7064 138.45 14.4194C138.905 14.1325 139.436 13.989 140.044 13.989C140.413 13.989 140.771 14.0501 141.118 14.1723C141.465 14.2944 141.776 14.4862 142.051 14.7476C142.327 15.0089 142.544 15.3484 142.703 15.766C142.862 16.1808 142.942 16.6851 142.942 17.2788V17.7305H137.739V16.776H141.693C141.693 16.4407 141.625 16.1439 141.489 15.8853C141.352 15.624 141.161 15.418 140.913 15.2674C140.669 15.1169 140.382 15.0416 140.053 15.0416C139.695 15.0416 139.382 15.1297 139.115 15.3058C138.851 15.4791 138.646 15.7064 138.501 15.9876C138.359 16.266 138.288 16.5686 138.288 16.8953V17.641C138.288 18.0785 138.365 18.4507 138.518 18.7575C138.675 19.0643 138.892 19.2987 139.17 19.4606C139.449 19.6197 139.774 19.6993 140.146 19.6993C140.388 19.6993 140.608 19.6652 140.807 19.597C141.006 19.526 141.178 19.4209 141.322 19.2817C141.467 19.1424 141.578 18.9706 141.655 18.766L142.861 18.9834C142.764 19.3385 142.591 19.6495 142.341 19.9166C142.094 20.1808 141.783 20.3868 141.408 20.5345C141.036 20.6794 140.611 20.7518 140.134 20.7518Z" fill="white"/>
<path d="M49.6591 44.0035H47.0966L52.8544 28.0035H55.6435L61.4013 44.0035H58.8388L54.3154 30.9098H54.1904L49.6591 44.0035ZM50.0888 37.7379H58.4013V39.7691H50.0888V37.7379ZM61.9844 48.5035V32.0035H64.2656V33.9488H64.4609C64.5963 33.6988 64.7916 33.4098 65.0469 33.0816C65.3021 32.7535 65.6562 32.4671 66.1094 32.2223C66.5625 31.9723 67.1614 31.8473 67.9062 31.8473C68.875 31.8473 69.7396 32.0921 70.5 32.5816C71.2604 33.0712 71.8567 33.7769 72.289 34.6988C72.7265 35.6207 72.9453 36.7301 72.9453 38.0269C72.9453 39.3238 72.7291 40.4358 72.2969 41.3629C71.8646 42.2848 71.2708 42.9957 70.5156 43.4957C69.7604 43.9905 68.8984 44.2379 67.9297 44.2379C67.2005 44.2379 66.6041 44.1155 66.1406 43.8707C65.6823 43.6259 65.3229 43.3394 65.0625 43.0113C64.8021 42.6832 64.6015 42.3915 64.4609 42.1363H64.3203V48.5035H61.9844ZM64.2734 38.0035C64.2734 38.8473 64.3958 39.5868 64.6406 40.2223C64.8854 40.8577 65.2396 41.3551 65.7031 41.7144C66.1666 42.0686 66.7344 42.2457 67.4062 42.2457C68.1041 42.2457 68.6875 42.0608 69.1562 41.691C69.625 41.316 69.9791 40.8082 70.2187 40.1676C70.4635 39.5269 70.5859 38.8056 70.5859 38.0035C70.5859 37.2118 70.4661 36.5009 70.2265 35.8707C69.9922 35.2405 69.638 34.7431 69.164 34.3785C68.6953 34.0139 68.1094 33.8316 67.4062 33.8316C66.7291 33.8316 66.1562 34.0061 65.6875 34.3551C65.2239 34.704 64.8724 35.191 64.6328 35.816C64.3932 36.441 64.2734 37.1702 64.2734 38.0035ZM74.0225 48.5035V32.0035H76.3037V33.9488H76.499C76.6345 33.6988 76.8298 33.4098 77.085 33.0816C77.3402 32.7535 77.6944 32.4671 78.1475 32.2223C78.6006 31.9723 79.1996 31.8473 79.9444 31.8473C80.9131 31.8473 81.7777 32.0921 82.5381 32.5816C83.2985 33.0712 83.8949 33.7769 84.3272 34.6988C84.7647 35.6207 84.9834 36.7301 84.9834 38.0269C84.9834 39.3238 84.7673 40.4358 84.335 41.3629C83.9027 42.2848 83.3089 42.9957 82.5537 43.4957C81.7985 43.9905 80.9365 44.2379 79.9678 44.2379C79.2386 44.2379 78.6423 44.1155 78.1787 43.8707C77.7204 43.6259 77.361 43.3394 77.1006 43.0113C76.8402 42.6832 76.6397 42.3915 76.499 42.1363H76.3584V48.5035H74.0225ZM76.3115 38.0035C76.3115 38.8473 76.4339 39.5868 76.6787 40.2223C76.9235 40.8577 77.2777 41.3551 77.7412 41.7144C78.2048 42.0686 78.7725 42.2457 79.4444 42.2457C80.1423 42.2457 80.7256 42.0608 81.1944 41.691C81.6631 41.316 82.0173 40.8082 82.2569 40.1676C82.5016 39.5269 82.624 38.8056 82.624 38.0035C82.624 37.2118 82.5042 36.5009 82.2647 35.8707C82.0303 35.2405 81.6761 34.7431 81.2022 34.3785C80.7334 34.0139 80.1475 33.8316 79.4444 33.8316C78.7673 33.8316 78.1944 34.0061 77.7256 34.3551C77.2621 34.704 76.9105 35.191 76.6709 35.816C76.4313 36.441 76.3115 37.1702 76.3115 38.0035ZM99.2569 32.2066C99.1736 31.4671 98.8298 30.8941 98.2257 30.4879C97.6215 30.0764 96.8611 29.8707 95.9444 29.8707C95.2882 29.8707 94.7205 29.9749 94.2413 30.1832C93.7621 30.3863 93.3897 30.6676 93.1241 31.0269C92.8637 31.3811 92.7335 31.7848 92.7335 32.2379C92.7335 32.6181 92.822 32.9462 92.9991 33.2223C93.1814 33.4983 93.4184 33.7301 93.7101 33.9176C94.0069 34.0999 94.3246 34.2535 94.6632 34.3785C95.0017 34.4983 95.3272 34.5973 95.6397 34.6754L97.2022 35.0816C97.7127 35.2066 98.2361 35.3759 98.7726 35.5894C99.309 35.803 99.8064 36.0842 100.265 36.4332C100.723 36.7822 101.093 37.2144 101.374 37.7301C101.661 38.2457 101.804 38.8629 101.804 39.5816C101.804 40.4879 101.569 41.2926 101.101 41.9957C100.637 42.6988 99.9627 43.2535 99.0772 43.6598C98.197 44.066 97.1319 44.2691 95.8819 44.2691C94.684 44.2691 93.6476 44.079 92.7726 43.6988C91.8976 43.3186 91.2127 42.7796 90.7179 42.0816C90.2231 41.3785 89.9496 40.5452 89.8976 39.5816H92.3194C92.3663 40.1598 92.5538 40.6415 92.8819 41.0269C93.2153 41.4072 93.6397 41.691 94.1554 41.8785C94.6762 42.0608 95.2465 42.1519 95.8663 42.1519C96.5486 42.1519 97.1554 42.0452 97.6866 41.8316C98.2231 41.6129 98.645 41.3108 98.9522 40.9254C99.2595 40.5348 99.4132 40.079 99.4132 39.5582C99.4132 39.0842 99.2778 38.6962 99.0069 38.3941C98.7413 38.0921 98.3793 37.8421 97.921 37.6441C97.4679 37.4462 96.9548 37.2717 96.3819 37.1207L94.4913 36.6051C93.2101 36.2561 92.1944 35.7431 91.4444 35.066C90.6996 34.3889 90.3272 33.4931 90.3272 32.3785C90.3272 31.4566 90.5772 30.6519 91.0772 29.9644C91.5772 29.2769 92.2543 28.7431 93.1085 28.3629C93.9627 27.9775 94.9262 27.7848 95.9991 27.7848C97.0825 27.7848 98.0382 27.9749 98.8663 28.3551C99.6996 28.7353 100.356 29.2587 100.835 29.9254C101.314 30.5868 101.564 31.3473 101.585 32.2066H99.2569ZM108.563 32.0035V33.8785H102.008V32.0035H108.563ZM103.766 29.1285H106.102V40.4801C106.102 40.9332 106.169 41.2743 106.305 41.5035C106.44 41.7275 106.615 41.8811 106.828 41.9644C107.047 42.0426 107.284 42.0816 107.539 42.0816C107.727 42.0816 107.891 42.0686 108.031 42.0426C108.172 42.0165 108.281 41.9957 108.36 41.9801L108.781 43.9098C108.646 43.9618 108.453 44.0139 108.203 44.066C107.953 44.1233 107.641 44.1546 107.266 44.1598C106.651 44.1702 106.078 44.0608 105.547 43.8316C105.016 43.6025 104.586 43.2483 104.258 42.7691C103.93 42.29 103.766 41.6884 103.766 40.9644V29.1285ZM114.532 44.2457C113.407 44.2457 112.426 43.9879 111.587 43.4723C110.749 42.9566 110.098 42.2353 109.634 41.3082C109.17 40.3811 108.939 39.2978 108.939 38.0582C108.939 36.8134 109.17 35.7249 109.634 34.7926C110.098 33.8603 110.749 33.1363 111.587 32.6207C112.426 32.1051 113.407 31.8473 114.532 31.8473C115.657 31.8473 116.639 32.1051 117.478 32.6207C118.316 33.1363 118.967 33.8603 119.431 34.7926C119.894 35.7249 120.126 36.8134 120.126 38.0582C120.126 39.2978 119.894 40.3811 119.431 41.3082C118.967 42.2353 118.316 42.9566 117.478 43.4723C116.639 43.9879 115.657 44.2457 114.532 44.2457ZM114.54 42.2848C115.269 42.2848 115.874 42.0921 116.353 41.7066C116.832 41.3212 117.186 40.8082 117.415 40.1676C117.65 39.5269 117.767 38.8212 117.767 38.0504C117.767 37.2848 117.65 36.5816 117.415 35.941C117.186 35.2952 116.832 34.7769 116.353 34.3863C115.874 33.9957 115.269 33.8004 114.54 33.8004C113.806 33.8004 113.196 33.9957 112.712 34.3863C112.233 34.7769 111.876 35.2952 111.642 35.941C111.413 36.5816 111.298 37.2848 111.298 38.0504C111.298 38.8212 111.413 39.5269 111.642 40.1676C111.876 40.8082 112.233 41.3212 112.712 41.7066C113.196 42.0921 113.806 42.2848 114.54 42.2848ZM121.194 44.0035V32.0035H123.451V33.9098H123.576C123.795 33.2639 124.181 32.7561 124.733 32.3863C125.29 32.0113 125.92 31.8238 126.623 31.8238C126.769 31.8238 126.941 31.829 127.139 31.8394C127.342 31.8499 127.501 31.8629 127.615 31.8785V34.1129C127.522 34.0868 127.355 34.0582 127.115 34.0269C126.876 33.9905 126.636 33.9723 126.397 33.9723C125.845 33.9723 125.352 34.0894 124.92 34.3238C124.493 34.553 124.155 34.8733 123.905 35.2848C123.655 35.691 123.53 36.1546 123.53 36.6754V44.0035H121.194ZM132.839 44.2457C131.657 44.2457 130.639 43.9931 129.784 43.4879C128.935 42.9775 128.279 42.2613 127.816 41.3394C127.357 40.4124 127.128 39.3264 127.128 38.0816C127.128 36.8525 127.357 35.7691 127.816 34.8316C128.279 33.8941 128.925 33.1624 129.753 32.6363C130.587 32.1103 131.56 31.8473 132.675 31.8473C133.352 31.8473 134.008 31.9592 134.644 32.1832C135.279 32.4072 135.85 32.7587 136.355 33.2379C136.86 33.7171 137.258 34.3394 137.55 35.1051C137.842 35.8655 137.988 36.79 137.988 37.8785V38.7066H128.448V36.9566H135.698C135.698 36.3421 135.573 35.7978 135.323 35.3238C135.073 34.8447 134.722 34.4671 134.269 34.191C133.821 33.915 133.295 33.7769 132.691 33.7769C132.034 33.7769 131.462 33.9384 130.972 34.2613C130.488 34.579 130.113 34.9957 129.847 35.5113C129.587 36.0217 129.456 36.5764 129.456 37.1754V38.5426C129.456 39.3447 129.597 40.0269 129.878 40.5894C130.165 41.1519 130.563 41.5816 131.073 41.8785C131.584 42.1702 132.18 42.316 132.863 42.316C133.305 42.316 133.709 42.2535 134.073 42.1285C134.438 41.9983 134.753 41.8056 135.019 41.5504C135.284 41.2952 135.488 40.9801 135.628 40.6051L137.839 41.0035C137.662 41.6546 137.344 42.2249 136.886 42.7144C136.433 43.1988 135.863 43.5764 135.175 43.8473C134.493 44.1129 133.714 44.2457 132.839 44.2457Z" fill="white"/>
</svg>
