<svg width="476" height="154" viewBox="0 0 476 154" fill="none" xmlns="http://www.w3.org/2000/svg">
<rect x="0.365403" y="0.365403" width="474.293" height="313.74" rx="19.1228" fill="white"/>
<rect x="0.365403" y="0.365403" width="474.293" height="313.74" rx="19.1228" stroke="#E1E1E1" stroke-width="0.730806"/>
<path d="M15.9033 29.6161V18.9862H19.495C20.329 18.9862 21.0106 19.1367 21.5401 19.4378C22.0729 19.7353 22.4674 20.1385 22.7235 20.6471C22.9795 21.1558 23.1076 21.7232 23.1076 22.3496C23.1076 22.9759 22.9795 23.5451 22.7235 24.0572C22.4709 24.5693 22.0799 24.9776 21.5504 25.2821C21.021 25.5832 20.3428 25.7337 19.5158 25.7337H16.9414V24.5918H19.4743C20.0452 24.5918 20.5037 24.4932 20.8497 24.2959C21.1958 24.0987 21.4466 23.8323 21.6023 23.4966C21.7615 23.1575 21.8411 22.7752 21.8411 22.3496C21.8411 21.9239 21.7615 21.5433 21.6023 21.2077C21.4466 20.872 21.194 20.609 20.8445 20.4187C20.4951 20.225 20.0314 20.1281 19.4535 20.1281H17.1905V29.6161H15.9033ZM28.1682 29.7822C27.4484 29.7822 26.8169 29.6109 26.2737 29.2683C25.7339 28.9258 25.3117 28.4465 25.0072 27.8306C24.7062 27.2147 24.5557 26.4949 24.5557 25.6714C24.5557 24.8409 24.7062 24.116 25.0072 23.4966C25.3117 22.8772 25.7339 22.3963 26.2737 22.0537C26.8169 21.7111 27.4484 21.5399 28.1682 21.5399C28.8879 21.5399 29.5177 21.7111 30.0575 22.0537C30.6007 22.3963 31.0229 22.8772 31.3239 23.4966C31.6284 24.116 31.7807 24.8409 31.7807 25.6714C31.7807 26.4949 31.6284 27.2147 31.3239 27.8306C31.0229 28.4465 30.6007 28.9258 30.0575 29.2683C29.5177 29.6109 28.8879 29.7822 28.1682 29.7822ZM28.1682 28.6818C28.7149 28.6818 29.1647 28.5417 29.5177 28.2614C29.8706 27.9811 30.1319 27.6126 30.3014 27.1558C30.471 26.6991 30.5558 26.2043 30.5558 25.6714C30.5558 25.1385 30.471 24.642 30.3014 24.1818C30.1319 23.7215 29.8706 23.3496 29.5177 23.0658C29.1647 22.7821 28.7149 22.6402 28.1682 22.6402C27.6215 22.6402 27.1716 22.7821 26.8187 23.0658C26.4657 23.3496 26.2045 23.7215 26.0349 24.1818C25.8654 24.642 25.7806 25.1385 25.7806 25.6714C25.7806 26.2043 25.8654 26.6991 26.0349 27.1558C26.2045 27.6126 26.4657 27.9811 26.8187 28.2614C27.1716 28.5417 27.6215 28.6818 28.1682 28.6818ZM39.2976 23.4292L38.1973 23.7406C38.1281 23.5572 38.026 23.379 37.8911 23.206C37.7596 23.0295 37.5796 22.8842 37.3513 22.77C37.1229 22.6558 36.8305 22.5987 36.4741 22.5987C35.9862 22.5987 35.5796 22.7112 35.2543 22.9361C34.9325 23.1575 34.7716 23.4395 34.7716 23.7821C34.7716 24.0866 34.8824 24.3271 35.1038 24.5036C35.3253 24.68 35.6713 24.8271 36.1419 24.9447L37.3253 25.2354C38.0381 25.4084 38.5693 25.6731 38.9188 26.0295C39.2682 26.3825 39.443 26.8375 39.443 27.3946C39.443 27.8514 39.3115 28.2597 39.0485 28.6195C38.789 28.9794 38.4257 29.2631 37.9585 29.4708C37.4914 29.6784 36.9481 29.7822 36.3288 29.7822C35.5156 29.7822 34.8426 29.6057 34.3097 29.2528C33.7768 28.8998 33.4394 28.3842 33.2976 27.706L34.4602 27.4154C34.5709 27.8444 34.7803 28.1662 35.0883 28.3808C35.3997 28.5953 35.8063 28.7026 36.308 28.7026C36.8789 28.7026 37.3322 28.5815 37.6679 28.3393C38.007 28.0936 38.1765 27.7995 38.1765 27.4569C38.1765 27.1801 38.0796 26.9482 37.8859 26.7614C37.6921 26.5711 37.3945 26.4292 36.9931 26.3358L35.6644 26.0243C34.9343 25.8513 34.3979 25.5832 34.0554 25.2198C33.7163 24.853 33.5467 24.3946 33.5467 23.8444C33.5467 23.3946 33.673 22.9966 33.9256 22.6506C34.1817 22.3046 34.5294 22.0329 34.9689 21.8357C35.4118 21.6385 35.9135 21.5399 36.4741 21.5399C37.263 21.5399 37.8824 21.7129 38.3322 22.0589C38.7855 22.4049 39.1073 22.8617 39.2976 23.4292ZM44.754 21.6437V22.6817H40.6225V21.6437H44.754ZM41.8267 19.7336H43.0516V27.3323C43.0516 27.6783 43.1018 27.9379 43.2021 28.1109C43.3059 28.2804 43.4374 28.3946 43.5966 28.4534C43.7592 28.5088 43.9305 28.5365 44.1104 28.5365C44.2454 28.5365 44.3561 28.5296 44.4426 28.5157C44.5291 28.4984 44.5983 28.4846 44.6502 28.4742L44.8994 29.5746C44.8163 29.6057 44.7004 29.6369 44.5516 29.668C44.4028 29.7026 44.2142 29.7199 43.9859 29.7199C43.6398 29.7199 43.3007 29.6455 42.9685 29.4967C42.6398 29.3479 42.3665 29.1213 42.1485 28.8168C41.9339 28.5123 41.8267 28.1282 41.8267 27.6645V19.7336ZM49.8536 29.7822C49.0854 29.7822 48.4228 29.6126 47.8657 29.2735C47.312 28.931 46.8847 28.4534 46.5836 27.841C46.2861 27.2251 46.1373 26.5088 46.1373 25.6922C46.1373 24.8755 46.2861 24.1558 46.5836 23.533C46.8847 22.9067 47.3034 22.4188 47.8397 22.0693C48.3795 21.7163 49.0093 21.5399 49.729 21.5399C50.1442 21.5399 50.5543 21.6091 50.9591 21.7475C51.364 21.8859 51.7325 22.1108 52.0647 22.4222C52.3969 22.7302 52.6616 23.1385 52.8588 23.6472C53.0561 24.1558 53.1547 24.7821 53.1547 25.5261V26.0451H47.0093V24.9863H51.909C51.909 24.5364 51.819 24.135 51.6391 23.7821C51.4626 23.4292 51.21 23.1506 50.8813 22.9464C50.556 22.7423 50.1719 22.6402 49.729 22.6402C49.2411 22.6402 48.819 22.7613 48.4626 23.0035C48.1096 23.2423 47.838 23.5537 47.6477 23.9378C47.4574 24.3219 47.3622 24.7337 47.3622 25.1731V25.879C47.3622 26.4811 47.466 26.9915 47.6736 27.4102C47.8847 27.8254 48.1771 28.142 48.5508 28.36C48.9245 28.5746 49.3588 28.6818 49.8536 28.6818C50.1754 28.6818 50.4661 28.6368 50.7256 28.5469C50.9885 28.4534 51.2152 28.315 51.4055 28.1316C51.5958 27.9448 51.7429 27.7129 51.8467 27.4361L53.0301 27.7683C52.9055 28.1697 52.6962 28.5226 52.4021 28.8272C52.1079 29.1282 51.7446 29.3635 51.3121 29.533C50.8796 29.6991 50.3934 29.7822 49.8536 29.7822ZM58.0284 29.7822C57.3641 29.7822 56.7776 29.6144 56.2689 29.2787C55.7602 28.9396 55.3623 28.4621 55.0751 27.8462C54.7879 27.2268 54.6443 26.4949 54.6443 25.6506C54.6443 24.8133 54.7879 24.0866 55.0751 23.4707C55.3623 22.8548 55.762 22.379 56.2741 22.0433C56.7862 21.7077 57.3779 21.5399 58.0492 21.5399C58.5682 21.5399 58.9783 21.6264 59.2793 21.7994C59.5838 21.9689 59.8157 22.1627 59.9748 22.3807C60.1375 22.5952 60.2638 22.7717 60.3537 22.9101H60.4575V18.9862H61.6825V29.6161H60.4991V28.3912H60.3537C60.2638 28.5365 60.1357 28.7199 59.9696 28.9413C59.8036 29.1593 59.5665 29.3548 59.2586 29.5279C58.9506 29.6974 58.5406 29.7822 58.0284 29.7822ZM58.1945 28.6818C58.6859 28.6818 59.1011 28.5538 59.4402 28.2977C59.7793 28.0382 60.0371 27.6801 60.2136 27.2233C60.3901 26.7631 60.4783 26.232 60.4783 25.6299C60.4783 25.0347 60.3918 24.5139 60.2188 24.0676C60.0458 23.6177 59.7897 23.2683 59.4506 23.0191C59.1115 22.7665 58.6928 22.6402 58.1945 22.6402C57.6755 22.6402 57.243 22.7734 56.8969 23.0399C56.5544 23.3029 56.2966 23.661 56.1236 24.1143C55.954 24.5641 55.8692 25.0693 55.8692 25.6299C55.8692 26.1974 55.9557 26.7129 56.1288 27.1766C56.3052 27.6368 56.5648 28.0036 56.9073 28.277C57.2533 28.5469 57.6824 28.6818 58.1945 28.6818ZM71.9231 18.9862V29.6161H70.6359V20.3357H70.5736L67.9784 22.0589V20.7509L70.6359 18.9862H71.9231ZM78.4474 29.7614C77.6654 29.7614 76.9993 29.5486 76.4491 29.123C75.8989 28.6939 75.4785 28.0728 75.1878 27.2597C74.8972 26.443 74.7518 25.4569 74.7518 24.3011C74.7518 23.1523 74.8972 22.1714 75.1878 21.3582C75.482 20.5416 75.9041 19.9187 76.4543 19.4897C77.0079 19.0571 77.6723 18.8409 78.4474 18.8409C79.2225 18.8409 79.8851 19.0571 80.4353 19.4897C80.989 19.9187 81.4111 20.5416 81.7018 21.3582C81.9959 22.1714 82.143 23.1523 82.143 24.3011C82.143 25.4569 81.9976 26.443 81.707 27.2597C81.4163 28.0728 80.9959 28.6939 80.4457 29.123C79.8955 29.5486 79.2294 29.7614 78.4474 29.7614ZM78.4474 28.6195C79.2225 28.6195 79.8246 28.2458 80.2537 27.4984C80.6827 26.751 80.8973 25.6852 80.8973 24.3011C80.8973 23.3807 80.7986 22.597 80.6014 21.9499C80.4076 21.3028 80.1274 20.8097 79.7606 20.4706C79.3972 20.1315 78.9595 19.962 78.4474 19.962C77.6792 19.962 77.0789 20.3409 76.6463 21.0987C76.2138 21.853 75.9975 22.9205 75.9975 24.3011C75.9975 25.2216 76.0944 26.0036 76.2882 26.6472C76.482 27.2908 76.7605 27.7804 77.1239 28.1161C77.4906 28.4517 77.9318 28.6195 78.4474 28.6195ZM93.894 23.4292L92.7936 23.7406C92.7244 23.5572 92.6223 23.379 92.4874 23.206C92.3559 23.0295 92.176 22.8842 91.9476 22.77C91.7192 22.6558 91.4268 22.5987 91.0704 22.5987C90.5825 22.5987 90.1759 22.7112 89.8507 22.9361C89.5289 23.1575 89.368 23.4395 89.368 23.7821C89.368 24.0866 89.4787 24.3271 89.7001 24.5036C89.9216 24.68 90.2676 24.8271 90.7382 24.9447L91.9216 25.2354C92.6344 25.4084 93.1656 25.6731 93.5151 26.0295C93.8646 26.3825 94.0393 26.8375 94.0393 27.3946C94.0393 27.8514 93.9078 28.2597 93.6448 28.6195C93.3853 28.9794 93.022 29.2631 92.5549 29.4708C92.0877 29.6784 91.5445 29.7822 90.9251 29.7822C90.1119 29.7822 89.4389 29.6057 88.906 29.2528C88.3731 28.8998 88.0358 28.3842 87.8939 27.706L89.0565 27.4154C89.1673 27.8444 89.3766 28.1662 89.6846 28.3808C89.996 28.5953 90.4026 28.7026 90.9043 28.7026C91.4753 28.7026 91.9286 28.5815 92.2642 28.3393C92.6033 28.0936 92.7729 27.7995 92.7729 27.4569C92.7729 27.1801 92.676 26.9482 92.4822 26.7614C92.2884 26.5711 91.9908 26.4292 91.5894 26.3358L90.2607 26.0243C89.5306 25.8513 88.9943 25.5832 88.6517 25.2198C88.3126 24.853 88.143 24.3946 88.143 23.8444C88.143 23.3946 88.2693 22.9966 88.5219 22.6506C88.778 22.3046 89.1257 22.0329 89.5652 21.8357C90.0081 21.6385 90.5098 21.5399 91.0704 21.5399C91.8593 21.5399 92.4787 21.7129 92.9286 22.0589C93.3819 22.4049 93.7037 22.8617 93.894 23.4292ZM99.2258 29.7822C98.4576 29.7822 97.795 29.6126 97.2379 29.2735C96.6842 28.931 96.2569 28.4534 95.9558 27.841C95.6583 27.2251 95.5095 26.5088 95.5095 25.6922C95.5095 24.8755 95.6583 24.1558 95.9558 23.533C96.2569 22.9067 96.6756 22.4188 97.2119 22.0693C97.7517 21.7163 98.3815 21.5399 99.1012 21.5399C99.5165 21.5399 99.9265 21.6091 100.331 21.7475C100.736 21.8859 101.105 22.1108 101.437 22.4222C101.769 22.7302 102.034 23.1385 102.231 23.6472C102.428 24.1558 102.527 24.7821 102.527 25.5261V26.0451H96.3815V24.9863H101.281C101.281 24.5364 101.191 24.135 101.011 23.7821C100.835 23.4292 100.582 23.1506 100.253 22.9464C99.9282 22.7423 99.5441 22.6402 99.1012 22.6402C98.6133 22.6402 98.1912 22.7613 97.8348 23.0035C97.4818 23.2423 97.2102 23.5537 97.0199 23.9378C96.8296 24.3219 96.7344 24.7337 96.7344 25.1731V25.879C96.7344 26.4811 96.8382 26.9915 97.0458 27.4102C97.2569 27.8254 97.5493 28.142 97.923 28.36C98.2967 28.5746 98.731 28.6818 99.2258 28.6818C99.5476 28.6818 99.8383 28.6368 100.098 28.5469C100.361 28.4534 100.587 28.315 100.778 28.1316C100.968 27.9448 101.115 27.7129 101.219 27.4361L102.402 27.7683C102.278 28.1697 102.068 28.5226 101.774 28.8272C101.48 29.1282 101.117 29.3635 100.684 29.533C100.252 29.6991 99.7656 29.7822 99.2258 29.7822ZM107.629 29.7822C106.882 29.7822 106.238 29.6057 105.698 29.2528C105.158 28.8998 104.743 28.4137 104.453 27.7943C104.162 27.1749 104.017 26.4673 104.017 25.6714C104.017 24.8617 104.165 24.1472 104.463 23.5278C104.764 22.9049 105.183 22.4188 105.719 22.0693C106.259 21.7163 106.889 21.5399 107.608 21.5399C108.169 21.5399 108.674 21.6437 109.124 21.8513C109.574 22.0589 109.942 22.3496 110.229 22.7233C110.517 23.097 110.695 23.533 110.764 24.0312H109.539C109.446 23.6679 109.238 23.3461 108.916 23.0658C108.598 22.7821 108.169 22.6402 107.629 22.6402C107.152 22.6402 106.733 22.7648 106.373 23.0139C106.017 23.2596 105.738 23.6074 105.537 24.0572C105.34 24.5036 105.241 25.0278 105.241 25.6299C105.241 26.2458 105.338 26.7821 105.532 27.2389C105.729 27.6956 106.006 28.0503 106.363 28.3029C106.722 28.5555 107.145 28.6818 107.629 28.6818C107.947 28.6818 108.236 28.6265 108.496 28.5157C108.755 28.405 108.975 28.2458 109.155 28.0382C109.335 27.8306 109.463 27.5815 109.539 27.2908H110.764C110.695 27.7614 110.524 28.1853 110.25 28.5624C109.98 28.9361 109.622 29.2337 109.176 29.4552C108.733 29.6732 108.217 29.7822 107.629 29.7822ZM115.793 29.7822C115.074 29.7822 114.442 29.6109 113.899 29.2683C113.359 28.9258 112.937 28.4465 112.633 27.8306C112.332 27.2147 112.181 26.4949 112.181 25.6714C112.181 24.8409 112.332 24.116 112.633 23.4966C112.937 22.8772 113.359 22.3963 113.899 22.0537C114.442 21.7111 115.074 21.5399 115.793 21.5399C116.513 21.5399 117.143 21.7111 117.683 22.0537C118.226 22.3963 118.648 22.8772 118.949 23.4966C119.254 24.116 119.406 24.8409 119.406 25.6714C119.406 26.4949 119.254 27.2147 118.949 27.8306C118.648 28.4465 118.226 28.9258 117.683 29.2683C117.143 29.6109 116.513 29.7822 115.793 29.7822ZM115.793 28.6818C116.34 28.6818 116.79 28.5417 117.143 28.2614C117.496 27.9811 117.757 27.6126 117.927 27.1558C118.096 26.6991 118.181 26.2043 118.181 25.6714C118.181 25.1385 118.096 24.642 117.927 24.1818C117.757 23.7215 117.496 23.3496 117.143 23.0658C116.79 22.7821 116.34 22.6402 115.793 22.6402C115.247 22.6402 114.797 22.7821 114.444 23.0658C114.091 23.3496 113.83 23.7215 113.66 24.1818C113.491 24.642 113.406 25.1385 113.406 25.6714C113.406 26.2043 113.491 26.6991 113.66 27.1558C113.83 27.6126 114.091 27.9811 114.444 28.2614C114.797 28.5417 115.247 28.6818 115.793 28.6818ZM122.501 24.8202V29.6161H121.276V21.6437H122.459V22.8894H122.563C122.75 22.4845 123.034 22.1592 123.414 21.9136C123.795 21.6644 124.286 21.5399 124.888 21.5399C125.428 21.5399 125.9 21.6506 126.305 21.872C126.71 22.09 127.025 22.4222 127.25 22.8686C127.475 23.3115 127.587 23.8721 127.587 24.5503V29.6161H126.362V24.6333C126.362 24.007 126.2 23.5191 125.875 23.1696C125.549 22.8167 125.103 22.6402 124.535 22.6402C124.144 22.6402 123.795 22.725 123.487 22.8945C123.182 23.0641 122.942 23.3115 122.765 23.6368C122.589 23.962 122.501 24.3565 122.501 24.8202ZM132.836 29.7822C132.172 29.7822 131.585 29.6144 131.077 29.2787C130.568 28.9396 130.17 28.4621 129.883 27.8462C129.596 27.2268 129.452 26.4949 129.452 25.6506C129.452 24.8133 129.596 24.0866 129.883 23.4707C130.17 22.8548 130.57 22.379 131.082 22.0433C131.594 21.7077 132.186 21.5399 132.857 21.5399C133.376 21.5399 133.786 21.6264 134.087 21.7994C134.391 21.9689 134.623 22.1627 134.782 22.3807C134.945 22.5952 135.071 22.7717 135.161 22.9101H135.265V18.9862H136.49V29.6161H135.307V28.3912H135.161C135.071 28.5365 134.943 28.7199 134.777 28.9413C134.611 29.1593 134.374 29.3548 134.066 29.5279C133.758 29.6974 133.348 29.7822 132.836 29.7822ZM133.002 28.6818C133.494 28.6818 133.909 28.5538 134.248 28.2977C134.587 28.0382 134.845 27.6801 135.021 27.2233C135.198 26.7631 135.286 26.232 135.286 25.6299C135.286 25.0347 135.199 24.5139 135.026 24.0676C134.853 23.6177 134.597 23.2683 134.258 23.0191C133.919 22.7665 133.5 22.6402 133.002 22.6402C132.483 22.6402 132.051 22.7734 131.705 23.0399C131.362 23.3029 131.104 23.661 130.931 24.1143C130.762 24.5641 130.677 25.0693 130.677 25.6299C130.677 26.1974 130.763 26.7129 130.936 27.1766C131.113 27.6368 131.372 28.0036 131.715 28.277C132.061 28.5469 132.49 28.6818 133.002 28.6818ZM145.36 29.8029C144.855 29.8029 144.397 29.7078 143.985 29.5175C143.573 29.3237 143.246 29.0451 143.004 28.6818C142.762 28.315 142.641 27.8721 142.641 27.3531C142.641 26.8963 142.731 26.5261 142.911 26.2423C143.091 25.9551 143.331 25.7302 143.632 25.5676C143.933 25.405 144.265 25.2839 144.629 25.2043C144.995 25.1212 145.364 25.0555 145.734 25.007C146.219 24.9447 146.611 24.898 146.912 24.8669C147.217 24.8323 147.438 24.7752 147.577 24.6956C147.719 24.616 147.79 24.4776 147.79 24.2804V24.2389C147.79 23.7267 147.649 23.3288 147.369 23.0451C147.092 22.7613 146.672 22.6195 146.108 22.6195C145.523 22.6195 145.065 22.7475 144.732 23.0035C144.4 23.2596 144.167 23.533 144.032 23.8236L142.869 23.4084C143.077 22.924 143.354 22.5468 143.7 22.2769C144.049 22.0035 144.43 21.8132 144.841 21.7059C145.257 21.5952 145.665 21.5399 146.066 21.5399C146.322 21.5399 146.617 21.571 146.949 21.6333C147.284 21.6921 147.608 21.8149 147.919 22.0018C148.234 22.1887 148.495 22.4707 148.703 22.8478C148.911 23.225 149.015 23.7302 149.015 24.3634V29.6161H147.79V28.5365H147.727C147.644 28.7095 147.506 28.8946 147.312 29.0919C147.118 29.2891 146.861 29.4569 146.539 29.5953C146.217 29.7337 145.824 29.8029 145.36 29.8029ZM145.547 28.7026C146.032 28.7026 146.44 28.6074 146.772 28.4171C147.108 28.2268 147.361 27.9811 147.53 27.6801C147.703 27.379 147.79 27.0624 147.79 26.7302V25.6091C147.738 25.6714 147.623 25.7285 147.447 25.7804C147.274 25.8288 147.073 25.8721 146.845 25.9102C146.62 25.9448 146.4 25.9759 146.186 26.0036C145.975 26.0278 145.803 26.0486 145.672 26.0659C145.354 26.1074 145.056 26.1749 144.779 26.2683C144.506 26.3583 144.284 26.4949 144.115 26.6783C143.949 26.8583 143.866 27.1039 143.866 27.4154C143.866 27.841 144.023 28.1628 144.338 28.3808C144.656 28.5953 145.059 28.7026 145.547 28.7026ZM154.468 32.7718C153.877 32.7718 153.368 32.6957 152.942 32.5435C152.517 32.3947 152.162 32.1974 151.878 31.9518C151.598 31.7095 151.375 31.45 151.209 31.1732L152.185 30.4881C152.295 30.6334 152.435 30.7995 152.605 30.9863C152.775 31.1767 153.006 31.341 153.3 31.4794C153.598 31.6213 153.987 31.6922 154.468 31.6922C155.112 31.6922 155.643 31.5365 156.062 31.2251C156.48 30.9137 156.69 30.4258 156.69 29.7614V28.142H156.586C156.496 28.2874 156.368 28.4673 156.202 28.6818C156.039 28.8929 155.804 29.0815 155.496 29.2476C155.192 29.4102 154.78 29.4915 154.261 29.4915C153.617 29.4915 153.039 29.3393 152.527 29.0348C152.018 28.7303 151.615 28.2874 151.318 27.706C151.024 27.1247 150.877 26.4188 150.877 25.5884C150.877 24.7717 151.02 24.0607 151.307 23.4551C151.595 22.8461 151.994 22.3755 152.506 22.0433C153.018 21.7077 153.61 21.5399 154.281 21.5399C154.801 21.5399 155.212 21.6264 155.517 21.7994C155.825 21.9689 156.06 22.1627 156.223 22.3807C156.389 22.5952 156.517 22.7717 156.607 22.9101H156.731V21.6437H157.915V29.8445C157.915 30.5296 157.759 31.0867 157.448 31.5158C157.14 31.9483 156.724 32.2649 156.202 32.4656C155.683 32.6698 155.105 32.7718 154.468 32.7718ZM154.427 28.3912C154.918 28.3912 155.333 28.2787 155.672 28.0538C156.012 27.8289 156.269 27.5053 156.446 27.0832C156.622 26.661 156.711 26.1558 156.711 25.5676C156.711 24.9932 156.624 24.4863 156.451 24.0468C156.278 23.6074 156.022 23.2631 155.683 23.0139C155.344 22.7648 154.925 22.6402 154.427 22.6402C153.908 22.6402 153.475 22.7717 153.129 23.0347C152.787 23.2977 152.529 23.6506 152.356 24.0935C152.186 24.5364 152.102 25.0278 152.102 25.5676C152.102 26.1212 152.188 26.6109 152.361 27.0365C152.538 27.4586 152.797 27.7908 153.14 28.033C153.486 28.2718 153.915 28.3912 154.427 28.3912ZM163.396 29.7822C162.676 29.7822 162.045 29.6109 161.501 29.2683C160.961 28.9258 160.539 28.4465 160.235 27.8306C159.934 27.2147 159.783 26.4949 159.783 25.6714C159.783 24.8409 159.934 24.116 160.235 23.4966C160.539 22.8772 160.961 22.3963 161.501 22.0537C162.045 21.7111 162.676 21.5399 163.396 21.5399C164.116 21.5399 164.745 21.7111 165.285 22.0537C165.828 22.3963 166.25 22.8772 166.552 23.4966C166.856 24.116 167.008 24.8409 167.008 25.6714C167.008 26.4949 166.856 27.2147 166.552 27.8306C166.25 28.4465 165.828 28.9258 165.285 29.2683C164.745 29.6109 164.116 29.7822 163.396 29.7822ZM163.396 28.6818C163.942 28.6818 164.392 28.5417 164.745 28.2614C165.098 27.9811 165.359 27.6126 165.529 27.1558C165.699 26.6991 165.783 26.2043 165.783 25.6714C165.783 25.1385 165.699 24.642 165.529 24.1818C165.359 23.7215 165.098 23.3496 164.745 23.0658C164.392 22.7821 163.942 22.6402 163.396 22.6402C162.849 22.6402 162.399 22.7821 162.046 23.0658C161.693 23.3496 161.432 23.7215 161.263 24.1818C161.093 24.642 161.008 25.1385 161.008 25.6714C161.008 26.2043 161.093 26.6991 161.263 27.1558C161.432 27.6126 161.693 27.9811 162.046 28.2614C162.399 28.5417 162.849 28.6818 163.396 28.6818Z" fill="#4F4E55"/>
<path d="M16.3635 65.3602V47.6437H27.7132V50.334H19.5729V55.1438H26.9346V57.8341H19.5729V65.3602H16.3635ZM30.8641 65.3602V52.0728H33.9956V65.3602H30.8641ZM32.4385 50.187C31.9425 50.187 31.5157 50.0226 31.1582 49.6939C30.8006 49.3594 30.6218 48.9586 30.6218 48.4914C30.6218 48.0185 30.8006 47.6177 31.1582 47.289C31.5157 46.9545 31.9425 46.7873 32.4385 46.7873C32.9402 46.7873 33.367 46.9545 33.7188 47.289C34.0763 47.6177 34.2551 48.0185 34.2551 48.4914C34.2551 48.9586 34.0763 49.3594 33.7188 49.6939C33.367 50.0226 32.9402 50.187 32.4385 50.187ZM40.1418 52.0728L42.8235 56.9777L45.5484 52.0728H48.8616L44.8564 58.7165L48.9308 65.3602H45.6349L42.8235 60.5764L40.038 65.3602H36.7161L40.7646 58.7165L36.8199 52.0728H40.1418ZM60.9118 61.1906L60.9031 57.4102H61.4049L66.18 52.0728H69.8392L63.9655 58.6127H63.3167L60.9118 61.1906ZM58.0571 65.3602V47.6437H61.1886V65.3602H58.0571ZM66.3963 65.3602L62.071 59.3134L64.1817 57.1075L70.142 65.3602H66.3963ZM72.2916 65.3602V52.0728H75.4231V65.3602H72.2916ZM73.866 50.187C73.37 50.187 72.9433 50.0226 72.5857 49.6939C72.2282 49.3594 72.0494 48.9586 72.0494 48.4914C72.0494 48.0185 72.2282 47.6177 72.5857 47.289C72.9433 46.9545 73.37 46.7873 73.866 46.7873C74.3678 46.7873 74.7945 46.9545 75.1463 47.289C75.5039 47.6177 75.6826 48.0185 75.6826 48.4914C75.6826 48.9586 75.5039 49.3594 75.1463 49.6939C74.7945 50.0226 74.3678 50.187 73.866 50.187ZM85.6438 52.0728V54.495H78.0053V52.0728H85.6438ZM79.8911 48.8894H83.0226V61.3636C83.0226 61.7846 83.0861 62.1075 83.2129 62.3324C83.3456 62.5516 83.5186 62.7015 83.732 62.7823C83.9454 62.863 84.1818 62.9034 84.4413 62.9034C84.6374 62.9034 84.8162 62.889 84.9777 62.8601C85.1449 62.8313 85.2718 62.8053 85.3583 62.7823L85.886 65.2304C85.7187 65.2881 85.4794 65.3515 85.168 65.4207C84.8623 65.4899 84.4875 65.5303 84.0434 65.5418C83.2591 65.5649 82.5526 65.4467 81.924 65.1872C81.2954 64.9219 80.7965 64.5124 80.4274 63.9588C80.0641 63.4051 79.8853 62.7131 79.8911 61.8826V48.8894ZM94.2813 65.6197C92.9549 65.6197 91.8159 65.3284 90.8643 64.746C89.9185 64.1635 89.189 63.359 88.6757 62.3324C88.1682 61.3001 87.9145 60.1121 87.9145 58.7684C87.9145 57.4189 88.174 56.228 88.693 55.1957C89.2121 54.1576 89.9445 53.3502 90.8903 52.7735C91.8419 52.191 92.9664 51.8998 94.264 51.8998C95.3425 51.8998 96.2969 52.0987 97.1274 52.4967C97.9636 52.8888 98.6297 53.4454 99.1257 54.1662C99.6217 54.8814 99.9043 55.7176 99.9735 56.6749H96.9803C96.8592 56.0348 96.5709 55.5013 96.1153 55.0746C95.6654 54.642 95.0628 54.4258 94.3073 54.4258C93.6671 54.4258 93.1049 54.5988 92.6204 54.9448C92.136 55.2851 91.7582 55.7753 91.4872 56.4154C91.2219 57.0556 91.0893 57.8226 91.0893 58.7165C91.0893 59.6219 91.2219 60.4005 91.4872 61.0522C91.7525 61.6981 92.1244 62.1969 92.6031 62.5487C93.0876 62.8947 93.6556 63.0678 94.3073 63.0678C94.7687 63.0678 95.181 62.9812 95.5443 62.8082C95.9134 62.6295 96.222 62.3728 96.47 62.0383C96.7179 61.7038 96.8881 61.2973 96.9803 60.8186H99.9735C99.8985 61.7586 99.6217 62.592 99.143 63.3186C98.6643 64.0395 98.0126 64.6047 97.188 65.0141C96.3633 65.4178 95.3944 65.6197 94.2813 65.6197ZM106.042 57.5746V65.3602H102.91V47.6437H105.973V54.3306H106.128C106.44 53.5809 106.921 52.9898 107.573 52.5572C108.23 52.1189 109.067 51.8998 110.082 51.8998C111.004 51.8998 111.809 52.093 112.495 52.4794C113.181 52.8658 113.712 53.4309 114.087 54.1749C114.468 54.9189 114.658 55.8272 114.658 56.8998V65.3602H111.526V57.3843C111.526 56.4904 111.296 55.7954 110.834 55.2995C110.379 54.7977 109.738 54.5469 108.914 54.5469C108.36 54.5469 107.864 54.668 107.426 54.9102C106.993 55.1467 106.653 55.4898 106.405 55.9396C106.163 56.3895 106.042 56.9344 106.042 57.5746ZM124.098 65.6197C122.766 65.6197 121.615 65.3429 120.646 64.7892C119.683 64.2298 118.942 63.4397 118.423 62.419C117.904 61.3924 117.644 60.1842 117.644 58.7943C117.644 57.4275 117.904 56.228 118.423 55.1957C118.948 54.1576 119.68 53.3502 120.62 52.7735C121.56 52.191 122.665 51.8998 123.933 51.8998C124.752 51.8998 125.525 52.0324 126.252 52.2977C126.984 52.5572 127.63 52.9609 128.189 53.5088C128.755 54.0567 129.199 54.7545 129.522 55.6023C129.845 56.4442 130.006 57.4477 130.006 58.6127V59.5729H119.115V57.4621H127.004C126.999 56.8624 126.869 56.3289 126.615 55.8618C126.361 55.3889 126.007 55.0169 125.551 54.7458C125.101 54.4748 124.576 54.3393 123.977 54.3393C123.336 54.3393 122.774 54.495 122.29 54.8064C121.805 55.112 121.428 55.5157 121.157 56.0175C120.891 56.5135 120.756 57.0584 120.75 57.6525V59.495C120.75 60.2678 120.891 60.931 121.174 61.4847C121.456 62.0326 121.851 62.4536 122.359 62.7477C122.866 63.036 123.46 63.1802 124.141 63.1802C124.597 63.1802 125.009 63.1168 125.378 62.9899C125.747 62.8573 126.067 62.6641 126.338 62.4103C126.609 62.1566 126.814 61.8422 126.952 61.4674L129.876 61.7961C129.692 62.5689 129.34 63.2436 128.821 63.8204C128.308 64.3913 127.65 64.8354 126.849 65.1526C126.047 65.464 125.13 65.6197 124.098 65.6197ZM136.152 57.5746V65.3602H133.021V52.0728H136.014V54.3306H136.17C136.475 53.5867 136.963 52.9955 137.632 52.5572C138.306 52.1189 139.14 51.8998 140.132 51.8998C141.049 51.8998 141.847 52.0959 142.528 52.488C143.214 52.8802 143.745 53.4482 144.12 54.1922C144.5 54.9362 144.688 55.8387 144.682 56.8998V65.3602H141.55V57.3843C141.55 56.4962 141.32 55.8012 140.858 55.2995C140.403 54.7977 139.771 54.5469 138.964 54.5469C138.416 54.5469 137.929 54.668 137.502 54.9102C137.081 55.1467 136.749 55.4898 136.507 55.9396C136.271 56.3895 136.152 56.9344 136.152 57.5746ZM165.14 55.585L162.286 55.8964C162.205 55.608 162.064 55.337 161.862 55.0832C161.666 54.8295 161.4 54.6247 161.066 54.469C160.731 54.3133 160.322 54.2355 159.838 54.2355C159.186 54.2355 158.638 54.3767 158.194 54.6593C157.756 54.9419 157.539 55.3081 157.545 55.758C157.539 56.1444 157.681 56.4587 157.969 56.7009C158.263 56.9431 158.748 57.1421 159.422 57.2978L161.689 57.7822C162.946 58.0533 163.88 58.4829 164.492 59.0712C165.109 59.6594 165.42 60.4293 165.426 61.3809C165.42 62.2171 165.175 62.9553 164.691 63.5954C164.212 64.2298 163.546 64.7258 162.692 65.0833C161.839 65.4409 160.858 65.6197 159.751 65.6197C158.125 65.6197 156.816 65.2794 155.824 64.5989C154.832 63.9126 154.241 62.9582 154.05 61.7356L157.104 61.4414C157.242 62.0412 157.537 62.4939 157.986 62.7996C158.436 63.1052 159.022 63.2581 159.742 63.2581C160.486 63.2581 161.083 63.1052 161.533 62.7996C161.989 62.4939 162.217 62.1162 162.217 61.6663C162.217 61.2857 162.069 60.9714 161.775 60.7234C161.487 60.4754 161.037 60.2851 160.426 60.1525L158.159 59.6767C156.885 59.4114 155.942 58.9645 155.331 58.3359C154.719 57.7015 154.417 56.8998 154.422 55.931C154.417 55.112 154.639 54.4027 155.088 53.8029C155.544 53.1974 156.175 52.7302 156.983 52.4015C157.796 52.067 158.733 51.8998 159.794 51.8998C161.351 51.8998 162.577 52.2314 163.471 52.8946C164.371 53.5578 164.927 54.4546 165.14 55.585ZM168.374 65.3602V52.0728H171.505V65.3602H168.374ZM169.948 50.187C169.452 50.187 169.025 50.0226 168.668 49.6939C168.31 49.3594 168.131 48.9586 168.131 48.4914C168.131 48.0185 168.31 47.6177 168.668 47.289C169.025 46.9545 169.452 46.7873 169.948 46.7873C170.45 46.7873 170.876 46.9545 171.228 47.289C171.586 47.6177 171.765 48.0185 171.765 48.4914C171.765 48.9586 171.586 49.3594 171.228 49.6939C170.876 50.0226 170.45 50.187 169.948 50.187ZM178.222 57.5746V65.3602H175.091V52.0728H178.084V54.3306H178.239C178.545 53.5867 179.032 52.9955 179.701 52.5572C180.376 52.1189 181.21 51.8998 182.201 51.8998C183.118 51.8998 183.917 52.0959 184.598 52.488C185.284 52.8802 185.815 53.4482 186.189 54.1922C186.57 54.9362 186.757 55.8387 186.752 56.8998V65.3602H183.62V57.3843C183.62 56.4962 183.389 55.8012 182.928 55.2995C182.473 54.7977 181.841 54.5469 181.034 54.5469C180.486 54.5469 179.998 54.668 179.572 54.9102C179.151 55.1467 178.819 55.4898 178.577 55.9396C178.34 56.3895 178.222 56.9344 178.222 57.5746ZM193.155 61.1906L193.147 57.4102H193.648L198.423 52.0728H202.083L196.209 58.6127H195.56L193.155 61.1906ZM190.301 65.3602V47.6437H193.432V65.3602H190.301ZM198.64 65.3602L194.314 59.3134L196.425 57.1075L202.385 65.3602H198.64ZM214.074 47.6437V65.3602H210.943V47.6437H214.074ZM223.543 65.6197C222.21 65.6197 221.06 65.3429 220.091 64.7892C219.128 64.2298 218.387 63.4397 217.868 62.419C217.349 61.3924 217.089 60.1842 217.089 58.7943C217.089 57.4275 217.349 56.228 217.868 55.1957C218.392 54.1576 219.125 53.3502 220.065 52.7735C221.005 52.191 222.109 51.8998 223.378 51.8998C224.197 51.8998 224.97 52.0324 225.697 52.2977C226.429 52.5572 227.075 52.9609 227.634 53.5088C228.199 54.0567 228.643 54.7545 228.966 55.6023C229.289 56.4442 229.451 57.4477 229.451 58.6127V59.5729H218.56V57.4621H226.449C226.443 56.8624 226.314 56.3289 226.06 55.8618C225.806 55.3889 225.451 55.0169 224.996 54.7458C224.546 54.4748 224.021 54.3393 223.421 54.3393C222.781 54.3393 222.219 54.495 221.735 54.8064C221.25 55.112 220.872 55.5157 220.601 56.0175C220.336 56.5135 220.2 57.0584 220.195 57.6525V59.495C220.195 60.2678 220.336 60.931 220.619 61.4847C220.901 62.0326 221.296 62.4536 221.804 62.7477C222.311 63.036 222.905 63.1802 223.586 63.1802C224.041 63.1802 224.454 63.1168 224.823 62.9899C225.192 62.8573 225.512 62.6641 225.783 62.4103C226.054 62.1566 226.259 61.8422 226.397 61.4674L229.321 61.7961C229.137 62.5689 228.785 63.2436 228.266 63.8204C227.752 64.3913 227.095 64.8354 226.293 65.1526C225.492 65.464 224.575 65.6197 223.543 65.6197ZM236.289 65.6283C235.447 65.6283 234.689 65.4784 234.014 65.1785C233.345 64.8728 232.814 64.423 232.422 63.829C232.036 63.235 231.843 62.5026 231.843 61.6317C231.843 60.882 231.981 60.2621 232.258 59.7719C232.535 59.2817 232.912 58.8895 233.391 58.5954C233.87 58.3013 234.409 58.0792 235.009 57.9293C235.614 57.7736 236.24 57.6611 236.886 57.5919C237.665 57.5112 238.296 57.4391 238.781 57.3756C239.265 57.3064 239.617 57.2026 239.836 57.0642C240.061 56.92 240.173 56.698 240.173 56.3981V56.3462C240.173 55.6945 239.98 55.1899 239.594 54.8323C239.207 54.4748 238.651 54.296 237.924 54.296C237.157 54.296 236.549 54.4633 236.099 54.7977C235.655 55.1322 235.355 55.5273 235.199 55.9829L232.275 55.5676C232.506 54.7603 232.887 54.0855 233.417 53.5434C233.948 52.9955 234.596 52.5861 235.364 52.315C236.131 52.0382 236.978 51.8998 237.907 51.8998C238.547 51.8998 239.184 51.9748 239.819 52.1247C240.453 52.2746 241.033 52.5226 241.557 52.8687C242.082 53.2089 242.503 53.6732 242.82 54.2614C243.143 54.8496 243.305 55.585 243.305 56.4673V65.3602H240.294V63.5349H240.191C240 63.904 239.732 64.25 239.386 64.573C239.046 64.8902 238.616 65.1468 238.097 65.3429C237.584 65.5332 236.981 65.6283 236.289 65.6283ZM237.102 63.3273C237.731 63.3273 238.276 63.2033 238.737 62.9553C239.199 62.7015 239.553 62.367 239.801 61.9518C240.055 61.5366 240.182 61.0839 240.182 60.5937V59.0279C240.084 59.1086 239.917 59.1836 239.68 59.2528C239.449 59.322 239.19 59.3826 238.902 59.4345C238.613 59.4864 238.328 59.5325 238.045 59.5729C237.763 59.6133 237.518 59.6479 237.31 59.6767C236.843 59.7401 236.425 59.8439 236.056 59.9881C235.686 60.1323 235.395 60.3341 235.182 60.5937C234.968 60.8474 234.862 61.1761 234.862 61.5798C234.862 62.1566 235.072 62.592 235.493 62.8861C235.914 63.1802 236.451 63.3273 237.102 63.3273ZM249.674 61.1906L249.665 57.4102H250.167L254.942 52.0728H258.601L252.727 58.6127H252.079L249.674 61.1906ZM246.819 65.3602V47.6437H249.951V65.3602H246.819ZM255.158 65.3602L250.833 59.3134L252.944 57.1075L258.904 65.3602H255.158Z" fill="#121212"/>
<path d="M25.9519 87.7027V100.104H24.4986L17.7407 90.3671H17.6196V100.104H16.1178V87.7027H17.5711L24.3532 97.4641H24.4744V87.7027H25.9519ZM32.6628 100.298C31.7666 100.298 30.9935 100.1 30.3436 99.7046C29.6977 99.3049 29.1991 98.7478 28.8479 98.0333C28.5007 97.3147 28.3271 96.4791 28.3271 95.5263C28.3271 94.5736 28.5007 93.7339 28.8479 93.0073C29.1991 92.2766 29.6876 91.7074 30.3133 91.2996C30.9431 90.8879 31.6778 90.682 32.5175 90.682C33.0019 90.682 33.4803 90.7627 33.9526 90.9242C34.425 91.0857 34.8549 91.3481 35.2424 91.7114C35.63 92.0707 35.9388 92.5471 36.1689 93.1405C36.399 93.7339 36.5141 94.4646 36.5141 95.3326V95.9381H29.3444V94.7028H35.0608C35.0608 94.178 34.9558 93.7097 34.7459 93.2979C34.54 92.8862 34.2453 92.5612 33.8618 92.323C33.4823 92.0848 33.0342 91.9657 32.5175 91.9657C31.9483 91.9657 31.4558 92.107 31.04 92.3896C30.6282 92.6682 30.3113 93.0315 30.0893 93.4796C29.8672 93.9277 29.7562 94.4081 29.7562 94.9208V95.7443C29.7562 96.4468 29.8773 97.0422 30.1195 97.5307C30.3658 98.0151 30.7069 98.3845 31.1429 98.6388C31.5789 98.8891 32.0855 99.0143 32.6628 99.0143C33.0383 99.0143 33.3774 98.9618 33.6801 98.8568C33.987 98.7478 34.2514 98.5863 34.4734 98.3724C34.6954 98.1544 34.867 97.8839 34.9881 97.561L36.3688 97.9485C36.2234 98.4168 35.9792 98.8286 35.6361 99.1838C35.2929 99.535 34.869 99.8095 34.3644 100.007C33.8598 100.201 33.2926 100.298 32.6628 100.298ZM42.5877 100.298C41.6915 100.298 40.9184 100.1 40.2685 99.7046C39.6226 99.3049 39.124 98.7478 38.7728 98.0333C38.4256 97.3147 38.252 96.4791 38.252 95.5263C38.252 94.5736 38.4256 93.7339 38.7728 93.0073C39.124 92.2766 39.6125 91.7074 40.2382 91.2996C40.868 90.8879 41.6027 90.682 42.4424 90.682C42.9268 90.682 43.4052 90.7627 43.8775 90.9242C44.3498 91.0857 44.7798 91.3481 45.1673 91.7114C45.5549 92.0707 45.8637 92.5471 46.0938 93.1405C46.3239 93.7339 46.439 94.4646 46.439 95.3326V95.9381H39.2693V94.7028H44.9857C44.9857 94.178 44.8807 93.7097 44.6708 93.2979C44.4649 92.8862 44.1702 92.5612 43.7867 92.323C43.4072 92.0848 42.9591 91.9657 42.4424 91.9657C41.8732 91.9657 41.3806 92.107 40.9648 92.3896C40.5531 92.6682 40.2362 93.0315 40.0141 93.4796C39.7921 93.9277 39.6811 94.4081 39.6811 94.9208V95.7443C39.6811 96.4468 39.8022 97.0422 40.0444 97.5307C40.2907 98.0151 40.6318 98.3845 41.0678 98.6388C41.5038 98.8891 42.0104 99.0143 42.5877 99.0143C42.9631 99.0143 43.3022 98.9618 43.605 98.8568C43.9118 98.7478 44.1762 98.5863 44.3983 98.3724C44.6203 98.1544 44.7919 97.8839 44.913 97.561L46.2936 97.9485C46.1483 98.4168 45.9041 98.8286 45.5609 99.1838C45.2178 99.535 44.7939 99.8095 44.2893 100.007C43.7847 100.201 43.2175 100.298 42.5877 100.298ZM52.125 100.298C51.3499 100.298 50.6657 100.102 50.0722 99.7106C49.4788 99.315 49.0145 98.7579 48.6795 98.0393C48.3444 97.3167 48.1769 96.4629 48.1769 95.4779C48.1769 94.5009 48.3444 93.6532 48.6795 92.9346C49.0145 92.216 49.4808 91.6609 50.0783 91.2694C50.6758 90.8778 51.3661 90.682 52.1492 90.682C52.7548 90.682 53.2332 90.7829 53.5844 90.9847C53.9396 91.1826 54.2101 91.4086 54.3958 91.663C54.5856 91.9132 54.7329 92.1191 54.8379 92.2806H54.959V87.7027H56.3881V100.104H55.0074V98.6752H54.8379C54.7329 98.8447 54.5835 99.0587 54.3898 99.317C54.196 99.5714 53.9195 99.7995 53.5602 100.001C53.2009 100.199 52.7225 100.298 52.125 100.298ZM52.3188 99.0143C52.8921 99.0143 53.3765 98.8649 53.7721 98.5662C54.1677 98.2634 54.4685 97.8456 54.6744 97.3127C54.8803 96.7758 54.9832 96.1561 54.9832 95.4537C54.9832 94.7593 54.8823 94.1517 54.6804 93.631C54.4786 93.1062 54.1798 92.6984 53.7842 92.4078C53.3886 92.1131 52.9001 91.9657 52.3188 91.9657C51.7133 91.9657 51.2086 92.1212 50.8049 92.432C50.4053 92.7388 50.1045 93.1566 49.9027 93.6855C49.7049 94.2103 49.606 94.7997 49.606 95.4537C49.606 96.1157 49.7069 96.7172 49.9087 97.2582C50.1146 97.7951 50.4174 98.223 50.8171 98.5419C51.2207 98.8568 51.7213 99.0143 52.3188 99.0143ZM70.5881 92.8862L69.3043 93.2495C69.2236 93.0355 69.1045 92.8276 68.9471 92.6258C68.7936 92.4199 68.5837 92.2503 68.3173 92.1171C68.0508 91.9839 67.7097 91.9173 67.2939 91.9173C66.7247 91.9173 66.2504 92.0485 65.8709 92.3109C65.4954 92.5693 65.3077 92.8983 65.3077 93.2979C65.3077 93.6532 65.4369 93.9337 65.6953 94.1396C65.9536 94.3455 66.3573 94.5171 66.9064 94.6543L68.287 94.9935C69.1186 95.1953 69.7383 95.5041 70.146 95.9199C70.5538 96.3317 70.7576 96.8626 70.7576 97.5125C70.7576 98.0454 70.6042 98.5218 70.2974 98.9416C69.9946 99.3614 69.5708 99.6925 69.0258 99.9347C68.4808 100.177 67.847 100.298 67.1244 100.298C66.1757 100.298 65.3905 100.092 64.7688 99.6804C64.1471 99.2686 63.7535 98.6671 63.588 97.8758L64.9444 97.5367C65.0736 98.0373 65.3178 98.4128 65.6771 98.6631C66.0404 98.9133 66.5148 99.0385 67.1001 99.0385C67.7662 99.0385 68.2951 98.8972 68.6867 98.6146C69.0823 98.328 69.2801 97.9848 69.2801 97.5852C69.2801 97.2622 69.1671 96.9917 68.941 96.7738C68.7149 96.5517 68.3677 96.3862 67.8995 96.2772L66.3493 95.9139C65.4975 95.712 64.8717 95.3992 64.4721 94.9753C64.0765 94.5474 63.8786 94.0125 63.8786 93.3706C63.8786 92.8458 64.026 92.3815 64.3207 91.9778C64.6194 91.5741 65.0251 91.2572 65.5378 91.0271C66.0546 90.797 66.6399 90.682 67.2939 90.682C68.2143 90.682 68.937 90.8838 69.4618 91.2875C69.9906 91.6912 70.366 92.2241 70.5881 92.8862ZM76.6874 100.298C75.8477 100.298 75.111 100.098 74.4772 99.6985C73.8474 99.2989 73.3549 98.7398 72.9997 98.0212C72.6484 97.3026 72.4728 96.4629 72.4728 95.5021C72.4728 94.5332 72.6484 93.6875 72.9997 92.9649C73.3549 92.2423 73.8474 91.6811 74.4772 91.2815C75.111 90.8818 75.8477 90.682 76.6874 90.682C77.5271 90.682 78.2618 90.8818 78.8916 91.2815C79.5254 91.6811 80.0179 92.2423 80.3691 92.9649C80.7244 93.6875 80.902 94.5332 80.902 95.5021C80.902 96.4629 80.7244 97.3026 80.3691 98.0212C80.0179 98.7398 79.5254 99.2989 78.8916 99.6985C78.2618 100.098 77.5271 100.298 76.6874 100.298ZM76.6874 99.0143C77.3253 99.0143 77.8501 98.8508 78.2618 98.5238C78.6736 98.1968 78.9784 97.7668 79.1762 97.234C79.374 96.7011 79.4729 96.1238 79.4729 95.5021C79.4729 94.8804 79.374 94.3011 79.1762 93.7642C78.9784 93.2273 78.6736 92.7933 78.2618 92.4623C77.8501 92.1312 77.3253 91.9657 76.6874 91.9657C76.0496 91.9657 75.5248 92.1312 75.113 92.4623C74.7012 92.7933 74.3964 93.2273 74.1986 93.7642C74.0008 94.3011 73.9019 94.8804 73.9019 95.5021C73.9019 96.1238 74.0008 96.7011 74.1986 97.234C74.3964 97.7668 74.7012 98.1968 75.113 98.5238C75.5248 98.8508 76.0496 99.0143 76.6874 99.0143ZM83.0835 100.104V90.8031H84.4641V92.2564H84.5852C84.779 91.7598 85.0919 91.3743 85.5238 91.0998C85.9558 90.8213 86.4745 90.682 87.0801 90.682C87.6937 90.682 88.2044 90.8213 88.6121 91.0998C89.0239 91.3743 89.3448 91.7598 89.5749 92.2564H89.6718C89.91 91.776 90.2673 91.3945 90.7436 91.1119C91.22 90.8253 91.7912 90.682 92.4573 90.682C93.2889 90.682 93.9692 90.9424 94.498 91.4631C95.0268 91.9799 95.2913 92.7852 95.2913 93.8793V100.104H93.8622V93.8793C93.8622 93.193 93.6745 92.7025 93.299 92.4078C92.9236 92.1131 92.4815 91.9657 91.9729 91.9657C91.3189 91.9657 90.8123 92.1635 90.453 92.5592C90.0937 92.9507 89.914 93.4473 89.914 94.0488V100.104H88.4607V93.7339C88.4607 93.2051 88.2892 92.7792 87.946 92.4562C87.6029 92.1292 87.1608 91.9657 86.6199 91.9657C86.2485 91.9657 85.9013 92.0646 85.5783 92.2624C85.2594 92.4603 85.001 92.7348 84.8032 93.086C84.6095 93.4332 84.5126 93.8348 84.5126 94.291V100.104H83.0835ZM101.804 100.298C100.908 100.298 100.135 100.1 99.4847 99.7046C98.8387 99.3049 98.3402 98.7478 97.989 98.0333C97.6418 97.3147 97.4682 96.4791 97.4682 95.5263C97.4682 94.5736 97.6418 93.7339 97.989 93.0073C98.3402 92.2766 98.8286 91.7074 99.4544 91.2996C100.084 90.8879 100.819 90.682 101.659 90.682C102.143 90.682 102.621 90.7627 103.094 90.9242C103.566 91.0857 103.996 91.3481 104.384 91.7114C104.771 92.0707 105.08 92.5471 105.31 93.1405C105.54 93.7339 105.655 94.4646 105.655 95.3326V95.9381H98.4855V94.7028H104.202C104.202 94.178 104.097 93.7097 103.887 93.2979C103.681 92.8862 103.386 92.5612 103.003 92.323C102.623 92.0848 102.175 91.9657 101.659 91.9657C101.089 91.9657 100.597 92.107 100.181 92.3896C99.7693 92.6682 99.4524 93.0315 99.2303 93.4796C99.0083 93.9277 98.8973 94.4081 98.8973 94.9208V95.7443C98.8973 96.4468 99.0184 97.0422 99.2606 97.5307C99.5069 98.0151 99.848 98.3845 100.284 98.6388C100.72 98.8891 101.227 99.0143 101.804 99.0143C102.179 99.0143 102.518 98.9618 102.821 98.8568C103.128 98.7478 103.392 98.5863 103.614 98.3724C103.837 98.1544 104.008 97.8839 104.129 97.561L105.51 97.9485C105.364 98.4168 105.12 98.8286 104.777 99.1838C104.434 99.535 104.01 99.8095 103.505 100.007C103.001 100.201 102.434 100.298 101.804 100.298ZM111.608 100.298C110.768 100.298 110.031 100.098 109.397 99.6985C108.768 99.2989 108.275 98.7398 107.92 98.0212C107.569 97.3026 107.393 96.4629 107.393 95.5021C107.393 94.5332 107.569 93.6875 107.92 92.9649C108.275 92.2423 108.768 91.6811 109.397 91.2815C110.031 90.8818 110.768 90.682 111.608 90.682C112.447 90.682 113.182 90.8818 113.812 91.2815C114.446 91.6811 114.938 92.2423 115.289 92.9649C115.645 93.6875 115.822 94.5332 115.822 95.5021C115.822 96.4629 115.645 97.3026 115.289 98.0212C114.938 98.7398 114.446 99.2989 113.812 99.6985C113.182 100.098 112.447 100.298 111.608 100.298ZM111.608 99.0143C112.245 99.0143 112.77 98.8508 113.182 98.5238C113.594 98.1968 113.899 97.7668 114.096 97.234C114.294 96.7011 114.393 96.1238 114.393 95.5021C114.393 94.8804 114.294 94.3011 114.096 93.7642C113.899 93.2273 113.594 92.7933 113.182 92.4623C112.77 92.1312 112.245 91.9657 111.608 91.9657C110.97 91.9657 110.445 92.1312 110.033 92.4623C109.621 92.7933 109.317 93.2273 109.119 93.7642C108.921 94.3011 108.822 94.8804 108.822 95.5021C108.822 96.1238 108.921 96.7011 109.119 97.234C109.317 97.7668 109.621 98.1968 110.033 98.5238C110.445 98.8508 110.97 99.0143 111.608 99.0143ZM119.433 94.509V100.104H118.004V90.8031H119.384V92.2564H119.505C119.723 91.7841 120.054 91.4046 120.499 91.118C120.943 90.8273 121.516 90.682 122.218 90.682C122.848 90.682 123.399 90.8112 123.871 91.0695C124.344 91.3239 124.711 91.7114 124.974 92.2322C125.236 92.7489 125.367 93.4029 125.367 94.1941V100.104H123.938V94.291C123.938 93.5603 123.748 92.9911 123.369 92.5834C122.989 92.1716 122.469 91.9657 121.807 91.9657C121.35 91.9657 120.943 92.0646 120.583 92.2624C120.228 92.4603 119.948 92.7489 119.742 93.1284C119.536 93.5079 119.433 93.9681 119.433 94.509ZM131.878 100.298C130.982 100.298 130.209 100.1 129.559 99.7046C128.913 99.3049 128.415 98.7478 128.063 98.0333C127.716 97.3147 127.543 96.4791 127.543 95.5263C127.543 94.5736 127.716 93.7339 128.063 93.0073C128.415 92.2766 128.903 91.7074 129.529 91.2996C130.159 90.8879 130.893 90.682 131.733 90.682C132.217 90.682 132.696 90.7627 133.168 90.9242C133.64 91.0857 134.07 91.3481 134.458 91.7114C134.845 92.0707 135.154 92.5471 135.384 93.1405C135.614 93.7339 135.73 94.4646 135.73 95.3326V95.9381H128.56V94.7028H134.276C134.276 94.178 134.171 93.7097 133.961 93.2979C133.755 92.8862 133.461 92.5612 133.077 92.323C132.698 92.0848 132.25 91.9657 131.733 91.9657C131.164 91.9657 130.671 92.107 130.255 92.3896C129.844 92.6682 129.527 93.0315 129.305 93.4796C129.083 93.9277 128.972 94.4081 128.972 94.9208V95.7443C128.972 96.4468 129.093 97.0422 129.335 97.5307C129.581 98.0151 129.922 98.3845 130.358 98.6388C130.794 98.8891 131.301 99.0143 131.878 99.0143C132.254 99.0143 132.593 98.9618 132.896 98.8568C133.202 98.7478 133.467 98.5863 133.689 98.3724C133.911 98.1544 134.082 97.8839 134.204 97.561L135.584 97.9485C135.439 98.4168 135.195 98.8286 134.851 99.1838C134.508 99.535 134.084 99.8095 133.58 100.007C133.075 100.201 132.508 100.298 131.878 100.298ZM146.744 90.8031V92.0142H141.924V90.8031H146.744ZM143.329 88.5747H144.758V97.4399C144.758 97.8435 144.817 98.1463 144.934 98.3482C145.055 98.546 145.208 98.6792 145.394 98.7478C145.584 98.8124 145.784 98.8447 145.993 98.8447C146.151 98.8447 146.28 98.8366 146.381 98.8205C146.482 98.8003 146.563 98.7842 146.623 98.7721L146.914 100.056C146.817 100.092 146.682 100.128 146.508 100.165C146.335 100.205 146.115 100.225 145.848 100.225C145.444 100.225 145.049 100.139 144.661 99.965C144.278 99.7914 143.959 99.527 143.705 99.1717C143.454 98.8165 143.329 98.3684 143.329 97.8274V88.5747ZM152.573 100.298C151.733 100.298 150.996 100.098 150.362 99.6985C149.733 99.2989 149.24 98.7398 148.885 98.0212C148.534 97.3026 148.358 96.4629 148.358 95.5021C148.358 94.5332 148.534 93.6875 148.885 92.9649C149.24 92.2423 149.733 91.6811 150.362 91.2815C150.996 90.8818 151.733 90.682 152.573 90.682C153.412 90.682 154.147 90.8818 154.777 91.2815C155.411 91.6811 155.903 92.2423 156.254 92.9649C156.61 93.6875 156.787 94.5332 156.787 95.5021C156.787 96.4629 156.61 97.3026 156.254 98.0212C155.903 98.7398 155.411 99.2989 154.777 99.6985C154.147 100.098 153.412 100.298 152.573 100.298ZM152.573 99.0143C153.211 99.0143 153.735 98.8508 154.147 98.5238C154.559 98.1968 154.864 97.7668 155.062 97.234C155.259 96.7011 155.358 96.1238 155.358 95.5021C155.358 94.8804 155.259 94.3011 155.062 93.7642C154.864 93.2273 154.559 92.7933 154.147 92.4623C153.735 92.1312 153.211 91.9657 152.573 91.9657C151.935 91.9657 151.41 92.1312 150.998 92.4623C150.587 92.7933 150.282 93.2273 150.084 93.7642C149.886 94.3011 149.787 94.8804 149.787 95.5021C149.787 96.1238 149.886 96.7011 150.084 97.234C150.282 97.7668 150.587 98.1968 150.998 98.5238C151.41 98.8508 151.935 99.0143 152.573 99.0143ZM163.765 103.592V90.8031H165.145V92.2806H165.315C165.42 92.1191 165.565 91.9132 165.751 91.663C165.941 91.4086 166.211 91.1826 166.562 90.9847C166.918 90.7829 167.398 90.682 168.004 90.682C168.787 90.682 169.477 90.8778 170.074 91.2694C170.672 91.6609 171.138 92.216 171.473 92.9346C171.808 93.6532 171.976 94.5009 171.976 95.4779C171.976 96.4629 171.808 97.3167 171.473 98.0393C171.138 98.7579 170.674 99.315 170.081 99.7106C169.487 100.102 168.803 100.298 168.028 100.298C167.43 100.298 166.952 100.199 166.593 100.001C166.233 99.7995 165.957 99.5714 165.763 99.317C165.569 99.0587 165.42 98.8447 165.315 98.6752H165.194V103.592H163.765ZM165.17 95.4537C165.17 96.1561 165.273 96.7758 165.478 97.3127C165.684 97.8456 165.985 98.2634 166.381 98.5662C166.776 98.8649 167.261 99.0143 167.834 99.0143C168.431 99.0143 168.93 98.8568 169.33 98.5419C169.733 98.223 170.036 97.7951 170.238 97.2582C170.444 96.7172 170.547 96.1157 170.547 95.4537C170.547 94.7997 170.446 94.2103 170.244 93.6855C170.046 93.1566 169.745 92.7388 169.342 92.432C168.942 92.1212 168.44 91.9657 167.834 91.9657C167.253 91.9657 166.764 92.1131 166.369 92.4078C165.973 92.6984 165.674 93.1062 165.472 93.631C165.271 94.1517 165.17 94.7593 165.17 95.4537ZM174.156 100.104V90.8031H175.585V100.104H174.156ZM174.883 89.2529C174.604 89.2529 174.364 89.158 174.162 88.9683C173.964 88.7785 173.865 88.5505 173.865 88.284C173.865 88.0176 173.964 87.7895 174.162 87.5998C174.364 87.41 174.604 87.3151 174.883 87.3151C175.161 87.3151 175.399 87.41 175.597 87.5998C175.799 87.7895 175.9 88.0176 175.9 88.284C175.9 88.5505 175.799 88.7785 175.597 88.9683C175.399 89.158 175.161 89.2529 174.883 89.2529ZM181.981 100.298C181.109 100.298 180.358 100.092 179.728 99.6804C179.099 99.2686 178.614 98.7014 178.275 97.9788C177.936 97.2562 177.766 96.4306 177.766 95.5021C177.766 94.5575 177.94 93.7238 178.287 93.0012C178.638 92.2746 179.127 91.7074 179.753 91.2996C180.382 90.8879 181.117 90.682 181.957 90.682C182.611 90.682 183.2 90.8031 183.725 91.0453C184.25 91.2875 184.68 91.6266 185.015 92.0626C185.35 92.4986 185.558 93.0073 185.638 93.5886H184.209C184.1 93.1647 183.858 92.7893 183.483 92.4623C183.111 92.1312 182.611 91.9657 181.981 91.9657C181.424 91.9657 180.935 92.1111 180.516 92.4017C180.1 92.6883 179.775 93.0941 179.541 93.6189C179.311 94.1396 179.195 94.7512 179.195 95.4537C179.195 96.1722 179.309 96.798 179.535 97.3309C179.765 97.8637 180.088 98.2775 180.503 98.5722C180.923 98.8669 181.416 99.0143 181.981 99.0143C182.352 99.0143 182.689 98.9497 182.992 98.8205C183.295 98.6913 183.551 98.5056 183.761 98.2634C183.971 98.0212 184.121 97.7305 184.209 97.3914H185.638C185.558 97.9404 185.358 98.435 185.039 98.875C184.724 99.311 184.306 99.6582 183.786 99.9165C183.269 100.171 182.667 100.298 181.981 100.298ZM189.06 96.7132L189.036 94.945H189.326L193.396 90.8031H195.164L190.828 95.1872H190.707L189.06 96.7132ZM187.728 100.104V87.7027H189.157V100.104H187.728ZM193.638 100.104L190.004 95.5021L191.022 94.509L195.454 100.104H193.638ZM207.661 96.3014V90.8031H209.09V100.104H207.661V98.5298H207.564C207.346 99.0022 207.007 99.4038 206.546 99.7349C206.086 100.062 205.505 100.225 204.802 100.225C204.221 100.225 203.704 100.098 203.252 99.8439C202.8 99.5855 202.445 99.1979 202.187 98.6812C201.928 98.1605 201.799 97.5044 201.799 96.7132V90.8031H203.228V96.6163C203.228 97.2945 203.418 97.8355 203.797 98.2392C204.181 98.6429 204.669 98.8447 205.263 98.8447C205.618 98.8447 205.979 98.7539 206.347 98.5722C206.718 98.3906 207.029 98.112 207.279 97.7366C207.533 97.3611 207.661 96.8828 207.661 96.3014ZM211.707 103.592V90.8031H213.088V92.2806H213.257C213.362 92.1191 213.508 91.9132 213.693 91.663C213.883 91.4086 214.154 91.1826 214.505 90.9847C214.86 90.7829 215.34 90.682 215.946 90.682C216.729 90.682 217.419 90.8778 218.017 91.2694C218.614 91.6609 219.081 92.216 219.416 92.9346C219.751 93.6532 219.918 94.5009 219.918 95.4779C219.918 96.4629 219.751 97.3167 219.416 98.0393C219.081 98.7579 218.616 99.315 218.023 99.7106C217.43 100.102 216.745 100.298 215.97 100.298C215.373 100.298 214.894 100.199 214.535 100.001C214.176 99.7995 213.899 99.5714 213.705 99.317C213.512 99.0587 213.362 98.8447 213.257 98.6752H213.136V103.592H211.707ZM213.112 95.4537C213.112 96.1561 213.215 96.7758 213.421 97.3127C213.627 97.8456 213.928 98.2634 214.323 98.5662C214.719 98.8649 215.203 99.0143 215.776 99.0143C216.374 99.0143 216.872 98.8568 217.272 98.5419C217.676 98.223 217.979 97.7951 218.18 97.2582C218.386 96.7172 218.489 96.1157 218.489 95.4537C218.489 94.7997 218.388 94.2103 218.187 93.6855C217.989 93.1566 217.688 92.7388 217.284 92.432C216.885 92.1212 216.382 91.9657 215.776 91.9657C215.195 91.9657 214.707 92.1131 214.311 92.4078C213.915 92.6984 213.617 93.1062 213.415 93.631C213.213 94.1517 213.112 94.7593 213.112 95.4537ZM230.649 103.786C229.958 103.786 229.365 103.697 228.868 103.52C228.372 103.346 227.958 103.116 227.627 102.829C227.3 102.547 227.04 102.244 226.846 101.921L227.984 101.122C228.113 101.291 228.277 101.485 228.475 101.703C228.673 101.925 228.943 102.117 229.286 102.278C229.633 102.444 230.087 102.526 230.649 102.526C231.399 102.526 232.019 102.345 232.508 101.981C232.996 101.618 233.24 101.049 233.24 100.274V98.3845H233.119C233.014 98.5541 232.865 98.764 232.671 99.0143C232.481 99.2605 232.207 99.4805 231.848 99.6743C231.492 99.864 231.012 99.9589 230.406 99.9589C229.656 99.9589 228.981 99.7813 228.384 99.426C227.79 99.0708 227.32 98.5541 226.973 97.8758C226.63 97.1976 226.458 96.3741 226.458 95.4052C226.458 94.4525 226.626 93.6229 226.961 92.9164C227.296 92.2059 227.762 91.6569 228.36 91.2694C228.957 90.8778 229.647 90.682 230.431 90.682C231.036 90.682 231.517 90.7829 231.872 90.9847C232.231 91.1826 232.506 91.4086 232.695 91.663C232.889 91.9132 233.038 92.1191 233.143 92.2806H233.289V90.8031H234.669V100.371C234.669 101.17 234.488 101.82 234.124 102.321C233.765 102.825 233.281 103.195 232.671 103.429C232.066 103.667 231.391 103.786 230.649 103.786ZM230.6 98.6752C231.173 98.6752 231.658 98.544 232.053 98.2816C232.449 98.0192 232.75 97.6417 232.956 97.1492C233.162 96.6567 233.265 96.0673 233.265 95.381C233.265 94.7109 233.164 94.1195 232.962 93.6068C232.76 93.0941 232.461 92.6924 232.066 92.4017C231.67 92.1111 231.181 91.9657 230.6 91.9657C229.995 91.9657 229.49 92.1191 229.086 92.4259C228.687 92.7328 228.386 93.1445 228.184 93.6613C227.986 94.178 227.887 94.7512 227.887 95.381C227.887 96.0269 227.988 96.5981 228.19 97.0947C228.396 97.5872 228.699 97.9747 229.098 98.2573C229.502 98.5359 230.003 98.6752 230.6 98.6752ZM237.285 100.104V90.8031H238.666V92.2079H238.763C238.932 91.7477 239.239 91.3743 239.683 91.0877C240.127 90.8011 240.628 90.6578 241.185 90.6578C241.29 90.6578 241.421 90.6598 241.579 90.6638C241.736 90.6678 241.855 90.6739 241.936 90.682V92.1353C241.888 92.1232 241.776 92.105 241.603 92.0808C241.433 92.0525 241.254 92.0384 241.064 92.0384C240.612 92.0384 240.208 92.1333 239.853 92.323C239.502 92.5087 239.223 92.7671 239.017 93.0981C238.815 93.4251 238.714 93.7985 238.714 94.2184V100.104H237.285ZM247.125 100.298C246.286 100.298 245.549 100.098 244.915 99.6985C244.285 99.2989 243.793 98.7398 243.438 98.0212C243.086 97.3026 242.911 96.4629 242.911 95.5021C242.911 94.5332 243.086 93.6875 243.438 92.9649C243.793 92.2423 244.285 91.6811 244.915 91.2815C245.549 90.8818 246.286 90.682 247.125 90.682C247.965 90.682 248.7 90.8818 249.33 91.2815C249.963 91.6811 250.456 92.2423 250.807 92.9649C251.162 93.6875 251.34 94.5332 251.34 95.5021C251.34 96.4629 251.162 97.3026 250.807 98.0212C250.456 98.7398 249.963 99.2989 249.33 99.6985C248.7 100.098 247.965 100.298 247.125 100.298ZM247.125 99.0143C247.763 99.0143 248.288 98.8508 248.7 98.5238C249.112 98.1968 249.416 97.7668 249.614 97.234C249.812 96.7011 249.911 96.1238 249.911 95.5021C249.911 94.8804 249.812 94.3011 249.614 93.7642C249.416 93.2273 249.112 92.7933 248.7 92.4623C248.288 92.1312 247.763 91.9657 247.125 91.9657C246.488 91.9657 245.963 92.1312 245.551 92.4623C245.139 92.7933 244.834 93.2273 244.637 93.7642C244.439 94.3011 244.34 94.8804 244.34 95.5021C244.34 96.1238 244.439 96.7011 244.637 97.234C244.834 97.7668 245.139 98.1968 245.551 98.5238C245.963 98.8508 246.488 99.0143 247.125 99.0143ZM257.3 100.298C256.428 100.298 255.677 100.092 255.048 99.6804C254.418 99.2686 253.933 98.7014 253.594 97.9788C253.255 97.2562 253.086 96.4306 253.086 95.5021C253.086 94.5575 253.259 93.7238 253.606 93.0012C253.958 92.2746 254.446 91.7074 255.072 91.2996C255.701 90.8879 256.436 90.682 257.276 90.682C257.93 90.682 258.519 90.8031 259.044 91.0453C259.569 91.2875 259.999 91.6266 260.334 92.0626C260.669 92.4986 260.877 93.0073 260.958 93.5886H259.529C259.42 93.1647 259.177 92.7893 258.802 92.4623C258.43 92.1312 257.93 91.9657 257.3 91.9657C256.743 91.9657 256.255 92.1111 255.835 92.4017C255.419 92.6883 255.094 93.0941 254.86 93.6189C254.63 94.1396 254.515 94.7512 254.515 95.4537C254.515 96.1722 254.628 96.798 254.854 97.3309C255.084 97.8637 255.407 98.2775 255.823 98.5722C256.242 98.8669 256.735 99.0143 257.3 99.0143C257.672 99.0143 258.009 98.9497 258.311 98.8205C258.614 98.6913 258.871 98.5056 259.08 98.2634C259.29 98.0212 259.44 97.7305 259.529 97.3914H260.958C260.877 97.9404 260.677 98.435 260.358 98.875C260.043 99.311 259.625 99.6582 259.105 99.9165C258.588 100.171 257.986 100.298 257.3 100.298ZM266.946 100.298C266.05 100.298 265.277 100.1 264.627 99.7046C263.981 99.3049 263.483 98.7478 263.132 98.0333C262.784 97.3147 262.611 96.4791 262.611 95.5263C262.611 94.5736 262.784 93.7339 263.132 93.0073C263.483 92.2766 263.971 91.7074 264.597 91.2996C265.227 90.8879 265.961 90.682 266.801 90.682C267.286 90.682 267.764 90.7627 268.236 90.9242C268.709 91.0857 269.139 91.3481 269.526 91.7114C269.914 92.0707 270.222 92.5471 270.453 93.1405C270.683 93.7339 270.798 94.4646 270.798 95.3326V95.9381H263.628V94.7028H269.344C269.344 94.178 269.239 93.7097 269.03 93.2979C268.824 92.8862 268.529 92.5612 268.145 92.323C267.766 92.0848 267.318 91.9657 266.801 91.9657C266.232 91.9657 265.739 92.107 265.324 92.3896C264.912 92.6682 264.595 93.0315 264.373 93.4796C264.151 93.9277 264.04 94.4081 264.04 94.9208V95.7443C264.04 96.4468 264.161 97.0422 264.403 97.5307C264.649 98.0151 264.991 98.3845 265.427 98.6388C265.863 98.8891 266.369 99.0143 266.946 99.0143C267.322 99.0143 267.661 98.9618 267.964 98.8568C268.271 98.7478 268.535 98.5863 268.757 98.3724C268.979 98.1544 269.151 97.8839 269.272 97.561L270.652 97.9485C270.507 98.4168 270.263 98.8286 269.92 99.1838C269.577 99.535 269.153 99.8095 268.648 100.007C268.143 100.201 267.576 100.298 266.946 100.298ZM272.972 100.104V90.8031H274.352V92.2079H274.449C274.619 91.7477 274.926 91.3743 275.37 91.0877C275.814 90.8011 276.314 90.6578 276.871 90.6578C276.976 90.6578 277.107 90.6598 277.265 90.6638C277.422 90.6678 277.541 90.6739 277.622 90.682V92.1353C277.574 92.1232 277.463 92.105 277.289 92.0808C277.12 92.0525 276.94 92.0384 276.75 92.0384C276.298 92.0384 275.894 92.1333 275.539 92.323C275.188 92.5087 274.909 92.7671 274.703 93.0981C274.502 93.4251 274.401 93.7985 274.401 94.2184V100.104H272.972ZM279.316 100.104V90.8031H280.745V100.104H279.316ZM280.043 89.2529C279.764 89.2529 279.524 89.158 279.322 88.9683C279.124 88.7785 279.026 88.5505 279.026 88.284C279.026 88.0176 279.124 87.7895 279.322 87.5998C279.524 87.41 279.764 87.3151 280.043 87.3151C280.321 87.3151 280.56 87.41 280.757 87.5998C280.959 87.7895 281.06 88.0176 281.06 88.284C281.06 88.5505 280.959 88.7785 280.757 88.9683C280.56 89.158 280.321 89.2529 280.043 89.2529ZM287.262 100.298C286.366 100.298 285.593 100.1 284.943 99.7046C284.297 99.3049 283.799 98.7478 283.448 98.0333C283.1 97.3147 282.927 96.4791 282.927 95.5263C282.927 94.5736 283.1 93.7339 283.448 93.0073C283.799 92.2766 284.287 91.7074 284.913 91.2996C285.543 90.8879 286.277 90.682 287.117 90.682C287.602 90.682 288.08 90.7627 288.552 90.9242C289.025 91.0857 289.455 91.3481 289.842 91.7114C290.23 92.0707 290.538 92.5471 290.769 93.1405C290.999 93.7339 291.114 94.4646 291.114 95.3326V95.9381H283.944V94.7028H289.66C289.66 94.178 289.555 93.7097 289.346 93.2979C289.14 92.8862 288.845 92.5612 288.461 92.323C288.082 92.0848 287.634 91.9657 287.117 91.9657C286.548 91.9657 286.055 92.107 285.64 92.3896C285.228 92.6682 284.911 93.0315 284.689 93.4796C284.467 93.9277 284.356 94.4081 284.356 94.9208V95.7443C284.356 96.4468 284.477 97.0422 284.719 97.5307C284.965 98.0151 285.307 98.3845 285.743 98.6388C286.179 98.8891 286.685 99.0143 287.262 99.0143C287.638 99.0143 287.977 98.9618 288.28 98.8568C288.587 98.7478 288.851 98.5863 289.073 98.3724C289.295 98.1544 289.467 97.8839 289.588 97.561L290.968 97.9485C290.823 98.4168 290.579 98.8286 290.236 99.1838C289.893 99.535 289.469 99.8095 288.964 100.007C288.459 100.201 287.892 100.298 287.262 100.298ZM299.876 92.8862L298.592 93.2495C298.511 93.0355 298.392 92.8276 298.235 92.6258C298.082 92.4199 297.872 92.2503 297.605 92.1171C297.339 91.9839 296.998 91.9173 296.582 91.9173C296.013 91.9173 295.538 92.0485 295.159 92.3109C294.783 92.5693 294.596 92.8983 294.596 93.2979C294.596 93.6532 294.725 93.9337 294.983 94.1396C295.242 94.3455 295.645 94.5171 296.194 94.6543L297.575 94.9935C298.407 95.1953 299.026 95.5041 299.434 95.9199C299.842 96.3317 300.046 96.8626 300.046 97.5125C300.046 98.0454 299.892 98.5218 299.585 98.9416C299.283 99.3614 298.859 99.6925 298.314 99.9347C297.769 100.177 297.135 100.298 296.412 100.298C295.464 100.298 294.678 100.092 294.057 99.6804C293.435 99.2686 293.041 98.6671 292.876 97.8758L294.232 97.5367C294.361 98.0373 294.606 98.4128 294.965 98.6631C295.328 98.9133 295.803 99.0385 296.388 99.0385C297.054 99.0385 297.583 98.8972 297.975 98.6146C298.37 98.328 298.568 97.9848 298.568 97.5852C298.568 97.2622 298.455 96.9917 298.229 96.7738C298.003 96.5517 297.656 96.3862 297.187 96.2772L295.637 95.9139C294.785 95.712 294.16 95.3992 293.76 94.9753C293.364 94.5474 293.167 94.0125 293.167 93.3706C293.167 92.8458 293.314 92.3815 293.609 91.9778C293.907 91.5741 294.313 91.2572 294.826 91.0271C295.342 90.797 295.928 90.682 296.582 90.682C297.502 90.682 298.225 90.8838 298.75 91.2875C299.279 91.6912 299.654 92.2241 299.876 92.8862ZM311.135 90.8031V92.0142H306.121V90.8031H311.135ZM307.622 100.104V89.5193C307.622 88.9865 307.748 88.5424 307.998 88.1871C308.248 87.8319 308.573 87.5654 308.973 87.3878C309.372 87.2102 309.794 87.1214 310.238 87.1214C310.59 87.1214 310.876 87.1496 311.098 87.2062C311.32 87.2627 311.486 87.3151 311.595 87.3636L311.183 88.5989C311.11 88.5747 311.009 88.5444 310.88 88.5081C310.755 88.4717 310.59 88.4536 310.384 88.4536C309.911 88.4536 309.57 88.5727 309.36 88.8108C309.154 89.049 309.051 89.3982 309.051 89.8584V100.104H307.622ZM313.137 100.104V90.8031H314.518V92.2079H314.615C314.784 91.7477 315.091 91.3743 315.535 91.0877C315.979 90.8011 316.48 90.6578 317.037 90.6578C317.142 90.6578 317.273 90.6598 317.431 90.6638C317.588 90.6678 317.707 90.6739 317.788 90.682V92.1353C317.74 92.1232 317.629 92.105 317.455 92.0808C317.285 92.0525 317.106 92.0384 316.916 92.0384C316.464 92.0384 316.06 92.1333 315.705 92.323C315.354 92.5087 315.075 92.7671 314.869 93.0981C314.667 93.4251 314.566 93.7985 314.566 94.2184V100.104H313.137ZM322.977 100.298C322.138 100.298 321.401 100.098 320.767 99.6985C320.137 99.2989 319.645 98.7398 319.29 98.0212C318.938 97.3026 318.763 96.4629 318.763 95.5021C318.763 94.5332 318.938 93.6875 319.29 92.9649C319.645 92.2423 320.137 91.6811 320.767 91.2815C321.401 90.8818 322.138 90.682 322.977 90.682C323.817 90.682 324.552 90.8818 325.182 91.2815C325.815 91.6811 326.308 92.2423 326.659 92.9649C327.014 93.6875 327.192 94.5332 327.192 95.5021C327.192 96.4629 327.014 97.3026 326.659 98.0212C326.308 98.7398 325.815 99.2989 325.182 99.6985C324.552 100.098 323.817 100.298 322.977 100.298ZM322.977 99.0143C323.615 99.0143 324.14 98.8508 324.552 98.5238C324.964 98.1968 325.268 97.7668 325.466 97.234C325.664 96.7011 325.763 96.1238 325.763 95.5021C325.763 94.8804 325.664 94.3011 325.466 93.7642C325.268 93.2273 324.964 92.7933 324.552 92.4623C324.14 92.1312 323.615 91.9657 322.977 91.9657C322.34 91.9657 321.815 92.1312 321.403 92.4623C320.991 92.7933 320.686 93.2273 320.489 93.7642C320.291 94.3011 320.192 94.8804 320.192 95.5021C320.192 96.1238 320.291 96.7011 320.489 97.234C320.686 97.7668 320.991 98.1968 321.403 98.5238C321.815 98.8508 322.34 99.0143 322.977 99.0143ZM329.374 100.104V90.8031H330.754V92.2564H330.875C331.069 91.7598 331.382 91.3743 331.814 91.0998C332.246 90.8213 332.765 90.682 333.37 90.682C333.984 90.682 334.494 90.8213 334.902 91.0998C335.314 91.3743 335.635 91.7598 335.865 92.2564H335.962C336.2 91.776 336.557 91.3945 337.034 91.1119C337.51 90.8253 338.081 90.682 338.747 90.682C339.579 90.682 340.259 90.9424 340.788 91.4631C341.317 91.9799 341.581 92.7852 341.581 93.8793V100.104H340.152V93.8793C340.152 93.193 339.965 92.7025 339.589 92.4078C339.214 92.1131 338.772 91.9657 338.263 91.9657C337.609 91.9657 337.102 92.1635 336.743 92.5592C336.384 92.9507 336.204 93.4473 336.204 94.0488V100.104H334.751V93.7339C334.751 93.2051 334.579 92.7792 334.236 92.4562C333.893 92.1292 333.451 91.9657 332.91 91.9657C332.539 91.9657 332.191 92.0646 331.868 92.2624C331.549 92.4603 331.291 92.7348 331.093 93.086C330.9 93.4332 330.803 93.8348 330.803 94.291V100.104H329.374ZM350.686 87.7027V100.104H349.184V87.7027H350.686ZM353.503 100.104V90.8031H354.884V92.2564H355.005C355.199 91.7598 355.511 91.3743 355.943 91.0998C356.375 90.8213 356.894 90.682 357.5 90.682C358.113 90.682 358.624 90.8213 359.032 91.0998C359.443 91.3743 359.764 91.7598 359.994 92.2564H360.091C360.329 91.776 360.687 91.3945 361.163 91.1119C361.639 90.8253 362.211 90.682 362.877 90.682C363.708 90.682 364.389 90.9424 364.917 91.4631C365.446 91.9799 365.711 92.7852 365.711 93.8793V100.104H364.282V93.8793C364.282 93.193 364.094 92.7025 363.719 92.4078C363.343 92.1131 362.901 91.9657 362.392 91.9657C361.738 91.9657 361.232 92.1635 360.872 92.5592C360.513 92.9507 360.334 93.4473 360.334 94.0488V100.104H358.88V93.7339C358.88 93.2051 358.709 92.7792 358.366 92.4562C358.022 92.1292 357.58 91.9657 357.039 91.9657C356.668 91.9657 356.321 92.0646 355.998 92.2624C355.679 92.4603 355.421 92.7348 355.223 93.086C355.029 93.4332 354.932 93.8348 354.932 94.291V100.104H353.503ZM372.369 90.8031V92.0142H367.549V90.8031H372.369ZM368.953 88.5747H370.383V97.4399C370.383 97.8435 370.441 98.1463 370.558 98.3482C370.679 98.546 370.833 98.6792 371.018 98.7478C371.208 98.8124 371.408 98.8447 371.618 98.8447C371.775 98.8447 371.904 98.8366 372.005 98.8205C372.106 98.8003 372.187 98.7842 372.248 98.7721L372.538 100.056C372.441 100.092 372.306 100.128 372.133 100.165C371.959 100.205 371.739 100.225 371.473 100.225C371.069 100.225 370.673 100.139 370.286 99.965C369.902 99.7914 369.583 99.527 369.329 99.1717C369.079 98.8165 368.953 98.3684 368.953 97.8274V88.5747ZM374.518 100.104V90.8031H375.947V100.104H374.518ZM375.245 89.2529C374.966 89.2529 374.726 89.158 374.524 88.9683C374.327 88.7785 374.228 88.5505 374.228 88.284C374.228 88.0176 374.327 87.7895 374.524 87.5998C374.726 87.41 374.966 87.3151 375.245 87.3151C375.524 87.3151 375.762 87.41 375.96 87.5998C376.161 87.7895 376.262 88.0176 376.262 88.284C376.262 88.5505 376.161 88.7785 375.96 88.9683C375.762 89.158 375.524 89.2529 375.245 89.2529ZM381.302 100.322C380.713 100.322 380.178 100.211 379.697 99.9892C379.217 99.7631 378.835 99.4381 378.553 99.0143C378.27 98.5863 378.129 98.0696 378.129 97.4641C378.129 96.9312 378.234 96.4992 378.444 96.1682C378.654 95.8331 378.934 95.5707 379.286 95.381C379.637 95.1913 380.024 95.05 380.448 94.9571C380.876 94.8602 381.306 94.7835 381.738 94.727C382.303 94.6543 382.761 94.5998 383.113 94.5635C383.468 94.5231 383.726 94.4565 383.888 94.3637C384.053 94.2708 384.136 94.1094 384.136 93.8793V93.8308C384.136 93.2333 383.972 92.7691 383.645 92.4381C383.323 92.107 382.832 91.9415 382.174 91.9415C381.492 91.9415 380.957 92.0909 380.569 92.3896C380.182 92.6883 379.909 93.0073 379.752 93.3464L378.395 92.8619C378.638 92.2968 378.961 91.8567 379.364 91.5418C379.772 91.2229 380.216 91.0009 380.696 90.8758C381.181 90.7466 381.657 90.682 382.126 90.682C382.424 90.682 382.767 90.7183 383.155 90.791C383.547 90.8596 383.924 91.0029 384.287 91.2209C384.655 91.4389 384.96 91.7679 385.202 92.2079C385.444 92.648 385.565 93.2374 385.565 93.9761V100.104H384.136V98.8447H384.063C383.966 99.0466 383.805 99.2625 383.579 99.4926C383.353 99.7228 383.052 99.9185 382.677 100.08C382.301 100.242 381.843 100.322 381.302 100.322ZM381.52 99.0385C382.085 99.0385 382.562 98.9275 382.949 98.7054C383.341 98.4834 383.635 98.1968 383.833 97.8456C384.035 97.4944 384.136 97.125 384.136 96.7374V95.4294C384.075 95.5021 383.942 95.5687 383.736 95.6293C383.534 95.6858 383.3 95.7363 383.034 95.7807C382.771 95.821 382.515 95.8574 382.265 95.8897C382.019 95.9179 381.819 95.9421 381.665 95.9623C381.294 96.0108 380.947 96.0895 380.624 96.1985C380.305 96.3034 380.047 96.4629 379.849 96.6769C379.655 96.8868 379.558 97.1734 379.558 97.5367C379.558 98.0333 379.742 98.4087 380.109 98.6631C380.481 98.9133 380.951 99.0385 381.52 99.0385ZM387.907 100.104V99.0143L393.187 92.2322V92.1353H388.077V90.8031H395.028V91.9415L389.893 98.6752V98.7721H395.198V100.104H387.907ZM22.8999 119.803C22.8273 119.189 22.5326 118.713 22.0158 118.374C21.4991 118.035 20.8653 117.865 20.1144 117.865C19.5654 117.865 19.085 117.954 18.6732 118.132C18.2655 118.309 17.9466 118.554 17.7165 118.864C17.4904 119.175 17.3774 119.529 17.3774 119.924C17.3774 120.255 17.4561 120.54 17.6135 120.778C17.775 121.012 17.9809 121.208 18.2312 121.365C18.4815 121.519 18.7439 121.646 19.0184 121.747C19.2929 121.844 19.5452 121.922 19.7753 121.983L21.0349 122.322C21.3578 122.407 21.7171 122.524 22.1127 122.673C22.5124 122.823 22.8939 123.027 23.2572 123.285C23.6246 123.539 23.9273 123.866 24.1655 124.266C24.4037 124.666 24.5228 125.156 24.5228 125.737C24.5228 126.408 24.3472 127.013 23.996 127.554C23.6488 128.095 23.1401 128.525 22.47 128.844C21.8039 129.163 20.9945 129.322 20.0418 129.322C19.1536 129.322 18.3846 129.179 17.7346 128.892C17.0887 128.606 16.5801 128.206 16.2087 127.693C15.8413 127.181 15.6334 126.585 15.585 125.907H17.1352C17.1755 126.375 17.333 126.763 17.6075 127.07C17.886 127.372 18.2372 127.598 18.6611 127.748C19.089 127.893 19.5493 127.966 20.0418 127.966C20.615 127.966 21.1297 127.873 21.5859 127.687C22.0421 127.498 22.4034 127.235 22.6698 126.9C22.9363 126.561 23.0695 126.165 23.0695 125.713C23.0695 125.301 22.9544 124.966 22.7243 124.708C22.4942 124.45 22.1915 124.24 21.816 124.078C21.4406 123.917 21.0349 123.775 20.5989 123.654L19.0729 123.218C18.104 122.94 17.337 122.542 16.7718 122.025C16.2067 121.509 15.9241 120.833 15.9241 119.997C15.9241 119.303 16.1118 118.697 16.4872 118.18C16.8667 117.659 17.3754 117.256 18.0132 116.969C18.6551 116.678 19.3716 116.533 20.1629 116.533C20.9622 116.533 21.6727 116.676 22.2944 116.963C22.9161 117.246 23.4086 117.633 23.7719 118.126C24.1393 118.618 24.3331 119.177 24.3532 119.803H22.8999ZM32.6598 125.301V119.803H34.0889V129.104H32.6598V127.53H32.5629C32.3449 128.002 32.0058 128.404 31.5456 128.735C31.0854 129.062 30.5041 129.225 29.8016 129.225C29.2203 129.225 28.7036 129.098 28.2514 128.844C27.7993 128.585 27.444 128.198 27.1857 127.681C26.9273 127.16 26.7981 126.504 26.7981 125.713V119.803H28.2272V125.616C28.2272 126.295 28.417 126.835 28.7964 127.239C29.1799 127.643 29.6684 127.845 30.2618 127.845C30.6171 127.845 30.9784 127.754 31.3458 127.572C31.7172 127.391 32.028 127.112 32.2783 126.737C32.5326 126.361 32.6598 125.883 32.6598 125.301ZM36.7064 132.592V119.803H38.087V121.281H38.2565C38.3615 121.119 38.5068 120.913 38.6925 120.663C38.8823 120.409 39.1528 120.183 39.504 119.985C39.8592 119.783 40.3396 119.682 40.9452 119.682C41.7283 119.682 42.4187 119.878 43.0161 120.269C43.6136 120.661 44.0799 121.216 44.4149 121.935C44.75 122.653 44.9175 123.501 44.9175 124.478C44.9175 125.463 44.75 126.317 44.4149 127.039C44.0799 127.758 43.6156 128.315 43.0222 128.711C42.4287 129.102 41.7445 129.298 40.9694 129.298C40.3719 129.298 39.8935 129.199 39.5342 129.001C39.175 128.799 38.8984 128.571 38.7046 128.317C38.5109 128.059 38.3615 127.845 38.2565 127.675H38.1354V132.592H36.7064ZM38.1112 124.454C38.1112 125.156 38.2142 125.776 38.42 126.313C38.6259 126.846 38.9267 127.263 39.3223 127.566C39.7179 127.865 40.2024 128.014 40.7756 128.014C41.3731 128.014 41.8716 127.857 42.2713 127.542C42.675 127.223 42.9778 126.795 43.1796 126.258C43.3855 125.717 43.4884 125.116 43.4884 124.454C43.4884 123.8 43.3875 123.21 43.1857 122.685C42.9879 122.157 42.6871 121.739 42.2834 121.432C41.8838 121.121 41.3812 120.966 40.7756 120.966C40.1943 120.966 39.7058 121.113 39.3102 121.408C38.9146 121.698 38.6158 122.106 38.414 122.631C38.2121 123.152 38.1112 123.759 38.1112 124.454ZM50.9972 129.298C50.101 129.298 49.3279 129.1 48.678 128.705C48.032 128.305 47.5335 127.748 47.1823 127.033C46.8351 126.315 46.6615 125.479 46.6615 124.526C46.6615 123.574 46.8351 122.734 47.1823 122.007C47.5335 121.277 48.022 120.707 48.6477 120.3C49.2775 119.888 50.0122 119.682 50.8519 119.682C51.3363 119.682 51.8147 119.763 52.287 119.924C52.7593 120.086 53.1893 120.348 53.5768 120.711C53.9644 121.071 54.2732 121.547 54.5033 122.14C54.7334 122.734 54.8485 123.465 54.8485 124.333V124.938H47.6788V123.703H53.3952C53.3952 123.178 53.2902 122.71 53.0803 122.298C52.8744 121.886 52.5797 121.561 52.1962 121.323C51.8167 121.085 51.3686 120.966 50.8519 120.966C50.2827 120.966 49.7901 121.107 49.3743 121.39C48.9626 121.668 48.6457 122.031 48.4236 122.48C48.2016 122.928 48.0906 123.408 48.0906 123.921V124.744C48.0906 125.447 48.2117 126.042 48.4539 126.531C48.7002 127.015 49.0413 127.385 49.4773 127.639C49.9133 127.889 50.4199 128.014 50.9972 128.014C51.3726 128.014 51.7117 127.962 52.0145 127.857C52.3213 127.748 52.5857 127.586 52.8078 127.372C53.0298 127.154 53.2014 126.884 53.3225 126.561L54.7031 126.949C54.5578 127.417 54.3136 127.829 53.9704 128.184C53.6273 128.535 53.2034 128.81 52.6988 129.007C52.1942 129.201 51.627 129.298 50.9972 129.298ZM57.0224 129.104V119.803H58.403V121.208H58.4999C58.6694 120.748 58.9763 120.374 59.4203 120.088C59.8644 119.801 60.365 119.658 60.9221 119.658C61.027 119.658 61.1582 119.66 61.3157 119.664C61.4731 119.668 61.5922 119.674 61.6729 119.682V121.135C61.6245 121.123 61.5135 121.105 61.3399 121.081C61.1703 121.053 60.9907 121.038 60.801 121.038C60.3488 121.038 59.9451 121.133 59.5899 121.323C59.2387 121.509 58.9601 121.767 58.7542 122.098C58.5524 122.425 58.4515 122.799 58.4515 123.218V129.104H57.0224ZM63.367 129.104V119.803H64.7476V121.256H64.8687C65.0625 120.76 65.3753 120.374 65.8073 120.1C66.2393 119.821 66.758 119.682 67.3636 119.682C67.9772 119.682 68.4878 119.821 68.8956 120.1C69.3074 120.374 69.6283 120.76 69.8584 121.256H69.9553C70.1935 120.776 70.5507 120.395 71.0271 120.112C71.5035 119.825 72.0747 119.682 72.7408 119.682C73.5724 119.682 74.2526 119.942 74.7815 120.463C75.3103 120.98 75.5747 121.785 75.5747 122.879V129.104H74.1456V122.879C74.1456 122.193 73.9579 121.702 73.5825 121.408C73.2071 121.113 72.765 120.966 72.2564 120.966C71.6024 120.966 71.0957 121.164 70.7364 121.559C70.3771 121.951 70.1975 122.447 70.1975 123.049V129.104H68.7442V122.734C68.7442 122.205 68.5726 121.779 68.2295 121.456C67.8863 121.129 67.4443 120.966 66.9033 120.966C66.5319 120.966 66.1848 121.065 65.8618 121.262C65.5429 121.46 65.2845 121.735 65.0867 122.086C64.8929 122.433 64.796 122.835 64.796 123.291V129.104H63.367ZM80.9247 129.322C80.3353 129.322 79.8004 129.211 79.32 128.989C78.8396 128.763 78.4581 128.438 78.1755 128.014C77.893 127.586 77.7517 127.07 77.7517 126.464C77.7517 125.931 77.8566 125.499 78.0666 125.168C78.2765 124.833 78.557 124.571 78.9083 124.381C79.2595 124.191 79.647 124.05 80.0709 123.957C80.4988 123.86 80.9288 123.784 81.3607 123.727C81.9259 123.654 82.3841 123.6 82.7353 123.564C83.0906 123.523 83.3489 123.457 83.5104 123.364C83.6759 123.271 83.7587 123.109 83.7587 122.879V122.831C83.7587 122.233 83.5952 121.769 83.2682 121.438C82.9452 121.107 82.4547 120.942 81.7967 120.942C81.1145 120.942 80.5796 121.091 80.192 121.39C79.8045 121.688 79.532 122.007 79.3745 122.346L78.0181 121.862C78.2603 121.297 78.5833 120.857 78.987 120.542C79.3947 120.223 79.8388 120.001 80.3192 119.876C80.8036 119.747 81.28 119.682 81.7483 119.682C82.047 119.682 82.3901 119.718 82.7777 119.791C83.1693 119.86 83.5467 120.003 83.9101 120.221C84.2774 120.439 84.5822 120.768 84.8244 121.208C85.0666 121.648 85.1878 122.237 85.1878 122.976V129.104H83.7587V127.845H83.686C83.5891 128.047 83.4276 128.263 83.2016 128.493C82.9755 128.723 82.6747 128.919 82.2993 129.08C81.9239 129.242 81.4657 129.322 80.9247 129.322ZM81.1427 128.038C81.7079 128.038 82.1843 127.927 82.5718 127.705C82.9634 127.483 83.2581 127.197 83.4559 126.846C83.6577 126.494 83.7587 126.125 83.7587 125.737V124.429C83.6981 124.502 83.5649 124.569 83.359 124.629C83.1572 124.686 82.923 124.736 82.6566 124.781C82.3942 124.821 82.1378 124.857 81.8875 124.89C81.6413 124.918 81.4415 124.942 81.288 124.962C80.9166 125.011 80.5695 125.089 80.2465 125.198C79.9276 125.303 79.6692 125.463 79.4714 125.677C79.2776 125.887 79.1808 126.173 79.1808 126.537C79.1808 127.033 79.3644 127.409 79.7318 127.663C80.1032 127.913 80.5735 128.038 81.1427 128.038ZM87.7961 129.104V119.803H89.1768V121.208H89.2737C89.4432 120.748 89.75 120.374 90.1941 120.088C90.6382 119.801 91.1387 119.658 91.6958 119.658C91.8008 119.658 91.932 119.66 92.0894 119.664C92.2469 119.668 92.366 119.674 92.4467 119.682V121.135C92.3983 121.123 92.2873 121.105 92.1137 121.081C91.9441 121.053 91.7645 121.038 91.5747 121.038C91.1226 121.038 90.7189 121.133 90.3636 121.323C90.0124 121.509 89.7339 121.767 89.528 122.098C89.3261 122.425 89.2252 122.799 89.2252 123.218V129.104H87.7961ZM95.4729 125.713L95.4487 123.945H95.7394L99.8086 119.803H101.577L97.2411 124.187H97.12L95.4729 125.713ZM94.1407 129.104V116.703H95.5698V129.104H94.1407ZM100.051 129.104L96.4176 124.502L97.4349 123.509L101.867 129.104H100.051ZM106.933 129.298C106.037 129.298 105.264 129.1 104.614 128.705C103.968 128.305 103.469 127.748 103.118 127.033C102.771 126.315 102.597 125.479 102.597 124.526C102.597 123.574 102.771 122.734 103.118 122.007C103.469 121.277 103.958 120.707 104.583 120.3C105.213 119.888 105.948 119.682 106.788 119.682C107.272 119.682 107.75 119.763 108.223 119.924C108.695 120.086 109.125 120.348 109.512 120.711C109.9 121.071 110.209 121.547 110.439 122.14C110.669 122.734 110.784 123.465 110.784 124.333V124.938H103.614V123.703H109.331C109.331 123.178 109.226 122.71 109.016 122.298C108.81 121.886 108.515 121.561 108.132 121.323C107.752 121.085 107.304 120.966 106.788 120.966C106.218 120.966 105.726 121.107 105.31 121.39C104.898 121.668 104.581 122.031 104.359 122.48C104.137 122.928 104.026 123.408 104.026 123.921V124.744C104.026 125.447 104.147 126.042 104.39 126.531C104.636 127.015 104.977 127.385 105.413 127.639C105.849 127.889 106.356 128.014 106.933 128.014C107.308 128.014 107.647 127.962 107.95 127.857C108.257 127.748 108.521 127.586 108.743 127.372C108.965 127.154 109.137 126.884 109.258 126.561L110.639 126.949C110.493 127.417 110.249 127.829 109.906 128.184C109.563 128.535 109.139 128.81 108.634 129.007C108.13 129.201 107.563 129.298 106.933 129.298ZM117.003 119.803V121.014H112.183V119.803H117.003ZM113.588 117.575H115.017V126.44C115.017 126.844 115.075 127.146 115.192 127.348C115.314 127.546 115.467 127.679 115.653 127.748C115.842 127.812 116.042 127.845 116.252 127.845C116.41 127.845 116.539 127.837 116.64 127.82C116.741 127.8 116.821 127.784 116.882 127.772L117.173 129.056C117.076 129.092 116.94 129.128 116.767 129.165C116.593 129.205 116.373 129.225 116.107 129.225C115.703 129.225 115.308 129.139 114.92 128.965C114.536 128.791 114.218 128.527 113.963 128.172C113.713 127.816 113.588 127.368 113.588 126.827V117.575Z" fill="#4F4E55"/>
<path d="M130.925 119.803C130.852 119.189 130.557 118.713 130.04 118.374C129.524 118.035 128.89 117.865 128.139 117.865C127.59 117.865 127.11 117.954 126.698 118.132C126.29 118.309 125.971 118.554 125.741 118.864C125.515 119.175 125.402 119.529 125.402 119.924C125.402 120.255 125.481 120.54 125.638 120.778C125.8 121.012 126.005 121.208 126.256 121.365C126.506 121.519 126.768 121.646 127.043 121.747C127.318 121.844 127.57 121.922 127.8 121.983L129.059 122.322C129.382 122.407 129.742 122.524 130.137 122.673C130.537 122.823 130.918 123.027 131.282 123.285C131.649 123.539 131.952 123.866 132.19 124.266C132.428 124.666 132.547 125.156 132.547 125.737C132.547 126.408 132.372 127.013 132.021 127.554C131.673 128.095 131.165 128.525 130.495 128.844C129.828 129.163 129.019 129.322 128.066 129.322C127.178 129.322 126.409 129.179 125.759 128.892C125.113 128.606 124.605 128.206 124.233 127.693C123.866 127.181 123.658 126.585 123.61 125.907H125.16C125.2 126.375 125.358 126.763 125.632 127.07C125.911 127.372 126.262 127.598 126.686 127.748C127.114 127.893 127.574 127.966 128.066 127.966C128.64 127.966 129.154 127.873 129.61 127.687C130.067 127.498 130.428 127.235 130.694 126.9C130.961 126.561 131.094 126.165 131.094 125.713C131.094 125.301 130.979 124.966 130.749 124.708C130.519 124.45 130.216 124.24 129.841 124.078C129.465 123.917 129.059 123.775 128.623 123.654L127.097 123.218C126.129 122.94 125.362 122.542 124.796 122.025C124.231 121.509 123.949 120.833 123.949 119.997C123.949 119.303 124.136 118.697 124.512 118.18C124.891 117.659 125.4 117.256 126.038 116.969C126.68 116.678 127.396 116.533 128.187 116.533C128.987 116.533 129.697 116.676 130.319 116.963C130.941 117.246 131.433 117.633 131.797 118.126C132.164 118.618 132.358 119.177 132.378 119.803H130.925ZM138.722 129.298C137.826 129.298 137.053 129.1 136.403 128.705C135.757 128.305 135.259 127.748 134.907 127.033C134.56 126.315 134.387 125.479 134.387 124.526C134.387 123.574 134.56 122.734 134.907 122.007C135.259 121.277 135.747 120.707 136.373 120.3C137.003 119.888 137.737 119.682 138.577 119.682C139.062 119.682 139.54 119.763 140.012 119.924C140.485 120.086 140.914 120.348 141.302 120.711C141.69 121.071 141.998 121.547 142.229 122.14C142.459 122.734 142.574 123.465 142.574 124.333V124.938H135.404V123.703H141.12C141.12 123.178 141.015 122.71 140.805 122.298C140.6 121.886 140.305 121.561 139.921 121.323C139.542 121.085 139.094 120.966 138.577 120.966C138.008 120.966 137.515 121.107 137.1 121.39C136.688 121.668 136.371 122.031 136.149 122.48C135.927 122.928 135.816 123.408 135.816 123.921V124.744C135.816 125.447 135.937 126.042 136.179 126.531C136.425 127.015 136.767 127.385 137.203 127.639C137.638 127.889 138.145 128.014 138.722 128.014C139.098 128.014 139.437 127.962 139.74 127.857C140.047 127.748 140.311 127.586 140.533 127.372C140.755 127.154 140.927 126.884 141.048 126.561L142.428 126.949C142.283 127.417 142.039 127.829 141.696 128.184C141.353 128.535 140.929 128.81 140.424 129.007C139.919 129.201 139.352 129.298 138.722 129.298ZM148.647 129.298C147.751 129.298 146.978 129.1 146.328 128.705C145.682 128.305 145.184 127.748 144.832 127.033C144.485 126.315 144.312 125.479 144.312 124.526C144.312 123.574 144.485 122.734 144.832 122.007C145.184 121.277 145.672 120.707 146.298 120.3C146.928 119.888 147.662 119.682 148.502 119.682C148.986 119.682 149.465 119.763 149.937 119.924C150.409 120.086 150.839 120.348 151.227 120.711C151.614 121.071 151.923 121.547 152.153 122.14C152.384 122.734 152.499 123.465 152.499 124.333V124.938H145.329V123.703H151.045C151.045 123.178 150.94 122.71 150.73 122.298C150.524 121.886 150.23 121.561 149.846 121.323C149.467 121.085 149.019 120.966 148.502 120.966C147.933 120.966 147.44 121.107 147.024 121.39C146.613 121.668 146.296 122.031 146.074 122.48C145.852 122.928 145.741 123.408 145.741 123.921V124.744C145.741 125.447 145.862 126.042 146.104 126.531C146.35 127.015 146.691 127.385 147.127 127.639C147.563 127.889 148.07 128.014 148.647 128.014C149.023 128.014 149.362 127.962 149.665 127.857C149.971 127.748 150.236 127.586 150.458 127.372C150.68 127.154 150.851 126.884 150.973 126.561L152.353 126.949C152.208 127.417 151.964 127.829 151.621 128.184C151.277 128.535 150.854 128.81 150.349 129.007C149.844 129.201 149.277 129.298 148.647 129.298ZM159.468 129.104V119.803H160.849V121.256H160.97C161.164 120.76 161.477 120.374 161.909 120.1C162.341 119.821 162.859 119.682 163.465 119.682C164.079 119.682 164.589 119.821 164.997 120.1C165.409 120.374 165.73 120.76 165.96 121.256H166.057C166.295 120.776 166.652 120.395 167.129 120.112C167.605 119.825 168.176 119.682 168.842 119.682C169.674 119.682 170.354 119.942 170.883 120.463C171.412 120.98 171.676 121.785 171.676 122.879V129.104H170.247V122.879C170.247 122.193 170.059 121.702 169.684 121.408C169.308 121.113 168.866 120.966 168.358 120.966C167.704 120.966 167.197 121.164 166.838 121.559C166.479 121.951 166.299 122.447 166.299 123.049V129.104H164.846V122.734C164.846 122.205 164.674 121.779 164.331 121.456C163.988 121.129 163.546 120.966 163.005 120.966C162.633 120.966 162.286 121.065 161.963 121.262C161.644 121.46 161.386 121.735 161.188 122.086C160.994 122.433 160.897 122.835 160.897 123.291V129.104H159.468ZM178.068 129.298C177.228 129.298 176.491 129.098 175.857 128.699C175.228 128.299 174.735 127.74 174.38 127.021C174.029 126.303 173.853 125.463 173.853 124.502C173.853 123.533 174.029 122.687 174.38 121.965C174.735 121.242 175.228 120.681 175.857 120.281C176.491 119.882 177.228 119.682 178.068 119.682C178.907 119.682 179.642 119.882 180.272 120.281C180.906 120.681 181.398 121.242 181.749 121.965C182.105 122.687 182.282 123.533 182.282 124.502C182.282 125.463 182.105 126.303 181.749 127.021C181.398 127.74 180.906 128.299 180.272 128.699C179.642 129.098 178.907 129.298 178.068 129.298ZM178.068 128.014C178.706 128.014 179.23 127.851 179.642 127.524C180.054 127.197 180.359 126.767 180.556 126.234C180.754 125.701 180.853 125.124 180.853 124.502C180.853 123.88 180.754 123.301 180.556 122.764C180.359 122.227 180.054 121.793 179.642 121.462C179.23 121.131 178.706 120.966 178.068 120.966C177.43 120.966 176.905 121.131 176.493 121.462C176.081 121.793 175.777 122.227 175.579 122.764C175.381 123.301 175.282 123.88 175.282 124.502C175.282 125.124 175.381 125.701 175.579 126.234C175.777 126.767 176.081 127.197 176.493 127.524C176.905 127.851 177.43 128.014 178.068 128.014ZM184.464 129.104V119.803H185.844V121.208H185.941C186.111 120.748 186.418 120.374 186.862 120.088C187.306 119.801 187.806 119.658 188.363 119.658C188.468 119.658 188.6 119.66 188.757 119.664C188.914 119.668 189.034 119.674 189.114 119.682V121.135C189.066 121.123 188.955 121.105 188.781 121.081C188.612 121.053 188.432 121.038 188.242 121.038C187.79 121.038 187.386 121.133 187.031 121.323C186.68 121.509 186.401 121.767 186.196 122.098C185.994 122.425 185.893 122.799 185.893 123.218V129.104H184.464ZM194.425 129.298C193.529 129.298 192.756 129.1 192.106 128.705C191.46 128.305 190.961 127.748 190.61 127.033C190.263 126.315 190.089 125.479 190.089 124.526C190.089 123.574 190.263 122.734 190.61 122.007C190.961 121.277 191.45 120.707 192.075 120.3C192.705 119.888 193.44 119.682 194.28 119.682C194.764 119.682 195.242 119.763 195.715 119.924C196.187 120.086 196.617 120.348 197.005 120.711C197.392 121.071 197.701 121.547 197.931 122.14C198.161 122.734 198.276 123.465 198.276 124.333V124.938H191.107V123.703H196.823C196.823 123.178 196.718 122.71 196.508 122.298C196.302 121.886 196.007 121.561 195.624 121.323C195.244 121.085 194.796 120.966 194.28 120.966C193.71 120.966 193.218 121.107 192.802 121.39C192.39 121.668 192.073 122.031 191.851 122.48C191.629 122.928 191.518 123.408 191.518 123.921V124.744C191.518 125.447 191.639 126.042 191.882 126.531C192.128 127.015 192.469 127.385 192.905 127.639C193.341 127.889 193.848 128.014 194.425 128.014C194.8 128.014 195.139 127.962 195.442 127.857C195.749 127.748 196.013 127.586 196.236 127.372C196.458 127.154 196.629 126.884 196.75 126.561L198.131 126.949C197.986 127.417 197.741 127.829 197.398 128.184C197.055 128.535 196.631 128.81 196.127 129.007C195.622 129.201 195.055 129.298 194.425 129.298Z" fill="#007AFF"/>
<path d="M15.6092 163.305V162.07L21.0591 153.447H21.9553V155.36H21.3497L17.232 161.876V161.973H24.5712V163.305H15.6092ZM21.4466 165.848V162.93V162.354V153.447H22.8757V165.848H21.4466ZM27.3234 165.945C27.0247 165.945 26.7684 165.838 26.5544 165.624C26.3404 165.41 26.2335 165.154 26.2335 164.855C26.2335 164.557 26.3404 164.3 26.5544 164.086C26.7684 163.872 27.0247 163.765 27.3234 163.765C27.6222 163.765 27.8785 163.872 28.0925 164.086C28.3064 164.3 28.4134 164.557 28.4134 164.855C28.4134 165.053 28.363 165.235 28.262 165.4C28.1651 165.566 28.0339 165.699 27.8684 165.8C27.707 165.897 27.5253 165.945 27.3234 165.945ZM34.6384 166.018C34.1298 166.01 33.6211 165.913 33.1124 165.727C32.6038 165.542 32.1395 165.229 31.7197 164.789C31.2998 164.345 30.9628 163.745 30.7084 162.99C30.4541 162.231 30.3269 161.279 30.3269 160.132C30.3269 159.034 30.4299 158.061 30.6358 157.213C30.8417 156.362 31.1404 155.645 31.532 155.064C31.9236 154.478 32.3959 154.034 32.9489 153.731C33.506 153.429 34.1338 153.277 34.8322 153.277C35.5265 153.277 36.1442 153.417 36.6852 153.695C37.2301 153.97 37.6742 154.353 38.0174 154.846C38.3605 155.338 38.5825 155.905 38.6835 156.547H37.2059C37.0687 155.99 36.8022 155.528 36.4066 155.161C36.011 154.793 35.4862 154.609 34.8322 154.609C33.8714 154.609 33.1145 155.027 32.5614 155.863C32.0124 156.699 31.7358 157.871 31.7318 159.381H31.8287C32.0548 159.038 32.3232 158.745 32.6341 158.503C32.9489 158.257 33.2961 158.067 33.6756 157.934C34.0551 157.801 34.4568 157.734 34.8806 157.734C35.5911 157.734 36.2411 157.912 36.8305 158.267C37.4199 158.618 37.8922 159.105 38.2475 159.726C38.6027 160.344 38.7803 161.052 38.7803 161.852C38.7803 162.619 38.6088 163.321 38.2656 163.959C37.9225 164.593 37.4401 165.098 36.8184 165.473C36.2007 165.844 35.4741 166.026 34.6384 166.018ZM34.6384 164.686C35.1471 164.686 35.6033 164.559 36.0069 164.304C36.4147 164.05 36.7356 163.709 36.9698 163.281C37.2079 162.853 37.327 162.377 37.327 161.852C37.327 161.339 37.212 160.873 36.9819 160.453C36.7558 160.029 36.4429 159.692 36.0433 159.442C35.6477 159.191 35.1955 159.066 34.6869 159.066C34.3033 159.066 33.9461 159.143 33.615 159.296C33.284 159.446 32.9934 159.652 32.7431 159.914C32.4968 160.176 32.303 160.477 32.1617 160.816C32.0204 161.151 31.9498 161.505 31.9498 161.876C31.9498 162.369 32.0649 162.829 32.295 163.257C32.5291 163.685 32.848 164.03 33.2517 164.292C33.6595 164.555 34.1217 164.686 34.6384 164.686Z" fill="#4F4E55"/>
<g clip-path="url(#clip0_526_4140)">
<path d="M61.5878 158.214H55.4863L53.5946 152.299L51.7029 158.214H45.6014L50.5306 161.864L48.6655 167.753L53.5946 164.103L58.5238 167.753L56.632 161.838L61.5878 158.214Z" fill="#FFCE31"/>
</g>
<g clip-path="url(#clip1_526_4140)">
<path d="M83.5081 158.214H77.4066L75.5149 152.299L73.6232 158.214H67.5217L72.4509 161.864L70.5858 167.753L75.5149 164.103L80.444 167.753L78.5523 161.838L83.5081 158.214Z" fill="#FFCE31"/>
</g>
<g clip-path="url(#clip2_526_4140)">
<path d="M105.432 158.214H99.3308L97.4391 152.299L95.5474 158.214H89.4459L94.3751 161.864L92.51 167.753L97.4391 164.103L102.368 167.753L100.477 161.838L105.432 158.214Z" fill="#FFCE31"/>
</g>
<g clip-path="url(#clip3_526_4140)">
<path d="M127.356 158.214H121.255L119.363 152.299L117.472 158.214H111.37L116.299 161.864L114.434 167.753L119.363 164.103L124.292 167.753L122.401 161.838L127.356 158.214Z" fill="#FFCE31"/>
</g>
<defs>
<clipPath id="clip0_526_4140">
<rect width="17.0521" height="17.0521" fill="white" transform="translate(45.0663 151.502)"/>
</clipPath>
<clipPath id="clip1_526_4140">
<rect width="17.0521" height="17.0521" fill="white" transform="translate(66.9905 151.502)"/>
</clipPath>
<clipPath id="clip2_526_4140">
<rect width="17.0521" height="17.0521" fill="white" transform="translate(88.9147 151.502)"/>
</clipPath>
<clipPath id="clip3_526_4140">
<rect width="17.0521" height="17.0521" fill="white" transform="translate(110.839 151.502)"/>
</clipPath>
</defs>
</svg>
