<svg width="476" height="55" viewBox="0 0 476 55" fill="none" xmlns="http://www.w3.org/2000/svg">
<rect width="475.024" height="54.4021" rx="14.6161" fill="#F5F5F5"/>
<path d="M6.09009 21.72C6.09009 13.6477 12.6339 7.10388 20.7062 7.10388H136.011C144.083 7.10388 150.627 13.6477 150.627 21.72V32.6821C150.627 40.7543 144.083 47.2982 136.011 47.2982H20.7062C12.6339 47.2982 6.09009 40.7543 6.09009 32.6821V21.72Z" fill="#007AFF"/>
<path d="M40.3779 30.7796H35.4157L34.5631 33.201H32.5339L36.7799 21.3328H39.0308L43.2768 33.201H41.2305L40.3779 30.7796ZM39.8322 29.1938L37.9053 23.686L35.9614 29.1938H39.8322ZM43.8659 28.4947C43.8659 27.5284 44.0592 26.6815 44.4457 25.9539C44.8436 25.215 45.3893 24.6466 46.0827 24.2487C46.7762 23.8508 47.5719 23.6519 48.47 23.6519C49.6068 23.6519 50.5447 23.9247 51.2836 24.4704C52.0339 25.0047 52.5398 25.772 52.8013 26.7724H50.7038C50.5333 26.3063 50.2605 25.9425 49.8853 25.6811C49.5102 25.4196 49.0384 25.2889 48.47 25.2889C47.6742 25.2889 47.0376 25.5731 46.5602 26.1415C46.0941 26.6985 45.861 27.4829 45.861 28.4947C45.861 29.5064 46.0941 30.2965 46.5602 30.8649C47.0376 31.4333 47.6742 31.7175 48.47 31.7175C49.5955 31.7175 50.3401 31.223 50.7038 30.234H52.8013C52.5284 31.1889 52.0169 31.9506 51.2666 32.519C50.5163 33.076 49.5841 33.3545 48.47 33.3545C47.5719 33.3545 46.7762 33.1556 46.0827 32.7577C45.3893 32.3484 44.8436 31.78 44.4457 31.0525C44.0592 30.3136 43.8659 29.4609 43.8659 28.4947ZM56.3975 25.3912V30.5921C56.3975 30.9445 56.477 31.2003 56.6362 31.3594C56.8067 31.5072 57.0909 31.5811 57.4888 31.5811H58.6825V33.201H57.1478C56.2724 33.201 55.6017 32.9964 55.1356 32.5872C54.6695 32.1779 54.4365 31.5129 54.4365 30.5921V25.3912H53.3281V23.8053H54.4365V21.4692H56.3975V23.8053H58.6825V25.3912H56.3975ZM60.8541 22.5605C60.5017 22.5605 60.2062 22.4412 59.9674 22.2024C59.7287 21.9637 59.6093 21.6681 59.6093 21.3157C59.6093 20.9633 59.7287 20.6677 59.9674 20.429C60.2062 20.1903 60.5017 20.0709 60.8541 20.0709C61.1952 20.0709 61.4851 20.1903 61.7238 20.429C61.9625 20.6677 62.0819 20.9633 62.0819 21.3157C62.0819 21.6681 61.9625 21.9637 61.7238 22.2024C61.4851 22.4412 61.1952 22.5605 60.8541 22.5605ZM61.8091 23.8053V33.201H59.8651V23.8053H61.8091ZM67.3844 31.4617L70.0445 23.8053H72.1078L68.5269 33.201H66.2078L62.6439 23.8053H64.7243L67.3844 31.4617ZM81.5796 28.273C81.5796 28.6254 81.5568 28.9437 81.5114 29.2279H74.3324C74.3892 29.9782 74.6678 30.5807 75.168 31.0354C75.6682 31.4902 76.282 31.7175 77.0096 31.7175C78.0555 31.7175 78.7944 31.2798 79.2264 30.4045H81.3238C81.0396 31.2685 80.5223 31.979 79.772 32.536C79.0331 33.0817 78.1123 33.3545 77.0096 33.3545C76.1115 33.3545 75.3044 33.1556 74.5882 32.7577C73.8834 32.3484 73.3263 31.78 72.9171 31.0525C72.5192 30.3136 72.3203 29.4609 72.3203 28.4947C72.3203 27.5284 72.5135 26.6815 72.9 25.9539C73.2979 25.215 73.8493 24.6466 74.5541 24.2487C75.2703 23.8508 76.0888 23.6519 77.0096 23.6519C77.8963 23.6519 78.6864 23.8451 79.3798 24.2316C80.0733 24.6181 80.6133 25.1638 80.9998 25.8686C81.3863 26.5621 81.5796 27.3635 81.5796 28.273ZM79.5504 27.6591C79.539 26.9429 79.2832 26.3688 78.783 25.9368C78.2828 25.5049 77.6633 25.2889 76.9243 25.2889C76.2536 25.2889 75.6795 25.5049 75.2021 25.9368C74.7246 26.3575 74.4404 26.9315 74.3495 27.6591H79.5504ZM93.1669 21.3498V29.8929C93.1669 30.9502 92.8429 31.7857 92.1949 32.3996C91.5583 33.0135 90.7171 33.3204 89.6712 33.3204C88.6254 33.3204 87.7784 33.0135 87.1305 32.3996C86.4938 31.7857 86.1755 30.9502 86.1755 29.8929H88.1365C88.1479 30.4159 88.2786 30.8308 88.5287 31.1377C88.7902 31.4447 89.171 31.5981 89.6712 31.5981C90.1714 31.5981 90.5522 31.4447 90.8137 31.1377C91.0752 30.8194 91.2059 30.4045 91.2059 29.8929V21.3498H93.1669ZM99.7957 33.3545C98.909 33.3545 98.1076 33.1556 97.3914 32.7577C96.6752 32.3484 96.1125 31.78 95.7032 31.0525C95.294 30.3136 95.0893 29.4609 95.0893 28.4947C95.0893 27.5397 95.2997 26.6928 95.7203 25.9539C96.1409 25.215 96.715 24.6466 97.4425 24.2487C98.1701 23.8508 98.9829 23.6519 99.881 23.6519C100.779 23.6519 101.592 23.8508 102.319 24.2487C103.047 24.6466 103.621 25.215 104.042 25.9539C104.462 26.6928 104.673 27.5397 104.673 28.4947C104.673 29.4496 104.457 30.2965 104.025 31.0354C103.593 31.7744 103.002 32.3484 102.251 32.7577C101.512 33.1556 100.694 33.3545 99.7957 33.3545ZM99.7957 31.6664C100.296 31.6664 100.762 31.547 101.194 31.3083C101.637 31.0695 101.995 30.7114 102.268 30.234C102.541 29.7565 102.678 29.1767 102.678 28.4947C102.678 27.8126 102.547 27.2385 102.285 26.7724C102.024 26.2949 101.677 25.9368 101.245 25.6981C100.813 25.4594 100.347 25.34 99.8469 25.34C99.3467 25.34 98.8806 25.4594 98.4486 25.6981C98.028 25.9368 97.6926 26.2949 97.4425 26.7724C97.1924 27.2385 97.0674 27.8126 97.0674 28.4947C97.0674 29.5064 97.3232 30.2908 97.8347 30.8479C98.3577 31.3935 99.0113 31.6664 99.7957 31.6664ZM107.929 25.2036C108.259 24.7489 108.708 24.3794 109.276 24.0952C109.856 23.7996 110.498 23.6519 111.203 23.6519C112.033 23.6519 112.783 23.8508 113.454 24.2487C114.125 24.6466 114.653 25.215 115.04 25.9539C115.427 26.6815 115.62 27.517 115.62 28.4606C115.62 29.4041 115.427 30.251 115.04 31.0013C114.653 31.7403 114.119 32.32 113.437 32.7406C112.766 33.1499 112.022 33.3545 111.203 33.3545C110.476 33.3545 109.828 33.2124 109.259 32.9282C108.702 32.644 108.259 32.2802 107.929 31.8369V33.201H105.985V20.5825H107.929V25.2036ZM113.642 28.4606C113.642 27.8126 113.505 27.2555 113.232 26.7894C112.971 26.312 112.619 25.9539 112.175 25.7152C111.743 25.4651 111.277 25.34 110.777 25.34C110.288 25.34 109.822 25.4651 109.379 25.7152C108.947 25.9653 108.594 26.329 108.321 26.8065C108.06 27.284 107.929 27.8467 107.929 28.4947C107.929 29.1426 108.06 29.711 108.321 30.1999C108.594 30.6773 108.947 31.0411 109.379 31.2912C109.822 31.5413 110.288 31.6664 110.777 31.6664C111.277 31.6664 111.743 31.5413 112.175 31.2912C112.619 31.0297 112.971 30.6546 113.232 30.1658C113.505 29.6769 113.642 29.1085 113.642 28.4606ZM120.344 33.3545C119.605 33.3545 118.94 33.2238 118.348 32.9623C117.769 32.6895 117.308 32.3257 116.967 31.871C116.626 31.4049 116.444 30.8876 116.422 30.3192H118.434C118.468 30.7171 118.655 31.0525 118.996 31.3253C119.349 31.5868 119.787 31.7175 120.309 31.7175C120.855 31.7175 121.276 31.6152 121.571 31.4106C121.878 31.1946 122.032 30.9217 122.032 30.5921C122.032 30.2397 121.861 29.9782 121.52 29.8077C121.19 29.6372 120.662 29.4496 119.934 29.245C119.229 29.0517 118.655 28.8641 118.212 28.6822C117.769 28.5003 117.382 28.2218 117.053 27.8467C116.734 27.4715 116.575 26.977 116.575 26.3631C116.575 25.8629 116.723 25.4082 117.018 24.999C117.314 24.5784 117.735 24.2487 118.28 24.01C118.837 23.7712 119.474 23.6519 120.19 23.6519C121.259 23.6519 122.117 23.9247 122.765 24.4704C123.424 25.0047 123.777 25.7379 123.822 26.6701H121.878C121.844 26.2495 121.674 25.9141 121.367 25.664C121.06 25.4139 120.645 25.2889 120.122 25.2889C119.61 25.2889 119.218 25.3855 118.945 25.5787C118.672 25.772 118.536 26.0278 118.536 26.3461C118.536 26.5962 118.627 26.8065 118.809 26.977C118.991 27.1475 119.212 27.284 119.474 27.3863C119.735 27.4772 120.122 27.5966 120.633 27.7444C121.316 27.9263 121.873 28.1138 122.305 28.3071C122.748 28.489 123.129 28.7618 123.447 29.1256C123.765 29.4894 123.93 29.9725 123.942 30.575C123.942 31.1093 123.794 31.5868 123.498 32.0074C123.203 32.428 122.782 32.7577 122.236 32.9964C121.702 33.2352 121.071 33.3545 120.344 33.3545Z" fill="white"/>
<path d="M196.849 30.558H191.666L190.711 33.201H189.074L193.371 21.3839H195.161L199.441 33.201H197.804L196.849 30.558ZM196.406 29.2961L194.257 23.2938L192.109 29.2961H196.406ZM202.561 25.5787C202.868 25.0444 203.323 24.6011 203.926 24.2487C204.539 23.8849 205.25 23.703 206.057 23.703C206.887 23.703 207.637 23.902 208.308 24.2998C208.99 24.6977 209.524 25.2604 209.911 25.988C210.297 26.7042 210.491 27.5397 210.491 28.4947C210.491 29.4382 210.297 30.2795 209.911 31.0184C209.524 31.7573 208.99 32.3314 208.308 32.7406C207.637 33.1499 206.887 33.3545 206.057 33.3545C205.261 33.3545 204.556 33.1783 203.943 32.8259C203.34 32.4621 202.88 32.0131 202.561 31.4788V37.6346H201.01V23.8565H202.561V25.5787ZM208.905 28.4947C208.905 27.7898 208.763 27.176 208.478 26.653C208.194 26.1301 207.808 25.7322 207.319 25.4594C206.841 25.1865 206.313 25.0501 205.733 25.0501C205.165 25.0501 204.636 25.1922 204.147 25.4764C203.67 25.7493 203.283 26.1528 202.988 26.6871C202.703 27.2101 202.561 27.8183 202.561 28.5117C202.561 29.2165 202.703 29.8361 202.988 30.3704C203.283 30.8933 203.67 31.2969 204.147 31.5811C204.636 31.8539 205.165 31.9903 205.733 31.9903C206.313 31.9903 206.841 31.8539 207.319 31.5811C207.808 31.2969 208.194 30.8933 208.478 30.3704C208.763 29.8361 208.905 29.2109 208.905 28.4947ZM213.78 25.5787C214.087 25.0444 214.542 24.6011 215.145 24.2487C215.758 23.8849 216.469 23.703 217.276 23.703C218.106 23.703 218.856 23.902 219.527 24.2998C220.209 24.6977 220.743 25.2604 221.13 25.988C221.516 26.7042 221.71 27.5397 221.71 28.4947C221.71 29.4382 221.516 30.2795 221.13 31.0184C220.743 31.7573 220.209 32.3314 219.527 32.7406C218.856 33.1499 218.106 33.3545 217.276 33.3545C216.48 33.3545 215.775 33.1783 215.162 32.8259C214.559 32.4621 214.099 32.0131 213.78 31.4788V37.6346H212.229V23.8565H213.78V25.5787ZM220.124 28.4947C220.124 27.7898 219.982 27.176 219.697 26.653C219.413 26.1301 219.027 25.7322 218.538 25.4594C218.06 25.1865 217.532 25.0501 216.952 25.0501C216.384 25.0501 215.855 25.1922 215.366 25.4764C214.889 25.7493 214.502 26.1528 214.207 26.6871C213.922 27.2101 213.78 27.8183 213.78 28.5117C213.78 29.2165 213.922 29.8361 214.207 30.3704C214.502 30.8933 214.889 31.2969 215.366 31.5811C215.855 31.8539 216.384 31.9903 216.952 31.9903C217.532 31.9903 218.06 31.8539 218.538 31.5811C219.027 31.2969 219.413 30.8933 219.697 30.3704C219.982 29.8361 220.124 29.2109 220.124 28.4947ZM224.999 20.5825V33.201H223.448V20.5825H224.999ZM228.141 22.3388C227.845 22.3388 227.595 22.2365 227.391 22.0319C227.186 21.8273 227.084 21.5772 227.084 21.2816C227.084 20.986 227.186 20.7359 227.391 20.5313C227.595 20.3267 227.845 20.2244 228.141 20.2244C228.425 20.2244 228.664 20.3267 228.857 20.5313C229.062 20.7359 229.164 20.986 229.164 21.2816C229.164 21.5772 229.062 21.8273 228.857 22.0319C228.664 22.2365 228.425 22.3388 228.141 22.3388ZM228.891 23.8565V33.201H227.34V23.8565H228.891ZM239.758 28.1707C239.758 28.4662 239.74 28.7789 239.706 29.1085H232.238C232.294 30.0294 232.607 30.7512 233.175 31.2742C233.755 31.7857 234.454 32.0415 235.273 32.0415C235.944 32.0415 236.501 31.888 236.944 31.5811C237.399 31.2628 237.717 30.8422 237.899 30.3192H239.57C239.32 31.2173 238.82 31.9506 238.069 32.519C237.319 33.076 236.387 33.3545 235.273 33.3545C234.386 33.3545 233.59 33.1556 232.886 32.7577C232.192 32.3598 231.646 31.7971 231.249 31.0695C230.851 30.3306 230.652 29.478 230.652 28.5117C230.652 27.5454 230.845 26.6985 231.231 25.9709C231.618 25.2434 232.158 24.6864 232.851 24.2998C233.556 23.902 234.363 23.703 235.273 23.703C236.16 23.703 236.944 23.8963 237.626 24.2828C238.308 24.6693 238.831 25.2036 239.195 25.8857C239.57 26.5564 239.758 27.3181 239.758 28.1707ZM238.155 27.8467C238.155 27.2555 238.024 26.7497 237.762 26.329C237.501 25.8971 237.143 25.5731 236.688 25.3571C236.245 25.1297 235.75 25.016 235.205 25.016C234.42 25.016 233.749 25.2661 233.192 25.7663C232.647 26.2665 232.334 26.96 232.255 27.8467H238.155ZM240.921 28.4947C240.921 27.5397 241.115 26.7042 241.501 25.988C241.888 25.2604 242.416 24.6977 243.087 24.2998C243.769 23.902 244.531 23.703 245.372 23.703C246.1 23.703 246.776 23.8735 247.401 24.2146C248.027 24.5443 248.504 24.9819 248.834 25.5276V20.5825H250.402V33.201H248.834V31.4447C248.527 32.0017 248.072 32.4621 247.47 32.8259C246.867 33.1783 246.162 33.3545 245.355 33.3545C244.525 33.3545 243.769 33.1499 243.087 32.7406C242.416 32.3314 241.888 31.7573 241.501 31.0184C241.115 30.2795 240.921 29.4382 240.921 28.4947ZM248.834 28.5117C248.834 27.8069 248.692 27.193 248.407 26.6701C248.123 26.1472 247.737 25.7493 247.248 25.4764C246.77 25.1922 246.242 25.0501 245.662 25.0501C245.082 25.0501 244.554 25.1865 244.076 25.4594C243.599 25.7322 243.218 26.1301 242.934 26.653C242.649 27.176 242.507 27.7898 242.507 28.4947C242.507 29.2109 242.649 29.8361 242.934 30.3704C243.218 30.8933 243.599 31.2969 244.076 31.5811C244.554 31.8539 245.082 31.9903 245.662 31.9903C246.242 31.9903 246.77 31.8539 247.248 31.5811C247.737 31.2969 248.123 30.8933 248.407 30.3704C248.692 29.8361 248.834 29.2165 248.834 28.5117ZM262.947 21.3157V30.0976C262.947 31.0752 262.646 31.8596 262.043 32.4508C261.441 33.0305 260.645 33.3204 259.656 33.3204C258.656 33.3204 257.854 33.0248 257.252 32.4337C256.649 31.8312 256.348 31.0127 256.348 29.9782H257.9C257.911 30.558 258.059 31.0297 258.343 31.3935C258.639 31.7573 259.076 31.9392 259.656 31.9392C260.236 31.9392 260.668 31.7687 260.952 31.4276C261.236 31.0752 261.378 30.6319 261.378 30.0976V21.3157H262.947ZM269.775 33.3545C268.9 33.3545 268.104 33.1556 267.388 32.7577C266.683 32.3598 266.126 31.7971 265.717 31.0695C265.319 30.3306 265.12 29.478 265.12 28.5117C265.12 27.5568 265.325 26.7156 265.734 25.988C266.154 25.2491 266.723 24.6864 267.439 24.2998C268.155 23.902 268.957 23.703 269.843 23.703C270.73 23.703 271.532 23.902 272.248 24.2998C272.964 24.6864 273.527 25.2434 273.936 25.9709C274.356 26.6985 274.567 27.5454 274.567 28.5117C274.567 29.478 274.351 30.3306 273.919 31.0695C273.498 31.7971 272.924 32.3598 272.197 32.7577C271.469 33.1556 270.662 33.3545 269.775 33.3545ZM269.775 31.9903C270.332 31.9903 270.855 31.8596 271.344 31.5981C271.833 31.3367 272.225 30.9445 272.521 30.4216C272.827 29.8986 272.981 29.262 272.981 28.5117C272.981 27.7614 272.833 27.1248 272.538 26.6019C272.242 26.0789 271.856 25.6924 271.378 25.4423C270.901 25.1809 270.383 25.0501 269.826 25.0501C269.258 25.0501 268.735 25.1809 268.258 25.4423C267.791 25.6924 267.416 26.0789 267.132 26.6019C266.848 27.1248 266.706 27.7614 266.706 28.5117C266.706 29.2734 266.842 29.9157 267.115 30.4386C267.399 30.9615 267.774 31.3537 268.24 31.6152C268.707 31.8653 269.218 31.9903 269.775 31.9903ZM277.854 25.5958C278.173 25.0388 278.639 24.584 279.253 24.2316C279.866 23.8792 280.566 23.703 281.35 23.703C282.191 23.703 282.947 23.902 283.618 24.2998C284.289 24.6977 284.817 25.2604 285.204 25.988C285.59 26.7042 285.784 27.5397 285.784 28.4947C285.784 29.4382 285.59 30.2795 285.204 31.0184C284.817 31.7573 284.283 32.3314 283.601 32.7406C282.93 33.1499 282.18 33.3545 281.35 33.3545C280.543 33.3545 279.832 33.1783 279.218 32.8259C278.616 32.4735 278.161 32.0245 277.854 31.4788V33.201H276.303V20.5825H277.854V25.5958ZM284.198 28.4947C284.198 27.7898 284.056 27.176 283.771 26.653C283.487 26.1301 283.101 25.7322 282.612 25.4594C282.134 25.1865 281.606 25.0501 281.026 25.0501C280.458 25.0501 279.929 25.1922 279.44 25.4764C278.963 25.7493 278.576 26.1528 278.281 26.6871C277.996 27.2101 277.854 27.8183 277.854 28.5117C277.854 29.2165 277.996 29.8361 278.281 30.3704C278.576 30.8933 278.963 31.2969 279.44 31.5811C279.929 31.8539 280.458 31.9903 281.026 31.9903C281.606 31.9903 282.134 31.8539 282.612 31.5811C283.101 31.2969 283.487 30.8933 283.771 30.3704C284.056 29.8361 284.198 29.2109 284.198 28.4947Z" fill="#333333"/>
<path d="M354.059 33.3204C353.275 33.3204 352.57 33.184 351.945 32.9112C351.331 32.627 350.848 32.2404 350.495 31.7516C350.143 31.2514 349.961 30.6773 349.949 30.0294H351.604C351.66 30.5864 351.888 31.0582 352.286 31.4447C352.695 31.8198 353.286 32.0074 354.059 32.0074C354.798 32.0074 355.378 31.8255 355.798 31.4617C356.23 31.0866 356.446 30.6091 356.446 30.0294C356.446 29.5746 356.321 29.2052 356.071 28.921C355.821 28.6368 355.508 28.4208 355.133 28.273C354.758 28.1252 354.252 27.966 353.616 27.7955C352.831 27.5909 352.2 27.3863 351.723 27.1816C351.257 26.977 350.853 26.6587 350.512 26.2267C350.182 25.7834 350.018 25.1922 350.018 24.4533C350.018 23.8053 350.182 23.2312 350.512 22.731C350.842 22.2308 351.302 21.8443 351.893 21.5715C352.496 21.2987 353.184 21.1622 353.957 21.1622C355.071 21.1622 355.98 21.4408 356.685 21.9978C357.401 22.5548 357.805 23.2938 357.896 24.2146H356.191C356.134 23.7599 355.895 23.362 355.474 23.0209C355.054 22.6685 354.497 22.4923 353.803 22.4923C353.155 22.4923 352.627 22.6628 352.217 23.0039C351.808 23.3335 351.604 23.7996 351.604 24.4021C351.604 24.8341 351.723 25.1865 351.962 25.4594C352.212 25.7322 352.513 25.9425 352.865 26.0903C353.229 26.2267 353.735 26.3859 354.383 26.5678C355.167 26.7838 355.798 26.9998 356.276 27.2158C356.753 27.4204 357.163 27.7444 357.504 28.1877C357.845 28.6197 358.015 29.2109 358.015 29.9611C358.015 30.5409 357.862 31.0866 357.555 31.5981C357.248 32.1097 356.793 32.5246 356.191 32.843C355.588 33.1613 354.878 33.3204 354.059 33.3204ZM359.414 28.4947C359.414 27.5397 359.608 26.7042 359.994 25.988C360.381 25.2604 360.909 24.6977 361.58 24.2998C362.262 23.902 363.018 23.703 363.848 23.703C364.666 23.703 365.377 23.8792 365.979 24.2316C366.582 24.584 367.031 25.0274 367.327 25.5617V23.8565H368.895V33.201H367.327V31.4617C367.02 32.0074 366.559 32.4621 365.945 32.8259C365.343 33.1783 364.638 33.3545 363.831 33.3545C363.001 33.3545 362.251 33.1499 361.58 32.7406C360.909 32.3314 360.381 31.7573 359.994 31.0184C359.608 30.2795 359.414 29.4382 359.414 28.4947ZM367.327 28.5117C367.327 27.8069 367.184 27.193 366.9 26.6701C366.616 26.1472 366.23 25.7493 365.741 25.4764C365.263 25.1922 364.735 25.0501 364.155 25.0501C363.575 25.0501 363.046 25.1865 362.569 25.4594C362.092 25.7322 361.711 26.1301 361.427 26.653C361.142 27.176 361 27.7898 361 28.4947C361 29.2109 361.142 29.8361 361.427 30.3704C361.711 30.8933 362.092 31.2969 362.569 31.5811C363.046 31.8539 363.575 31.9903 364.155 31.9903C364.735 31.9903 365.263 31.8539 365.741 31.5811C366.23 31.2969 366.616 30.8933 366.9 30.3704C367.184 29.8361 367.327 29.2165 367.327 28.5117ZM374.692 31.7687L377.591 23.8565H379.245L375.578 33.201H373.771L370.105 23.8565H371.776L374.692 31.7687ZM388.993 28.1707C388.993 28.4662 388.976 28.7789 388.942 29.1085H381.473C381.53 30.0294 381.843 30.7512 382.411 31.2742C382.991 31.7857 383.69 32.0415 384.509 32.0415C385.179 32.0415 385.736 31.888 386.18 31.5811C386.634 31.2628 386.953 30.8422 387.135 30.3192H388.806C388.556 31.2173 388.055 31.9506 387.305 32.519C386.555 33.076 385.623 33.3545 384.509 33.3545C383.622 33.3545 382.826 33.1556 382.121 32.7577C381.428 32.3598 380.882 31.7971 380.484 31.0695C380.086 30.3306 379.887 29.478 379.887 28.5117C379.887 27.5454 380.081 26.6985 380.467 25.9709C380.854 25.2434 381.394 24.6864 382.087 24.2998C382.792 23.902 383.599 23.703 384.509 23.703C385.395 23.703 386.18 23.8963 386.862 24.2828C387.544 24.6693 388.067 25.2036 388.431 25.8857C388.806 26.5564 388.993 27.3181 388.993 28.1707ZM387.39 27.8467C387.39 27.2555 387.26 26.7497 386.998 26.329C386.737 25.8971 386.379 25.5731 385.924 25.3571C385.48 25.1297 384.986 25.016 384.44 25.016C383.656 25.016 382.985 25.2661 382.428 25.7663C381.882 26.2665 381.57 26.96 381.49 27.8467H387.39ZM390.157 28.4947C390.157 27.5397 390.35 26.7042 390.737 25.988C391.123 25.2604 391.652 24.6977 392.323 24.2998C393.005 23.902 393.767 23.703 394.608 23.703C395.335 23.703 396.012 23.8735 396.637 24.2146C397.262 24.5443 397.74 24.9819 398.069 25.5276V20.5825H399.638V33.201H398.069V31.4447C397.762 32.0017 397.308 32.4621 396.705 32.8259C396.103 33.1783 395.398 33.3545 394.591 33.3545C393.761 33.3545 393.005 33.1499 392.323 32.7406C391.652 32.3314 391.123 31.7573 390.737 31.0184C390.35 30.2795 390.157 29.4382 390.157 28.4947ZM398.069 28.5117C398.069 27.8069 397.927 27.193 397.643 26.6701C397.359 26.1472 396.972 25.7493 396.484 25.4764C396.006 25.1922 395.477 25.0501 394.898 25.0501C394.318 25.0501 393.789 25.1865 393.312 25.4594C392.834 25.7322 392.454 26.1301 392.169 26.653C391.885 27.176 391.743 27.7898 391.743 28.4947C391.743 29.2109 391.885 29.8361 392.169 30.3704C392.454 30.8933 392.834 31.2969 393.312 31.5811C393.789 31.8539 394.318 31.9903 394.898 31.9903C395.477 31.9903 396.006 31.8539 396.484 31.5811C396.972 31.2969 397.359 30.8933 397.643 30.3704C397.927 29.8361 398.069 29.2165 398.069 28.5117ZM412.183 21.3157V30.0976C412.183 31.0752 411.882 31.8596 411.279 32.4508C410.677 33.0305 409.881 33.3204 408.892 33.3204C407.891 33.3204 407.09 33.0248 406.487 32.4337C405.885 31.8312 405.584 31.0127 405.584 29.9782H407.135C407.147 30.558 407.295 31.0297 407.579 31.3935C407.874 31.7573 408.312 31.9392 408.892 31.9392C409.472 31.9392 409.904 31.7687 410.188 31.4276C410.472 31.0752 410.614 30.6319 410.614 30.0976V21.3157H412.183ZM419.011 33.3545C418.136 33.3545 417.34 33.1556 416.624 32.7577C415.919 32.3598 415.362 31.7971 414.952 31.0695C414.555 30.3306 414.356 29.478 414.356 28.5117C414.356 27.5568 414.56 26.7156 414.969 25.988C415.39 25.2491 415.959 24.6864 416.675 24.2998C417.391 23.902 418.192 23.703 419.079 23.703C419.966 23.703 420.767 23.902 421.483 24.2998C422.2 24.6864 422.762 25.2434 423.172 25.9709C423.592 26.6985 423.802 27.5454 423.802 28.5117C423.802 29.478 423.587 30.3306 423.155 31.0695C422.734 31.7971 422.16 32.3598 421.432 32.7577C420.705 33.1556 419.898 33.3545 419.011 33.3545ZM419.011 31.9903C419.568 31.9903 420.091 31.8596 420.58 31.5981C421.068 31.3367 421.461 30.9445 421.756 30.4216C422.063 29.8986 422.217 29.262 422.217 28.5117C422.217 27.7614 422.069 27.1248 421.773 26.6019C421.478 26.0789 421.091 25.6924 420.614 25.4423C420.136 25.1809 419.619 25.0501 419.062 25.0501C418.494 25.0501 417.971 25.1809 417.493 25.4423C417.027 25.6924 416.652 26.0789 416.368 26.6019C416.084 27.1248 415.941 27.7614 415.941 28.5117C415.941 29.2734 416.078 29.9157 416.351 30.4386C416.635 30.9615 417.01 31.3537 417.476 31.6152C417.942 31.8653 418.454 31.9903 419.011 31.9903ZM427.09 25.5958C427.408 25.0388 427.874 24.584 428.488 24.2316C429.102 23.8792 429.801 23.703 430.586 23.703C431.427 23.703 432.183 23.902 432.854 24.2998C433.524 24.6977 434.053 25.2604 434.439 25.988C434.826 26.7042 435.019 27.5397 435.019 28.4947C435.019 29.4382 434.826 30.2795 434.439 31.0184C434.053 31.7573 433.519 32.3314 432.837 32.7406C432.166 33.1499 431.416 33.3545 430.586 33.3545C429.779 33.3545 429.068 33.1783 428.454 32.8259C427.852 32.4735 427.397 32.0245 427.09 31.4788V33.201H425.538V20.5825H427.09V25.5958ZM433.433 28.4947C433.433 27.7898 433.291 27.176 433.007 26.653C432.723 26.1301 432.336 25.7322 431.848 25.4594C431.37 25.1865 430.841 25.0501 430.262 25.0501C429.693 25.0501 429.165 25.1922 428.676 25.4764C428.198 25.7493 427.812 26.1528 427.516 26.6871C427.232 27.2101 427.09 27.8183 427.09 28.5117C427.09 29.2165 427.232 29.8361 427.516 30.3704C427.812 30.8933 428.198 31.2969 428.676 31.5811C429.165 31.8539 429.693 31.9903 430.262 31.9903C430.841 31.9903 431.37 31.8539 431.848 31.5811C432.336 31.2969 432.723 30.8933 433.007 30.3704C433.291 29.8361 433.433 29.2109 433.433 28.4947ZM440.065 33.3545C439.349 33.3545 438.707 33.2352 438.138 32.9964C437.57 32.7463 437.121 32.4053 436.791 31.9733C436.462 31.5299 436.28 31.0241 436.246 30.4557H437.849C437.894 30.9217 438.11 31.3026 438.497 31.5981C438.894 31.8937 439.412 32.0415 440.048 32.0415C440.639 32.0415 441.106 31.9108 441.447 31.6493C441.788 31.3878 441.958 31.0582 441.958 30.6603C441.958 30.251 441.776 29.9498 441.413 29.7565C441.049 29.5519 440.486 29.353 439.724 29.1597C439.031 28.9778 438.462 28.7959 438.019 28.614C437.587 28.4208 437.212 28.1423 436.894 27.7785C436.587 27.4033 436.433 26.9145 436.433 26.312C436.433 25.8345 436.575 25.3969 436.86 24.999C437.144 24.6011 437.547 24.2885 438.07 24.0611C438.593 23.8224 439.19 23.703 439.861 23.703C440.895 23.703 441.731 23.9645 442.367 24.4874C443.004 25.0103 443.345 25.7265 443.391 26.636H441.839C441.805 26.1472 441.606 25.755 441.242 25.4594C440.89 25.1638 440.412 25.016 439.81 25.016C439.253 25.016 438.809 25.1354 438.48 25.3741C438.15 25.6129 437.985 25.9255 437.985 26.312C437.985 26.6189 438.082 26.8747 438.275 27.0793C438.48 27.2726 438.73 27.4317 439.025 27.5568C439.332 27.6705 439.753 27.8012 440.287 27.949C440.958 28.1309 441.503 28.3128 441.924 28.4947C442.345 28.6652 442.703 28.9266 442.998 29.2791C443.305 29.6315 443.464 30.0919 443.476 30.6603C443.476 31.1718 443.334 31.6323 443.05 32.0415C442.765 32.4508 442.362 32.7747 441.839 33.0135C441.327 33.2408 440.736 33.3545 440.065 33.3545Z" fill="#333333"/>
</svg>
