<svg width="2044" height="1049" viewBox="0 0 2044 1049" fill="none" xmlns="http://www.w3.org/2000/svg">
<rect width="2043.21" height="1045.02" fill="#007AFF"/>
<g clip-path="url(#clip0_553_7211)">
<path d="M170.992 -587.321C-411.889 -785.548 -53.8571 1000.55 -354.347 -508.388C-355.811 -515.743 -354.9 -523.973 -351.499 -530.312L246.862 -1645.25C253.554 -1657.72 267.971 -1663.47 281.921 -1659.22L2222.39 -1068.85C2230.74 -1066.31 2237.92 -1060.46 2242.27 -1052.66L2731.7 -174.838C2735.98 -167.166 2737.16 -158.253 2734.97 -150.102L2408.5 1064.17C2406.9 1070.12 2403.59 1075.35 2398.97 1079.21L1762.31 1612.03C1736.92 1633.29 1697.71 1602.22 1710.82 1571.23C1889.35 1149 2197.16 240.639 1392.99 351.097C261.692 506.489 1093.01 -273.761 170.992 -587.321Z" fill="url(#paint0_linear_553_7211)" fill-opacity="0.12"/>
<path d="M-100.131 -20.5127C-703.936 -7.96592 34.6703 1583.37 -587.421 238.264C-590.449 231.716 -591.391 223.504 -589.526 216.238L-260.977 -1063.35C-257.302 -1077.66 -244.707 -1088.2 -230.352 -1088.99L1764.36 -1197.57C1772.95 -1198.04 1781.15 -1194.92 1787.05 -1188.94L2451.23 -516.007C2457.03 -510.131 2460.13 -501.987 2459.83 -493.403L2414.4 788.134C2414.21 793.65 2412.62 799.105 2409.78 803.971L2035.38 1446.82C2016.99 1478.38 1965.72 1462.42 1969.85 1426.7C2023.94 959.245 2011.92 78.3681 1281.25 455.504C228.674 998.787 854.978 -40.3596 -100.131 -20.5127Z" fill="url(#paint1_linear_553_7211)" fill-opacity="0.12"/>
<path d="M-133.507 511.72C-718.849 697.609 290.063 2033.65 -560.133 904.424C-564.548 898.56 -567.141 890.27 -566.62 882.174L-480.387 -457.357C-479.427 -472.265 -469.679 -485.766 -456.513 -490.421L1467.27 -1170.67C1475.1 -1173.44 1483.27 -1172.73 1489.95 -1168.7L2259.04 -704.9C2266.05 -700.671 2270.81 -693.161 2272.16 -684.188L2461.46 573.757C2462.43 580.242 2461.57 587.127 2458.99 593.506L2110.57 1453.45C2096.84 1487.33 2052.07 1482.38 2051.4 1446.91C2042.3 969.509 1956.43 -14.0584 1297.99 577.659C372.583 1409.3 792.566 217.624 -133.507 511.72Z" fill="url(#paint2_linear_553_7211)" fill-opacity="0.12"/>
<path d="M-124.585 1104.57C-665.47 1440.91 543.958 2479.79 -474.857 1602.05C-480.698 1597.02 -485.075 1588.74 -486.007 1579.89L-626.233 248.512C-627.782 233.806 -621.218 218.783 -609.982 211.319L1159.12 -963.852C1165.74 -968.253 1173.3 -969.539 1180.25 -967.446L2009.47 -717.448C2017.53 -715.019 2023.98 -708.273 2027.08 -699.038L2422.37 478.543C2424.57 485.106 2424.94 492.518 2423.42 499.719L2225.86 1437.96C2218.21 1474.29 2175.14 1477.68 2168.41 1442.51C2079.66 978.645 1830.82 37.4859 1285.89 790.649C520.676 1848.26 731.416 572.28 -124.585 1104.57Z" fill="url(#paint3_linear_553_7211)" fill-opacity="0.12"/>
</g>
<defs>
<linearGradient id="paint0_linear_553_7211" x1="-59.2462" y1="1664.58" x2="2330.71" y2="-337.162" gradientUnits="userSpaceOnUse">
<stop stop-color="white"/>
<stop offset="1" stop-color="white" stop-opacity="0"/>
</linearGradient>
<linearGradient id="paint1_linear_553_7211" x1="176.199" y1="2223.2" x2="1990.57" y2="-558.109" gradientUnits="userSpaceOnUse">
<stop stop-color="white"/>
<stop offset="1" stop-color="white" stop-opacity="0"/>
</linearGradient>
<linearGradient id="paint2_linear_553_7211" x1="544.973" y1="2616.24" x2="1592.86" y2="-679.998" gradientUnits="userSpaceOnUse">
<stop stop-color="white"/>
<stop offset="1" stop-color="white" stop-opacity="0"/>
</linearGradient>
<linearGradient id="paint3_linear_553_7211" x1="891.591" y1="2982.58" x2="1049.91" y2="-530.878" gradientUnits="userSpaceOnUse">
<stop stop-color="white"/>
<stop offset="1" stop-color="white" stop-opacity="0"/>
</linearGradient>
<clipPath id="clip0_553_7211">
<rect width="2043.21" height="1048.21" fill="white"/>
</clipPath>
</defs>
</svg>
