<svg width="177" height="60" viewBox="0 0 177 60" fill="none" xmlns="http://www.w3.org/2000/svg">
<rect x="0.517184" y="0.517184" width="175.507" height="58.2694" rx="9.13692" stroke="white" stroke-width="1.03437"/>
<path d="M35.2167 34.9108C39.1873 32.6916 42.2237 31.0007 42.4832 30.8686C43.3137 30.4195 44.1701 29.2306 42.4832 28.3059C41.9382 28.0153 39.0057 26.3773 35.2167 24.2637L30.0004 29.6005L35.2167 34.9108Z" fill="#FFDD33"/>
<path d="M30.0004 29.6005L13.3393 46.694C13.7286 46.7468 14.1698 46.6411 14.6888 46.3505C15.7788 45.7429 27.3533 39.2965 35.2167 34.9108L30.0004 29.6005Z" fill="#FF6666"/>
<path d="M30.0004 29.6005L35.2167 24.2637C35.2167 24.2637 15.8566 13.5109 14.6887 12.8769C14.2476 12.6127 13.7545 12.5334 13.3133 12.6127L30.0004 29.6005Z" fill="#7BFF7B"/>
<path d="M30.0004 29.6005L13.3133 12.6127C12.6386 12.7712 12.0676 13.3788 12.0676 14.6206C12.0676 16.602 12.0676 43.0217 12.0676 44.6861C12.0676 45.8221 12.5088 46.6411 13.3393 46.7204L30.0004 29.6005Z" fill="#6ED8FF"/>
<path d="M58.9379 14.6495C58.8555 14.391 58.7448 14.1595 58.6055 13.9549C58.4692 13.7476 58.3058 13.5714 58.1155 13.4265C57.9251 13.2788 57.7078 13.1666 57.4635 13.0899C57.222 13.0132 56.9564 12.9748 56.6666 12.9748C56.1751 12.9748 55.732 13.1013 55.3371 13.3541C54.9422 13.6069 54.6297 13.9777 54.3996 14.4663C54.1723 14.9521 54.0587 15.5473 54.0587 16.2518C54.0587 16.9592 54.1737 17.5572 54.4038 18.0459C54.634 18.5345 54.9493 18.9052 55.3499 19.1581C55.7504 19.4109 56.2064 19.5373 56.7178 19.5373C57.1922 19.5373 57.6055 19.4407 57.9578 19.2476C58.3129 19.0544 58.5871 18.7817 58.7803 18.4294C58.9763 18.0743 59.0743 17.6567 59.0743 17.1765L59.4152 17.2405H56.918V16.1538H60.3484V17.1467C60.3484 17.8797 60.1922 18.516 59.8797 19.0558C59.57 19.5927 59.1411 20.0075 58.5928 20.3001C58.0473 20.5927 57.4223 20.739 56.7178 20.739C55.928 20.739 55.2348 20.5572 54.6382 20.1936C54.0445 19.8299 53.5814 19.3143 53.249 18.6467C52.9166 17.9763 52.7504 17.1808 52.7504 16.2603C52.7504 15.5643 52.847 14.9393 53.0402 14.3853C53.2334 13.8314 53.5047 13.3612 53.8541 12.9748C54.2064 12.5856 54.6198 12.2888 55.0942 12.0842C55.5715 11.8768 56.0928 11.7731 56.6581 11.7731C57.1297 11.7731 57.5686 11.8427 57.9749 11.9819C58.384 12.1211 58.7476 12.3186 59.0658 12.5743C59.3868 12.8299 59.6524 13.1339 59.8626 13.4862C60.0729 13.8356 60.2149 14.2234 60.2888 14.6495H58.9379ZM64.7387 20.7518C64.0938 20.7518 63.5384 20.614 63.0725 20.3385C62.6095 20.0601 62.2515 19.6694 61.9987 19.1666C61.7487 18.6609 61.6237 18.0686 61.6237 17.3896C61.6237 16.7192 61.7487 16.1282 61.9987 15.6169C62.2515 15.1055 62.6038 14.7064 63.0555 14.4194C63.51 14.1325 64.0413 13.989 64.6492 13.989C65.0185 13.989 65.3765 14.0501 65.7231 14.1723C66.0697 14.2944 66.3808 14.4862 66.6563 14.7476C66.9319 15.0089 67.1492 15.3484 67.3083 15.766C67.4674 16.1808 67.547 16.6851 67.547 17.2788V17.7305H62.3438V16.776H66.2984C66.2984 16.4407 66.2302 16.1439 66.0938 15.8853C65.9575 15.624 65.7657 15.418 65.5185 15.2674C65.2742 15.1169 64.9873 15.0416 64.6577 15.0416C64.2998 15.0416 63.9873 15.1297 63.7202 15.3058C63.456 15.4791 63.2515 15.7064 63.1066 15.9876C62.9646 16.266 62.8935 16.5686 62.8935 16.8953V17.641C62.8935 18.0785 62.9702 18.4507 63.1237 18.7575C63.2799 19.0643 63.4972 19.2987 63.7756 19.4606C64.0541 19.6197 64.3793 19.6993 64.7515 19.6993C64.993 19.6993 65.2131 19.6652 65.412 19.597C65.6109 19.526 65.7827 19.4209 65.9276 19.2817C66.0725 19.1424 66.1833 18.9706 66.26 18.766L67.466 18.9834C67.3694 19.3385 67.1961 19.6495 66.9461 19.9166C66.6989 20.1808 66.3879 20.3868 66.0129 20.5345C65.6407 20.6794 65.216 20.7518 64.7387 20.7518ZM72.0161 14.0743V15.097H68.4408V14.0743H72.0161ZM69.3996 12.5061H70.6737V18.6978C70.6737 18.945 70.7107 19.1311 70.7845 19.2561C70.8584 19.3782 70.9536 19.462 71.07 19.5075C71.1894 19.5501 71.3186 19.5714 71.4578 19.5714C71.5601 19.5714 71.6496 19.5643 71.7263 19.5501C71.803 19.5359 71.8626 19.5245 71.9053 19.516L72.1354 20.5686C72.0615 20.597 71.9564 20.6254 71.82 20.6538C71.6837 20.6851 71.5132 20.7021 71.3087 20.7049C70.9734 20.7106 70.6609 20.651 70.3712 20.526C70.0814 20.401 69.847 20.2078 69.668 19.9464C69.4891 19.6851 69.3996 19.3569 69.3996 18.9621V12.5061ZM76.6013 20.6197V14.0743H77.8754V20.6197H76.6013ZM77.2448 13.0643C77.0232 13.0643 76.8328 12.9905 76.6737 12.8427C76.5175 12.6922 76.4394 12.5132 76.4394 12.3058C76.4394 12.0956 76.5175 11.9166 76.6737 11.7689C76.8328 11.6183 77.0232 11.543 77.2448 11.543C77.4663 11.543 77.6553 11.6183 77.8115 11.7689C77.9706 11.9166 78.0501 12.0956 78.0501 12.3058C78.0501 12.5132 77.9706 12.6922 77.8115 12.8427C77.6553 12.9905 77.4663 13.0643 77.2448 13.0643ZM82.645 14.0743V15.097H79.0697V14.0743H82.645ZM80.0285 12.5061H81.3026V18.6978C81.3026 18.945 81.3396 19.1311 81.4134 19.2561C81.4873 19.3782 81.5825 19.462 81.6989 19.5075C81.8183 19.5501 81.9475 19.5714 82.0867 19.5714C82.189 19.5714 82.2785 19.5643 82.3552 19.5501C82.4319 19.5359 82.4916 19.5245 82.5342 19.516L82.7643 20.5686C82.6904 20.597 82.5853 20.6254 82.4489 20.6538C82.3126 20.6851 82.1421 20.7021 81.9376 20.7049C81.6024 20.7106 81.2899 20.651 81.0001 20.526C80.7103 20.401 80.4759 20.2078 80.297 19.9464C80.118 19.6851 80.0285 19.3569 80.0285 18.9621V12.5061ZM89.9873 20.7518C89.3737 20.7518 88.8381 20.6112 88.3808 20.3299C87.9234 20.0487 87.5683 19.6552 87.3154 19.1495C87.0626 18.6439 86.9362 18.053 86.9362 17.3768C86.9362 16.6978 87.0626 16.1041 87.3154 15.5956C87.5683 15.087 87.9234 14.6922 88.3808 14.4109C88.8381 14.1297 89.3737 13.989 89.9873 13.989C90.6009 13.989 91.1364 14.1297 91.5938 14.4109C92.0512 14.6922 92.4063 15.087 92.6592 15.5956C92.912 16.1041 93.0384 16.6978 93.0384 17.3768C93.0384 18.053 92.912 18.6439 92.6592 19.1495C92.4063 19.6552 92.0512 20.0487 91.5938 20.3299C91.1364 20.6112 90.6009 20.7518 89.9873 20.7518ZM89.9916 19.6822C90.3893 19.6822 90.7188 19.5771 90.9802 19.3669C91.2416 19.1567 91.4347 18.8768 91.5597 18.5274C91.6876 18.178 91.7515 17.793 91.7515 17.3726C91.7515 16.9549 91.6876 16.5714 91.5597 16.222C91.4347 15.8697 91.2416 15.587 90.9802 15.374C90.7188 15.1609 90.3893 15.0544 89.9916 15.0544C89.591 15.0544 89.2586 15.1609 88.9944 15.374C88.733 15.587 88.5384 15.8697 88.4106 16.222C88.2856 16.5714 88.2231 16.9549 88.2231 17.3726C88.2231 17.793 88.2856 18.178 88.4106 18.5274C88.5384 18.8768 88.733 19.1567 88.9944 19.3669C89.2586 19.5771 89.591 19.6822 89.9916 19.6822ZM95.7348 16.7334V20.6197H94.4607V14.0743H95.6837V15.1396H95.7646C95.9152 14.793 96.151 14.5146 96.472 14.3044C96.7959 14.0942 97.2036 13.989 97.695 13.989C98.1411 13.989 98.5317 14.0828 98.8669 14.2703C99.2021 14.4549 99.4621 14.7305 99.6467 15.097C99.8314 15.4635 99.9237 15.9166 99.9237 16.4564V20.6197H98.6496V16.6098C98.6496 16.1353 98.526 15.7646 98.2788 15.4976C98.0317 15.2277 97.6922 15.0927 97.2604 15.0927C96.9649 15.0927 96.7021 15.1567 96.472 15.2845C96.2448 15.4123 96.0644 15.5998 95.9308 15.847C95.8001 16.0913 95.7348 16.3868 95.7348 16.7334Z" fill="white"/>
<path d="M53.8307 44.0035V28.0035H59.5338C60.7786 28.0035 61.8099 28.2301 62.6276 28.6832C63.4453 29.1363 64.0573 29.7561 64.4635 30.5426C64.8698 31.3238 65.0729 32.204 65.0729 33.1832C65.0729 34.1676 64.8671 35.053 64.4557 35.8394C64.0494 36.6207 63.4349 37.2405 62.6119 37.6988C61.7942 38.1519 60.7656 38.3785 59.526 38.3785H55.6041V36.3316H59.3073C60.0937 36.3316 60.7317 36.1962 61.2213 35.9254C61.7109 35.6493 62.0703 35.2743 62.2994 34.8004C62.5286 34.3264 62.6432 33.7874 62.6432 33.1832C62.6432 32.579 62.5286 32.0426 62.2994 31.5738C62.0703 31.1051 61.7083 30.7379 61.2135 30.4723C60.7239 30.2066 60.0781 30.0738 59.276 30.0738H56.2448V44.0035H53.8307ZM68.5114 28.0035V44.0035H66.1755V28.0035H68.5114ZM73.6062 44.2691C72.8457 44.2691 72.1582 44.1285 71.5437 43.8473C70.9291 43.5608 70.4421 43.1467 70.0827 42.6051C69.7286 42.0634 69.5515 41.3993 69.5515 40.6129C69.5515 39.9358 69.6817 39.3785 69.9421 38.941C70.2025 38.5035 70.5541 38.1572 70.9968 37.9019C71.4395 37.6467 71.9343 37.454 72.4812 37.3238C73.028 37.1936 73.5853 37.0947 74.153 37.0269C74.8718 36.9436 75.4551 36.8759 75.903 36.8238C76.3509 36.7665 76.6765 36.6754 76.8796 36.5504C77.0827 36.4254 77.1843 36.2223 77.1843 35.941V35.8863C77.1843 35.204 76.9916 34.6754 76.6062 34.3004C76.2259 33.9254 75.6582 33.7379 74.903 33.7379C74.1166 33.7379 73.4968 33.9124 73.0437 34.2613C72.5957 34.6051 72.2858 34.9879 72.114 35.4098L69.9187 34.9098C70.1791 34.1806 70.5593 33.5921 71.0593 33.1441C71.5645 32.691 72.1452 32.3629 72.8015 32.1598C73.4577 31.9514 74.1478 31.8473 74.8718 31.8473C75.3509 31.8473 75.8588 31.9046 76.3952 32.0191C76.9369 32.1285 77.4421 32.3316 77.9108 32.6285C78.3848 32.9254 78.7728 33.3499 79.0749 33.9019C79.377 34.4488 79.528 35.1598 79.528 36.0348V44.0035H77.2468V42.3629H77.153C77.002 42.665 76.7754 42.9618 76.4733 43.2535C76.1713 43.5452 75.7832 43.7874 75.3093 43.9801C74.8353 44.1728 74.2676 44.2691 73.6062 44.2691ZM74.114 42.3941C74.7598 42.3941 75.3119 42.2665 75.7702 42.0113C76.2338 41.7561 76.5853 41.4228 76.8249 41.0113C77.0697 40.5947 77.1921 40.1493 77.1921 39.6754V38.1285C77.1088 38.2118 76.9473 38.29 76.7077 38.3629C76.4733 38.4306 76.2051 38.4905 75.903 38.5426C75.6009 38.5894 75.3067 38.6337 75.0202 38.6754C74.7338 38.7118 74.4942 38.7431 74.3015 38.7691C73.8483 38.8264 73.4343 38.9228 73.0593 39.0582C72.6895 39.1936 72.3926 39.3889 72.1687 39.6441C71.9499 39.8941 71.8405 40.2275 71.8405 40.6441C71.8405 41.2223 72.0541 41.6598 72.4812 41.9566C72.9082 42.2483 73.4525 42.3941 74.114 42.3941ZM82.1462 48.5035C81.7973 48.5035 81.4796 48.4749 81.1931 48.4176C80.9067 48.3655 80.6931 48.3082 80.5525 48.2457L81.115 46.3316C81.5421 46.4462 81.9223 46.4957 82.2556 46.4801C82.5889 46.4644 82.8832 46.3394 83.1384 46.1051C83.3988 45.8707 83.628 45.4879 83.8259 44.9566L84.115 44.1598L79.7244 32.0035H82.2244L85.2634 41.316H85.3884L88.4275 32.0035H90.9353L85.99 45.6051C85.7608 46.2301 85.4692 46.7587 85.115 47.191C84.7608 47.6285 84.3389 47.9566 83.8494 48.1754C83.3598 48.3941 82.7921 48.5035 82.1462 48.5035ZM104.787 32.2066C104.704 31.4671 104.36 30.8941 103.756 30.4879C103.152 30.0764 102.391 29.8707 101.474 29.8707C100.818 29.8707 100.25 29.9749 99.7713 30.1832C99.2921 30.3863 98.9198 30.6676 98.6541 31.0269C98.3937 31.3811 98.2635 31.7848 98.2635 32.2379C98.2635 32.6181 98.352 32.9462 98.5291 33.2223C98.7114 33.4983 98.9484 33.7301 99.2401 33.9176C99.5369 34.0999 99.8546 34.2535 100.193 34.3785C100.532 34.4983 100.857 34.5973 101.17 34.6754L102.732 35.0816C103.243 35.2066 103.766 35.3759 104.303 35.5894C104.839 35.803 105.336 36.0842 105.795 36.4332C106.253 36.7822 106.623 37.2144 106.904 37.7301C107.191 38.2457 107.334 38.8629 107.334 39.5816C107.334 40.4879 107.099 41.2926 106.631 41.9957C106.167 42.6988 105.493 43.2535 104.607 43.6598C103.727 44.066 102.662 44.2691 101.412 44.2691C100.214 44.2691 99.1776 44.079 98.3026 43.6988C97.4276 43.3186 96.7427 42.7796 96.2479 42.0816C95.7531 41.3785 95.4796 40.5452 95.4276 39.5816H97.8494C97.8963 40.1598 98.0838 40.6415 98.4119 41.0269C98.7453 41.4072 99.1698 41.691 99.6854 41.8785C100.206 42.0608 100.777 42.1519 101.396 42.1519C102.079 42.1519 102.685 42.0452 103.217 41.8316C103.753 41.6129 104.175 41.3108 104.482 40.9254C104.79 40.5348 104.943 40.079 104.943 39.5582C104.943 39.0842 104.808 38.6962 104.537 38.3941C104.271 38.0921 103.909 37.8421 103.451 37.6441C102.998 37.4462 102.485 37.2717 101.912 37.1207L100.021 36.6051C98.7401 36.2561 97.7244 35.7431 96.9744 35.066C96.2296 34.3889 95.8573 33.4931 95.8573 32.3785C95.8573 31.4566 96.1073 30.6519 96.6073 29.9644C97.1073 29.2769 97.7843 28.7431 98.6385 28.3629C99.4927 27.9775 100.456 27.7848 101.529 27.7848C102.612 27.7848 103.568 27.9749 104.396 28.3551C105.23 28.7353 105.886 29.2587 106.365 29.9254C106.844 30.5868 107.094 31.3473 107.115 32.2066H104.787ZM114.093 32.0035V33.8785H107.538V32.0035H114.093ZM109.296 29.1285H111.632V40.4801C111.632 40.9332 111.699 41.2743 111.835 41.5035C111.97 41.7275 112.145 41.8811 112.358 41.9644C112.577 42.0426 112.814 42.0816 113.069 42.0816C113.257 42.0816 113.421 42.0686 113.561 42.0426C113.702 42.0165 113.811 41.9957 113.89 41.9801L114.311 43.9098C114.176 43.9618 113.983 44.0139 113.733 44.066C113.483 44.1233 113.171 44.1546 112.796 44.1598C112.181 44.1702 111.608 44.0608 111.077 43.8316C110.546 43.6025 110.116 43.2483 109.788 42.7691C109.46 42.29 109.296 41.6884 109.296 40.9644V29.1285ZM120.062 44.2457C118.937 44.2457 117.956 43.9879 117.117 43.4723C116.279 42.9566 115.628 42.2353 115.164 41.3082C114.7 40.3811 114.469 39.2978 114.469 38.0582C114.469 36.8134 114.7 35.7249 115.164 34.7926C115.628 33.8603 116.279 33.1363 117.117 32.6207C117.956 32.1051 118.937 31.8473 120.062 31.8473C121.187 31.8473 122.169 32.1051 123.008 32.6207C123.846 33.1363 124.497 33.8603 124.961 34.7926C125.424 35.7249 125.656 36.8134 125.656 38.0582C125.656 39.2978 125.424 40.3811 124.961 41.3082C124.497 42.2353 123.846 42.9566 123.008 43.4723C122.169 43.9879 121.187 44.2457 120.062 44.2457ZM120.07 42.2848C120.799 42.2848 121.404 42.0921 121.883 41.7066C122.362 41.3212 122.716 40.8082 122.945 40.1676C123.18 39.5269 123.297 38.8212 123.297 38.0504C123.297 37.2848 123.18 36.5816 122.945 35.941C122.716 35.2952 122.362 34.7769 121.883 34.3863C121.404 33.9957 120.799 33.8004 120.07 33.8004C119.336 33.8004 118.726 33.9957 118.242 34.3863C117.763 34.7769 117.406 35.2952 117.172 35.941C116.943 36.5816 116.828 37.2848 116.828 38.0504C116.828 38.8212 116.943 39.5269 117.172 40.1676C117.406 40.8082 117.763 41.3212 118.242 41.7066C118.726 42.0921 119.336 42.2848 120.07 42.2848ZM126.724 44.0035V32.0035H128.981V33.9098H129.106C129.325 33.2639 129.711 32.7561 130.263 32.3863C130.82 32.0113 131.45 31.8238 132.153 31.8238C132.299 31.8238 132.471 31.829 132.669 31.8394C132.872 31.8499 133.031 31.8629 133.145 31.8785V34.1129C133.052 34.0868 132.885 34.0582 132.645 34.0269C132.406 33.9905 132.166 33.9723 131.927 33.9723C131.375 33.9723 130.882 34.0894 130.45 34.3238C130.023 34.553 129.685 34.8733 129.435 35.2848C129.185 35.691 129.06 36.1546 129.06 36.6754V44.0035H126.724ZM138.369 44.2457C137.187 44.2457 136.169 43.9931 135.314 43.4879C134.465 42.9775 133.809 42.2613 133.346 41.3394C132.887 40.4124 132.658 39.3264 132.658 38.0816C132.658 36.8525 132.887 35.7691 133.346 34.8316C133.809 33.8941 134.455 33.1624 135.283 32.6363C136.117 32.1103 137.09 31.8473 138.205 31.8473C138.882 31.8473 139.538 31.9592 140.174 32.1832C140.809 32.4072 141.38 32.7587 141.885 33.2379C142.39 33.7171 142.788 34.3394 143.08 35.1051C143.372 35.8655 143.518 36.79 143.518 37.8785V38.7066H133.979V36.9566H141.229C141.229 36.3421 141.104 35.7978 140.854 35.3238C140.604 34.8447 140.252 34.4671 139.799 34.191C139.351 33.915 138.825 33.7769 138.221 33.7769C137.564 33.7769 136.992 33.9384 136.502 34.2613C136.018 34.579 135.643 34.9957 135.377 35.5113C135.117 36.0217 134.986 36.5764 134.986 37.1754V38.5426C134.986 39.3447 135.127 40.0269 135.408 40.5894C135.695 41.1519 136.093 41.5816 136.604 41.8785C137.114 42.1702 137.71 42.316 138.393 42.316C138.835 42.316 139.239 42.2535 139.604 42.1285C139.968 41.9983 140.283 41.8056 140.549 41.5504C140.814 41.2952 141.018 40.9801 141.158 40.6051L143.369 41.0035C143.192 41.6546 142.874 42.2249 142.416 42.7144C141.963 43.1988 141.393 43.5764 140.705 43.8473C140.023 44.1129 139.244 44.2457 138.369 44.2457Z" fill="white"/>
</svg>
